<svg width="280" height="86" viewBox="0 0 280 86" fill="none" xmlns="http://www.w3.org/2000/svg">
<rect width="280" height="86" rx="12" fill="#DFDFE0"/>
<path d="M247.632 17.5898C247.632 19.3477 248.78 21.1641 250.397 21.8555L249.788 22.7227C248.552 22.1777 247.567 21.0234 247.081 19.6172C246.595 21.1172 245.604 22.3945 244.386 22.9922L243.741 22.1133C245.323 21.375 246.495 19.3945 246.507 17.5898V16.4766H244.104V15.5508H250.022V16.4766H247.632V17.5898ZM252.46 14.4961V24.9961H251.347V14.4961H252.46ZM262.406 15.0234V15.8203C262.406 16.6465 262.406 17.584 262.137 18.8555H263.625V19.7695H254.016V18.8555H261.012C261.293 17.6309 261.305 16.7344 261.305 15.9375H255.223V15.0234H262.406ZM262.418 21.1055V24.8672H255.188V21.1055H262.418ZM256.277 21.9844V23.9648H261.316V21.9844H256.277Z" fill="black" fill-opacity="0.2"/>
<path d="M247.632 17.5898C247.632 19.3477 248.78 21.1641 250.397 21.8555L249.788 22.7227C248.552 22.1777 247.567 21.0234 247.081 19.6172C246.595 21.1172 245.604 22.3945 244.386 22.9922L243.741 22.1133C245.323 21.375 246.495 19.3945 246.507 17.5898V16.4766H244.104V15.5508H250.022V16.4766H247.632V17.5898ZM252.46 14.4961V24.9961H251.347V14.4961H252.46ZM262.406 15.0234V15.8203C262.406 16.6465 262.406 17.584 262.137 18.8555H263.625V19.7695H254.016V18.8555H261.012C261.293 17.6309 261.305 16.7344 261.305 15.9375H255.223V15.0234H262.406ZM262.418 21.1055V24.8672H255.188V21.1055H262.418ZM256.277 21.9844V23.9648H261.316V21.9844H256.277Z" fill="black" fill-opacity="0.36" style="mix-blend-mode:overlay"/>
<path d="M46.4688 14.4961V24.9961H45.4023V14.4961H46.4688ZM44.3945 14.7305V24.457H43.3398V19.4297H42.0273V18.4336H43.3398V14.7305H44.3945ZM42.3086 15.7852V16.6992H41.5V21.3867C41.8574 21.3633 42.2031 21.3223 42.5195 21.2812L42.6016 22.0898C40.9375 22.418 38.7578 22.4648 37.3984 22.4648L37.2695 21.5273C37.5742 21.5273 37.9258 21.5273 38.3008 21.5156V16.6992H37.4922V15.7852H42.3086ZM39.3086 21.5039C39.6895 21.4922 40.082 21.4805 40.4688 21.457V16.6992H39.3086V21.5039ZM56.3331 14.4961V25.0195H55.2198V14.4961H56.3331ZM50.7198 15.2812C52.2784 15.2812 53.4269 16.7109 53.4269 18.9609C53.4269 21.2227 52.2784 22.6523 50.7198 22.6523C49.1378 22.6523 48.0011 21.2227 48.0011 18.9609C48.0011 16.7109 49.1378 15.2812 50.7198 15.2812ZM50.7198 16.2773C49.7472 16.2773 49.0792 17.3086 49.0792 18.9609C49.0792 20.625 49.7472 21.6562 50.7198 21.6562C51.6808 21.6562 52.3488 20.625 52.3488 18.9609C52.3488 17.3086 51.6808 16.2773 50.7198 16.2773ZM66.2444 14.9297V18.4922H63.2209V19.5938H67.4631V20.4844H57.8889V19.5938H62.1194V18.4922H59.1077V14.9297H66.2444ZM60.1975 15.8086V17.6016H65.1428V15.8086H60.1975ZM62.6702 21.2344C64.9319 21.2344 66.2913 21.9023 66.2913 23.1094C66.2913 24.3164 64.9319 24.9844 62.6702 24.9961C60.385 24.9844 59.0256 24.3164 59.0256 23.1094C59.0256 21.9023 60.385 21.2344 62.6702 21.2344ZM62.6702 22.0898C61.0647 22.0898 60.1506 22.4531 60.1506 23.1094C60.1506 23.7773 61.0647 24.1289 62.6702 24.1172C64.2522 24.1289 65.178 23.7773 65.178 23.1094C65.178 22.4531 64.2522 22.0898 62.6702 22.0898Z" fill="black" fill-opacity="0.2"/>
<path d="M46.4688 14.4961V24.9961H45.4023V14.4961H46.4688ZM44.3945 14.7305V24.457H43.3398V19.4297H42.0273V18.4336H43.3398V14.7305H44.3945ZM42.3086 15.7852V16.6992H41.5V21.3867C41.8574 21.3633 42.2031 21.3223 42.5195 21.2812L42.6016 22.0898C40.9375 22.418 38.7578 22.4648 37.3984 22.4648L37.2695 21.5273C37.5742 21.5273 37.9258 21.5273 38.3008 21.5156V16.6992H37.4922V15.7852H42.3086ZM39.3086 21.5039C39.6895 21.4922 40.082 21.4805 40.4688 21.457V16.6992H39.3086V21.5039ZM56.3331 14.4961V25.0195H55.2198V14.4961H56.3331ZM50.7198 15.2812C52.2784 15.2812 53.4269 16.7109 53.4269 18.9609C53.4269 21.2227 52.2784 22.6523 50.7198 22.6523C49.1378 22.6523 48.0011 21.2227 48.0011 18.9609C48.0011 16.7109 49.1378 15.2812 50.7198 15.2812ZM50.7198 16.2773C49.7472 16.2773 49.0792 17.3086 49.0792 18.9609C49.0792 20.625 49.7472 21.6562 50.7198 21.6562C51.6808 21.6562 52.3488 20.625 52.3488 18.9609C52.3488 17.3086 51.6808 16.2773 50.7198 16.2773ZM66.2444 14.9297V18.4922H63.2209V19.5938H67.4631V20.4844H57.8889V19.5938H62.1194V18.4922H59.1077V14.9297H66.2444ZM60.1975 15.8086V17.6016H65.1428V15.8086H60.1975ZM62.6702 21.2344C64.9319 21.2344 66.2913 21.9023 66.2913 23.1094C66.2913 24.3164 64.9319 24.9844 62.6702 24.9961C60.385 24.9844 59.0256 24.3164 59.0256 23.1094C59.0256 21.9023 60.385 21.2344 62.6702 21.2344ZM62.6702 22.0898C61.0647 22.0898 60.1506 22.4531 60.1506 23.1094C60.1506 23.7773 61.0647 24.1289 62.6702 24.1172C64.2522 24.1289 65.178 23.7773 65.178 23.1094C65.178 22.4531 64.2522 22.0898 62.6702 22.0898Z" fill="black" fill-opacity="0.36" style="mix-blend-mode:overlay"/>
<g clip-path="url(#clip0_2089_1071)">
<path d="M19.9971 18.4359C19.9913 17.597 20.4119 16.7821 21.1633 16.3327C22.2772 15.6676 23.7045 16.0631 24.3485 17.2135L26.6809 21.384C27.3249 22.5344 26.942 24.0085 25.828 24.6736C24.714 25.3387 23.2868 24.9432 22.6428 23.7928L22.3208 23.2175L22.0045 23.7838C21.6767 24.371 21.1459 24.7605 20.5541 24.9163C20.5512 24.9163 20.5454 24.9163 20.5425 24.9163C20.5396 24.9163 20.5338 24.9163 20.5309 24.9193C20.3684 24.9612 20.2002 24.9822 20.0348 24.9852C20.0261 24.9852 20.0174 24.9852 20.0087 24.9852C20.0087 24.9852 20.0058 24.9852 20.0029 24.9852C19.9971 24.9852 19.9913 24.9852 19.9855 24.9852C19.9797 24.9852 19.9739 24.9852 19.9681 24.9852C19.9681 24.9852 19.9652 24.9852 19.9623 24.9852C19.9536 24.9852 19.9449 24.9852 19.9362 24.9852C19.7708 24.9822 19.6055 24.9582 19.4401 24.9193C19.4372 24.9193 19.4314 24.9193 19.4285 24.9163C19.4256 24.9163 19.4198 24.9163 19.4169 24.9163C18.828 24.7635 18.2942 24.371 17.9664 23.7838L17.5342 23.0108L20.0029 18.4359H19.9971Z" fill="url(#paint0_linear_2089_1071)"/>
<path d="M19.9971 18.4359C19.9913 17.597 20.4119 16.7821 21.1633 16.3327C22.2772 15.6676 23.7045 16.0631 24.3485 17.2135L26.6809 21.384C27.3249 22.5344 26.942 24.0085 25.828 24.6736C24.714 25.3387 23.2868 24.9432 22.6428 23.7928L22.3208 23.2175L22.0045 23.7838C21.6767 24.371 21.1459 24.7605 20.5541 24.9163C20.5512 24.9163 20.5454 24.9163 20.5425 24.9163C20.5396 24.9163 20.5338 24.9163 20.5309 24.9193C20.3684 24.9612 20.2002 24.9822 20.0348 24.9852C20.0261 24.9852 20.0174 24.9852 20.0087 24.9852C20.0087 24.9852 20.0058 24.9852 20.0029 24.9852C19.9971 24.9852 19.9913 24.9852 19.9855 24.9852C19.9797 24.9852 19.9739 24.9852 19.9681 24.9852C19.9681 24.9852 19.9652 24.9852 19.9623 24.9852C19.9536 24.9852 19.9449 24.9852 19.9362 24.9852C19.7708 24.9822 19.6055 24.9582 19.4401 24.9193C19.4372 24.9193 19.4314 24.9193 19.4285 24.9163C19.4256 24.9163 19.4198 24.9163 19.4169 24.9163C18.828 24.7635 18.2942 24.371 17.9664 23.7838L17.5342 23.0108L20.0029 18.4359H19.9971Z" fill="url(#paint1_linear_2089_1071)" fill-opacity="0.8"/>
<path d="M18.8311 16.3353C19.9451 17.0004 20.328 18.4745 19.684 19.6249L17.3516 23.7954C16.7076 24.9458 15.2803 25.3413 14.1664 24.6762C13.0524 24.0111 12.6724 22.5371 13.3164 21.3866L15.6458 17.2162C16.2899 16.0627 17.7171 15.6702 18.8311 16.3353Z" fill="url(#paint2_linear_2089_1071)"/>
</g>
<path d="M22.8281 39.8164V52.2578H21.0918V39.8164H22.8281ZM12.4238 48.7441C13.374 48.7373 14.4609 48.7373 15.5957 48.7031V47.6504C14.2285 47.4111 13.3398 46.5635 13.3535 45.3945C13.3398 44 14.6113 43.0566 16.4434 43.0566C18.2891 43.0566 19.5742 44 19.5742 45.3945C19.5742 46.5566 18.6855 47.4043 17.3184 47.6504V48.6484C18.3574 48.6006 19.4102 48.5186 20.4082 48.3887L20.5312 49.6738C17.8105 50.1387 14.8711 50.166 12.6562 50.166L12.4238 48.7441ZM20.2305 41.1973V42.5645H12.6699V41.1973H15.5957V39.8711H17.332V41.1973H20.2305ZM16.4434 44.3828C15.5957 44.3828 14.9941 44.752 15.0078 45.3945C14.9941 46.0508 15.5957 46.4062 16.4434 46.4062C17.3184 46.4062 17.9062 46.0508 17.9062 45.3945C17.9062 44.752 17.3184 44.3828 16.4434 44.3828ZM34.8698 39.8301V49.2227H33.1198V48.2383H30.7409V47.0488H33.1198V39.8301H34.8698ZM35.1432 50.6445V52.0391H25.8737V48.3203H27.61V46.666C26.4957 46.7139 25.4362 46.7207 24.4928 46.7207L24.2877 45.3398C26.5709 45.3262 29.6471 45.2988 32.2721 44.9707L32.3678 46.2148C31.3834 46.3789 30.3649 46.4951 29.36 46.5703V48.9355H27.61V50.6445H35.1432ZM28.3346 40.2539C30.1393 40.2402 31.4381 41.1562 31.4381 42.4824C31.4381 43.8086 30.1393 44.6699 28.3346 44.6699C26.4889 44.6699 25.2037 43.8086 25.2037 42.4824C25.2037 41.1562 26.4752 40.2402 28.3346 40.2539ZM28.3346 41.5254C27.4459 41.5254 26.8444 41.8672 26.858 42.4824C26.8444 43.084 27.4459 43.4121 28.3346 43.4121C29.1686 43.4121 29.7702 43.084 29.7838 42.4824C29.7702 41.8672 29.1686 41.5254 28.3346 41.5254ZM46.1048 39.8164V44.5879H47.8684V46.0234H46.1048V52.2305H44.3548V39.8164H46.1048ZM42.7825 41.0879C42.7688 44.8066 41.3196 48.0332 37.136 50.084L36.1516 48.7441C39.0979 47.2676 40.677 45.2852 41.0052 42.5098H36.8626V41.0879H42.7825ZM58.6659 39.8164V46.502H56.9159V39.8164H58.6659ZM52.0624 47.0488V48.2109H56.9296V47.0488H58.6659V52.1211H50.3398V47.0488H52.0624ZM52.0624 50.7129H56.9296V49.5645H52.0624V50.7129ZM51.8437 40.3359C53.7851 40.3223 55.248 41.5391 55.248 43.2891C55.248 44.9844 53.7851 46.2012 51.8437 46.2012C49.9023 46.2012 48.4394 44.9844 48.4394 43.2891C48.4394 41.5391 49.9023 40.3223 51.8437 40.3359ZM51.8437 41.7852C50.8456 41.7852 50.1347 42.3457 50.1484 43.2891C50.1347 44.2188 50.8456 44.7656 51.8437 44.7656C52.8144 44.7656 53.5253 44.2188 53.5253 43.2891C53.5253 42.3457 52.8144 41.7852 51.8437 41.7852Z" fill="black" fill-opacity="0.5"/>
<path d="M22.8281 39.8164V52.2578H21.0918V39.8164H22.8281ZM12.4238 48.7441C13.374 48.7373 14.4609 48.7373 15.5957 48.7031V47.6504C14.2285 47.4111 13.3398 46.5635 13.3535 45.3945C13.3398 44 14.6113 43.0566 16.4434 43.0566C18.2891 43.0566 19.5742 44 19.5742 45.3945C19.5742 46.5566 18.6855 47.4043 17.3184 47.6504V48.6484C18.3574 48.6006 19.4102 48.5186 20.4082 48.3887L20.5312 49.6738C17.8105 50.1387 14.8711 50.166 12.6562 50.166L12.4238 48.7441ZM20.2305 41.1973V42.5645H12.6699V41.1973H15.5957V39.8711H17.332V41.1973H20.2305ZM16.4434 44.3828C15.5957 44.3828 14.9941 44.752 15.0078 45.3945C14.9941 46.0508 15.5957 46.4062 16.4434 46.4062C17.3184 46.4062 17.9062 46.0508 17.9062 45.3945C17.9062 44.752 17.3184 44.3828 16.4434 44.3828ZM34.8698 39.8301V49.2227H33.1198V48.2383H30.7409V47.0488H33.1198V39.8301H34.8698ZM35.1432 50.6445V52.0391H25.8737V48.3203H27.61V46.666C26.4957 46.7139 25.4362 46.7207 24.4928 46.7207L24.2877 45.3398C26.5709 45.3262 29.6471 45.2988 32.2721 44.9707L32.3678 46.2148C31.3834 46.3789 30.3649 46.4951 29.36 46.5703V48.9355H27.61V50.6445H35.1432ZM28.3346 40.2539C30.1393 40.2402 31.4381 41.1562 31.4381 42.4824C31.4381 43.8086 30.1393 44.6699 28.3346 44.6699C26.4889 44.6699 25.2037 43.8086 25.2037 42.4824C25.2037 41.1562 26.4752 40.2402 28.3346 40.2539ZM28.3346 41.5254C27.4459 41.5254 26.8444 41.8672 26.858 42.4824C26.8444 43.084 27.4459 43.4121 28.3346 43.4121C29.1686 43.4121 29.7702 43.084 29.7838 42.4824C29.7702 41.8672 29.1686 41.5254 28.3346 41.5254ZM46.1048 39.8164V44.5879H47.8684V46.0234H46.1048V52.2305H44.3548V39.8164H46.1048ZM42.7825 41.0879C42.7688 44.8066 41.3196 48.0332 37.136 50.084L36.1516 48.7441C39.0979 47.2676 40.677 45.2852 41.0052 42.5098H36.8626V41.0879H42.7825ZM58.6659 39.8164V46.502H56.9159V39.8164H58.6659ZM52.0624 47.0488V48.2109H56.9296V47.0488H58.6659V52.1211H50.3398V47.0488H52.0624ZM52.0624 50.7129H56.9296V49.5645H52.0624V50.7129ZM51.8437 40.3359C53.7851 40.3223 55.248 41.5391 55.248 43.2891C55.248 44.9844 53.7851 46.2012 51.8437 46.2012C49.9023 46.2012 48.4394 44.9844 48.4394 43.2891C48.4394 41.5391 49.9023 40.3223 51.8437 40.3359ZM51.8437 41.7852C50.8456 41.7852 50.1347 42.3457 50.1484 43.2891C50.1347 44.2188 50.8456 44.7656 51.8437 44.7656C52.8144 44.7656 53.5253 44.2188 53.5253 43.2891C53.5253 42.3457 52.8144 41.7852 51.8437 41.7852Z" fill="black" fill-opacity="0.6" style="mix-blend-mode:overlay"/>
<path d="M22.459 60.9531V73.1074H21.3926V60.9531H22.459ZM12.5605 69.8672C13.5996 69.8604 14.7891 69.8535 16.0195 69.8125V68.4863C14.5635 68.3291 13.6133 67.502 13.627 66.2852C13.6133 64.918 14.7891 64.0293 16.5391 64.0293C18.2891 64.0293 19.4785 64.918 19.4785 66.2852C19.4785 67.4883 18.5352 68.3154 17.0996 68.4727V69.7715C18.2754 69.7236 19.4648 69.6348 20.5859 69.4844L20.668 70.3047C17.9609 70.7422 14.9805 70.7832 12.7246 70.7832L12.5605 69.8672ZM20.2715 62.457V63.332H12.8203V62.457H16.0195V60.9668H17.0996V62.457H20.2715ZM16.5391 64.8633C15.418 64.8633 14.625 65.4375 14.625 66.2852C14.625 67.1328 15.418 67.6797 16.5391 67.666C17.6738 67.6797 18.4531 67.1328 18.4531 66.2852C18.4531 65.4375 17.6738 64.8633 16.5391 64.8633ZM34.4733 60.9668V70.1953H33.3932V68.9375H30.8776V68.1582H33.3932V60.9668H34.4733ZM34.7741 71.9453V72.8477H26.1334V69.293H27.2135V71.9453H34.7741ZM24.3834 66.5996C26.653 66.5859 29.6881 66.5723 32.2995 66.2441L32.3678 67.0234C31.2809 67.1943 30.1461 67.3037 29.0319 67.3652V69.7715H27.9518V67.4199C26.7213 67.4746 25.5524 67.4814 24.5338 67.4746L24.3834 66.5996ZM28.3756 61.459C30.153 61.459 31.3698 62.3066 31.3834 63.5781C31.3698 64.877 30.153 65.6836 28.3756 65.6836C26.5846 65.6836 25.3678 64.877 25.3678 63.5781C25.3678 62.3066 26.5846 61.459 28.3756 61.459ZM28.3756 62.2793C27.1862 62.2656 26.3795 62.7988 26.3932 63.5781C26.3795 64.3711 27.1862 64.8906 28.3756 64.8906C29.5241 64.8906 30.3444 64.3711 30.358 63.5781C30.3444 62.7988 29.5241 62.2656 28.3756 62.2793ZM45.8177 60.9531V65.9023H47.7864V66.8047H45.8177V73.1074H44.7512V60.9531H45.8177ZM42.6731 62.2656C42.6731 65.7109 41.0598 68.8418 37.095 70.7969L36.4934 69.9492C39.638 68.3838 41.347 66.0459 41.593 63.168H37.054V62.2656H42.6731ZM58.4062 60.9531V67.4746H57.3398V60.9531H58.4062ZM51.5976 68.0898V69.5664H57.3398V68.0898H58.4062V72.9434H50.5312V68.0898H51.5976ZM51.5976 72.0684H57.3398V70.4277H51.5976V72.0684ZM51.8437 61.5547C53.6894 61.541 55.0292 62.6758 55.0292 64.3438C55.0292 65.998 53.6894 67.1328 51.8437 67.1328C49.998 67.1328 48.6581 65.998 48.6581 64.3438C48.6581 62.6758 49.998 61.541 51.8437 61.5547ZM51.8437 62.457C50.5995 62.4434 49.6972 63.2363 49.7109 64.3438C49.6972 65.4512 50.5995 66.2441 51.8437 66.2441C53.0741 66.2441 53.9765 65.4512 53.9765 64.3438C53.9765 63.2363 53.0741 62.4434 51.8437 62.457ZM65.8677 61.1719C68.5748 61.1719 70.1607 61.9102 70.1607 63.2637C70.1607 64.6445 68.5748 65.3828 65.8677 65.3965C63.1607 65.3828 61.5611 64.6445 61.5611 63.2637C61.5611 61.9102 63.1607 61.1719 65.8677 61.1719ZM65.8677 61.9785C63.8443 61.9785 62.6685 62.4707 62.6822 63.2637C62.6685 64.1113 63.8443 64.5762 65.8677 64.5762C67.8775 64.5762 69.067 64.1113 69.067 63.2637C69.067 62.4707 67.8775 61.9785 65.8677 61.9785ZM71.4048 66.2168V67.0918H60.3306V66.2168H71.4048ZM69.983 68.1445V70.8652H62.7642V72.123H70.3521V72.9707H61.6978V70.0723H68.9302V68.9648H61.6705V68.1445H69.983ZM86.7381 67.0781V67.9531H81.7205V69.3477H85.3709V73.0664H84.2909V70.2227H76.8944V69.3477H80.6678V67.9531H75.6639V67.0781H86.7381ZM81.7205 60.8984V62.1562H85.617V63.0176H81.7889C81.8641 64.3984 83.785 65.3486 86.0819 65.5742L85.7264 66.3945C83.7235 66.1758 81.9325 65.4443 81.201 64.207C80.4627 65.4443 78.6717 66.1758 76.6756 66.3945L76.3202 65.5742C78.6034 65.3486 80.5243 64.3984 80.6131 63.0176H76.8123V62.1562H80.6678V60.8984H81.7205ZM97.0298 60.9531V65.9707H99.0669V66.8594H97.0298V73.1074H95.9634V60.9531H97.0298ZM94.7876 62.9082V63.7969H87.5552V62.9082H90.686V61.1035H91.7524V62.9082H94.7876ZM91.2329 64.8086C92.9555 64.8086 94.1997 65.957 94.2134 67.5977C94.1997 69.2383 92.9555 70.3867 91.2329 70.3867C89.4966 70.3867 88.2387 69.2383 88.2524 67.5977C88.2387 65.957 89.4966 64.8086 91.2329 64.8086ZM91.2329 65.7109C90.0981 65.7109 89.2641 66.5039 89.2778 67.5977C89.2641 68.7051 90.0981 69.4844 91.2329 69.4707C92.354 69.4844 93.1743 68.7051 93.188 67.5977C93.1743 66.5039 92.354 65.7109 91.2329 65.7109ZM109.085 60.9531V64.0703H110.917V64.9863H109.085V68.0215H108.019V60.9531H109.085ZM102.468 68.5547V69.8535H108.019V68.5547H109.085V72.9434H101.401V68.5547H102.468ZM102.468 72.082H108.019V70.7012H102.468V72.082ZM106.857 62.2109V63.0996H99.6105V62.2109H102.7V60.8438H103.767V62.2109H106.857ZM103.234 63.6602C104.984 63.6602 106.146 64.4941 106.159 65.793C106.146 67.0918 104.984 67.9258 103.234 67.9258C101.47 67.9258 100.294 67.0918 100.308 65.793C100.294 64.4941 101.47 63.6602 103.234 63.6602ZM103.234 64.4941C102.085 64.4805 101.319 65.0137 101.333 65.793C101.319 66.5859 102.085 67.1055 103.234 67.1055C104.368 67.1055 105.134 66.5859 105.148 65.793C105.134 65.0137 104.368 64.4805 103.234 64.4941ZM121.564 60.9531V73.1074H120.498V60.9531H121.564ZM113.388 62.1562V69.0469C115.241 69.04 117.162 68.8896 119.199 68.459L119.349 69.375C117.189 69.8262 115.261 69.9766 113.32 69.9766H112.336V62.1562H113.388ZM132.909 60.9531V65.7656H134.946V66.668H132.909V73.1348H131.842V60.9531H132.909ZM129.709 62.1426V63.0312H125.102V69.1836C127.303 69.1836 128.862 69.0811 130.666 68.7461L130.803 69.6758C128.903 70.0176 127.303 70.0859 124.993 70.0859H124.036V62.1426H129.709ZM136.747 72.082C136.269 72.082 135.858 71.6855 135.872 71.1934C135.858 70.7148 136.269 70.3184 136.747 70.3184C137.226 70.3184 137.622 70.7148 137.622 71.1934C137.622 71.6855 137.226 72.082 136.747 72.082Z" fill="black" fill-opacity="0.5"/>
<path d="M22.459 60.9531V73.1074H21.3926V60.9531H22.459ZM12.5605 69.8672C13.5996 69.8604 14.7891 69.8535 16.0195 69.8125V68.4863C14.5635 68.3291 13.6133 67.502 13.627 66.2852C13.6133 64.918 14.7891 64.0293 16.5391 64.0293C18.2891 64.0293 19.4785 64.918 19.4785 66.2852C19.4785 67.4883 18.5352 68.3154 17.0996 68.4727V69.7715C18.2754 69.7236 19.4648 69.6348 20.5859 69.4844L20.668 70.3047C17.9609 70.7422 14.9805 70.7832 12.7246 70.7832L12.5605 69.8672ZM20.2715 62.457V63.332H12.8203V62.457H16.0195V60.9668H17.0996V62.457H20.2715ZM16.5391 64.8633C15.418 64.8633 14.625 65.4375 14.625 66.2852C14.625 67.1328 15.418 67.6797 16.5391 67.666C17.6738 67.6797 18.4531 67.1328 18.4531 66.2852C18.4531 65.4375 17.6738 64.8633 16.5391 64.8633ZM34.4733 60.9668V70.1953H33.3932V68.9375H30.8776V68.1582H33.3932V60.9668H34.4733ZM34.7741 71.9453V72.8477H26.1334V69.293H27.2135V71.9453H34.7741ZM24.3834 66.5996C26.653 66.5859 29.6881 66.5723 32.2995 66.2441L32.3678 67.0234C31.2809 67.1943 30.1461 67.3037 29.0319 67.3652V69.7715H27.9518V67.4199C26.7213 67.4746 25.5524 67.4814 24.5338 67.4746L24.3834 66.5996ZM28.3756 61.459C30.153 61.459 31.3698 62.3066 31.3834 63.5781C31.3698 64.877 30.153 65.6836 28.3756 65.6836C26.5846 65.6836 25.3678 64.877 25.3678 63.5781C25.3678 62.3066 26.5846 61.459 28.3756 61.459ZM28.3756 62.2793C27.1862 62.2656 26.3795 62.7988 26.3932 63.5781C26.3795 64.3711 27.1862 64.8906 28.3756 64.8906C29.5241 64.8906 30.3444 64.3711 30.358 63.5781C30.3444 62.7988 29.5241 62.2656 28.3756 62.2793ZM45.8177 60.9531V65.9023H47.7864V66.8047H45.8177V73.1074H44.7512V60.9531H45.8177ZM42.6731 62.2656C42.6731 65.7109 41.0598 68.8418 37.095 70.7969L36.4934 69.9492C39.638 68.3838 41.347 66.0459 41.593 63.168H37.054V62.2656H42.6731ZM58.4062 60.9531V67.4746H57.3398V60.9531H58.4062ZM51.5976 68.0898V69.5664H57.3398V68.0898H58.4062V72.9434H50.5312V68.0898H51.5976ZM51.5976 72.0684H57.3398V70.4277H51.5976V72.0684ZM51.8437 61.5547C53.6894 61.541 55.0292 62.6758 55.0292 64.3438C55.0292 65.998 53.6894 67.1328 51.8437 67.1328C49.998 67.1328 48.6581 65.998 48.6581 64.3438C48.6581 62.6758 49.998 61.541 51.8437 61.5547ZM51.8437 62.457C50.5995 62.4434 49.6972 63.2363 49.7109 64.3438C49.6972 65.4512 50.5995 66.2441 51.8437 66.2441C53.0741 66.2441 53.9765 65.4512 53.9765 64.3438C53.9765 63.2363 53.0741 62.4434 51.8437 62.457ZM65.8677 61.1719C68.5748 61.1719 70.1607 61.9102 70.1607 63.2637C70.1607 64.6445 68.5748 65.3828 65.8677 65.3965C63.1607 65.3828 61.5611 64.6445 61.5611 63.2637C61.5611 61.9102 63.1607 61.1719 65.8677 61.1719ZM65.8677 61.9785C63.8443 61.9785 62.6685 62.4707 62.6822 63.2637C62.6685 64.1113 63.8443 64.5762 65.8677 64.5762C67.8775 64.5762 69.067 64.1113 69.067 63.2637C69.067 62.4707 67.8775 61.9785 65.8677 61.9785ZM71.4048 66.2168V67.0918H60.3306V66.2168H71.4048ZM69.983 68.1445V70.8652H62.7642V72.123H70.3521V72.9707H61.6978V70.0723H68.9302V68.9648H61.6705V68.1445H69.983ZM86.7381 67.0781V67.9531H81.7205V69.3477H85.3709V73.0664H84.2909V70.2227H76.8944V69.3477H80.6678V67.9531H75.6639V67.0781H86.7381ZM81.7205 60.8984V62.1562H85.617V63.0176H81.7889C81.8641 64.3984 83.785 65.3486 86.0819 65.5742L85.7264 66.3945C83.7235 66.1758 81.9325 65.4443 81.201 64.207C80.4627 65.4443 78.6717 66.1758 76.6756 66.3945L76.3202 65.5742C78.6034 65.3486 80.5243 64.3984 80.6131 63.0176H76.8123V62.1562H80.6678V60.8984H81.7205ZM97.0298 60.9531V65.9707H99.0669V66.8594H97.0298V73.1074H95.9634V60.9531H97.0298ZM94.7876 62.9082V63.7969H87.5552V62.9082H90.686V61.1035H91.7524V62.9082H94.7876ZM91.2329 64.8086C92.9555 64.8086 94.1997 65.957 94.2134 67.5977C94.1997 69.2383 92.9555 70.3867 91.2329 70.3867C89.4966 70.3867 88.2387 69.2383 88.2524 67.5977C88.2387 65.957 89.4966 64.8086 91.2329 64.8086ZM91.2329 65.7109C90.0981 65.7109 89.2641 66.5039 89.2778 67.5977C89.2641 68.7051 90.0981 69.4844 91.2329 69.4707C92.354 69.4844 93.1743 68.7051 93.188 67.5977C93.1743 66.5039 92.354 65.7109 91.2329 65.7109ZM109.085 60.9531V64.0703H110.917V64.9863H109.085V68.0215H108.019V60.9531H109.085ZM102.468 68.5547V69.8535H108.019V68.5547H109.085V72.9434H101.401V68.5547H102.468ZM102.468 72.082H108.019V70.7012H102.468V72.082ZM106.857 62.2109V63.0996H99.6105V62.2109H102.7V60.8438H103.767V62.2109H106.857ZM103.234 63.6602C104.984 63.6602 106.146 64.4941 106.159 65.793C106.146 67.0918 104.984 67.9258 103.234 67.9258C101.47 67.9258 100.294 67.0918 100.308 65.793C100.294 64.4941 101.47 63.6602 103.234 63.6602ZM103.234 64.4941C102.085 64.4805 101.319 65.0137 101.333 65.793C101.319 66.5859 102.085 67.1055 103.234 67.1055C104.368 67.1055 105.134 66.5859 105.148 65.793C105.134 65.0137 104.368 64.4805 103.234 64.4941ZM121.564 60.9531V73.1074H120.498V60.9531H121.564ZM113.388 62.1562V69.0469C115.241 69.04 117.162 68.8896 119.199 68.459L119.349 69.375C117.189 69.8262 115.261 69.9766 113.32 69.9766H112.336V62.1562H113.388ZM132.909 60.9531V65.7656H134.946V66.668H132.909V73.1348H131.842V60.9531H132.909ZM129.709 62.1426V63.0312H125.102V69.1836C127.303 69.1836 128.862 69.0811 130.666 68.7461L130.803 69.6758C128.903 70.0176 127.303 70.0859 124.993 70.0859H124.036V62.1426H129.709ZM136.747 72.082C136.269 72.082 135.858 71.6855 135.872 71.1934C135.858 70.7148 136.269 70.3184 136.747 70.3184C137.226 70.3184 137.622 70.7148 137.622 71.1934C137.622 71.6855 137.226 72.082 136.747 72.082Z" fill="black" fill-opacity="0.6" style="mix-blend-mode:overlay"/>
<defs>
<linearGradient id="paint0_linear_2089_1071" x1="19.6142" y1="19.2149" x2="27.6537" y2="25.5047" gradientUnits="userSpaceOnUse">
<stop stop-color="#0038F1"/>
<stop offset="0.649038" stop-color="#008FFC"/>
</linearGradient>
<linearGradient id="paint1_linear_2089_1071" x1="27.8485" y1="23.1343" x2="21.5815" y2="16.6534" gradientUnits="userSpaceOnUse">
<stop stop-color="#AE00FF"/>
<stop offset="1" stop-color="#AE00FF" stop-opacity="0"/>
</linearGradient>
<linearGradient id="paint2_linear_2089_1071" x1="18.8351" y1="16.3336" x2="13.9412" y2="24.5412" gradientUnits="userSpaceOnUse">
<stop stop-color="#0038F1"/>
<stop offset="1" stop-color="#00ABFF"/>
</linearGradient>
<clipPath id="clip0_2089_1071">
<rect width="14" height="9" fill="white" transform="translate(13 16)"/>
</clipPath>
</defs>
</svg>
