<svg width="330" height="263" viewBox="0 0 330 263" fill="none" xmlns="http://www.w3.org/2000/svg">
<path d="M42.657 63.536L141.549 37.0291L171.62 28.9715C176.907 27.5521 182.568 25.7987 187.936 24.8603C190.748 24.3686 194.174 25.0914 196.8 26.7802C204.66 31.8357 205.618 40.7885 208.303 49.4721C215.43 45.9293 221.204 40.4035 229.957 44.5289C232.336 45.6511 234.821 47.391 237.18 48.1863C238.723 48.7066 241.727 47.6499 243.357 47.5289C252.274 46.2014 257.183 51.7842 256.585 61.9267C260.198 64.0824 261.527 64.0609 264.501 67.7866C270.701 75.5524 274.376 84.0928 274.274 94.3573C278.182 94.0644 282.24 92.5293 286.116 91.8422C294.132 90.4207 294.698 100.173 297.863 105.665C299.075 105.827 299.949 105.923 301.152 106.284C306.036 107.753 307.828 112.209 310.345 116.77C312.378 120.459 313.225 126.486 312.385 130.496C311.721 133.676 310.433 134.857 308.656 137.1C307.702 138.302 307.176 140.96 306.143 141.858C303.27 144.351 299.259 146.249 296.06 148.124C290.532 151.367 284.559 154.374 279.155 157.748C280.857 160.447 282.815 162.782 284.64 165.707C289.057 163.63 290.044 162.42 295.369 161.525C303.279 160.196 315.385 170.363 308.29 178.946C303.856 184.314 296.254 192.714 290.052 195.654C287.735 196.735 285.225 197.288 282.652 197.283C274.505 197.222 269.568 190.458 269.116 181.459C267.943 179.583 266.539 177.392 265.238 175.653C262.672 172.371 260.637 170.119 257.588 167.496C251.23 169.378 250.252 163.988 248.131 164.141C247.598 164.751 247.87 167.194 247.921 168.237C248.172 173.215 247.224 177.196 246.672 181.897C254.261 182.493 258.499 186.615 260.852 195.307C263.598 205.46 250.816 208.707 244.821 210.077C240.579 211.049 233.672 211.391 229.654 208.063C226.198 205.088 221.418 199.116 220.41 194.114C219.648 189.779 220.936 186.598 222.87 183.358C218.5 186.102 215.058 188.158 209.935 189.057C200.547 190.708 191.52 187.248 185.795 177.265L122.066 194.334C121.477 201.683 119.794 207.162 114.792 211.796C109.572 216.635 101.033 219.424 94.0464 218.154C86.4268 216.769 82.5868 212.195 77.9017 205.611C74.5215 205.376 70.224 205.518 66.7902 205.54L49.6904 205.643C46.208 205.673 42.6724 205.768 39.1837 205.599C34.3474 205.364 33.0121 197.934 31.8354 193.652L28.24 180.184C26.1634 172.294 23.9399 166.608 32.5886 164.788C33.3764 164.622 34.3726 164.293 35.1753 164.073C33.6623 156.452 31.5461 153.26 39.1326 150.4C37.3161 144.28 35.3952 138.171 33.6239 132.046C32.5573 128.357 31.8907 123.882 33.5353 120.527C35.0433 117.452 37.1843 117.191 39.9124 116.518C38.2667 109.268 35.7721 100.596 33.7319 93.3793C29.5471 78.5759 28.0848 68.4188 42.657 63.536Z" fill="#FFFCF6"/>
<path d="M41.8368 70.1568C47.1181 68.5102 53.2072 67.0469 58.5895 65.6041L89.212 57.3945L181.278 32.7215C185.73 31.5299 190.909 29.1529 195.397 32.4505C198.802 34.9522 199.932 38.5649 201.02 42.6946C202.141 46.9506 203.293 51.2498 204.421 55.5279C206.171 54.8221 207.049 54.4355 208.793 55.4827C208.779 55.4636 209.407 55.7999 209.413 55.7961C212.512 54.0843 216.09 51.4361 219.316 50.1592C221.419 49.3267 220.73 49.6264 221.654 49.3182C225.513 48.0304 229.103 50.2569 232.68 52.1857C234.427 53.1293 236.661 54.5875 238.617 54.5158C240.567 54.2694 242.496 53.6862 244.445 53.425C247.37 53.033 250.657 52.9383 251.515 57.2075C252.112 60.1707 250.96 62.0566 249.687 64.3002C252.891 65.5344 255.43 67.5805 258.562 69.0647C259.88 69.688 260.516 70.2171 260.924 71.6472C261.264 72.8309 262.921 74.5992 263.768 75.8037C264.778 77.2119 265.67 78.7224 266.43 80.3123C269.984 87.8826 269.699 94.4402 267.842 101.927L280.392 99.1538C282.385 98.7075 287.279 97.2333 289.06 98.0808C290.128 99.2991 294.305 110.709 295.17 112.979C297.025 111.655 299.313 110.804 301.547 112.329C303.088 113.382 303.306 114.787 303.956 116.478C304.029 116.666 304.672 117.218 304.823 117.379C306.13 118.42 306.465 119.548 306.94 121.259C307.948 124.897 308.844 129.813 305.57 131.916C305.036 132.259 303.402 132.95 303.085 133.435C302.661 134.089 303.544 136.073 302.813 137.12C302.391 137.723 301.651 138.215 301.056 138.559C295.648 141.686 290.233 144.741 284.782 147.785C281.152 149.812 277.506 152.148 273.814 154.039C272.453 154.736 270.552 154.914 269.047 155.06C275.988 161.177 279.09 165.5 283.574 173.963C287.711 170.263 299.574 162.149 305.11 171.93C305.941 173.399 304.026 175.485 303.059 176.481C296.724 183.003 287.654 195.702 277.571 189.955C275.784 188.927 274.466 185.176 274.012 183.068C274.204 182.158 274.39 181.743 274.726 180.89C271.083 175.225 268.82 171.769 264.362 166.8C262.251 164.502 260.146 162.518 257.631 160.879C256.561 161.507 255.647 161.996 254.542 162.545C252.434 160.715 250.713 158.283 247.976 158.339C246.073 158.38 244.119 158.878 242.296 159.289C243.03 169.727 243.743 176.397 239.714 186.236C241.027 187.074 241.91 187.697 243.163 188.66C249.863 186.624 254.364 188.397 256.176 197.385C256.524 199.105 253.559 200.791 252.367 201.269C246.38 203.666 235.121 208.349 229.752 200.927C224.75 194.05 222.96 191.051 229.005 185.265C230.094 178.867 231.286 173.813 231.185 167.131C229.062 167.604 226.876 168.181 224.759 168.71C223.412 174.995 220.299 178.506 215.21 181.003C208.602 184.246 200.233 185.136 193.795 179.317C190.884 176.685 189.56 174.022 187.99 170.3C180.89 172.534 171.987 174.611 164.631 176.589L116.767 189.369C118.147 201.083 112.943 208.294 103.77 211.326C98.993 212.906 94.3994 213.468 89.5791 210.591C85.5516 208.188 82.4005 204.1 80.8304 199.244C76.3829 199.735 72.8282 199.612 68.355 199.625L56.1095 199.764L45.4391 199.841C43.6851 199.851 40.7344 199.932 39.0342 199.687C37.9325 196.317 31.2783 172.893 31.8023 171.353C32.9927 170.693 40.0935 168.958 41.8063 168.505C40.7021 164.609 39.6489 160.696 38.6477 156.773C40.7622 155.994 43.9508 155.232 46.1893 154.617C43.618 146.863 41.1909 139.057 38.7808 131.258C35.7701 121.516 39.8674 122.642 46.5805 120.941L39.6583 95.218C38.8477 92.2038 38.0337 89.1386 37.2263 86.1548C36.0979 81.9836 35.0935 77.5941 37.3499 73.9492C38.5966 71.9359 39.8849 71.0502 41.8368 70.1568Z" fill="#110C11"/>
<path d="M153.249 42.2204C154.146 41.981 155.298 41.6252 156.2 41.5076C162.943 39.295 170.649 37.7053 177.548 35.6852C181.456 34.5408 186.523 33.1542 190.554 32.5127C191.559 32.3526 193.227 33.0574 194.181 33.6528C196.962 35.3894 198.214 38.6451 199.121 41.8975C200.473 46.7385 201.697 51.6659 203.058 56.5137C202.723 56.869 202.121 57.5554 201.766 57.8307C201.448 58.2631 200.595 59.495 200.282 59.824L199.388 61.387L178.031 67.0656C175.383 67.77 169.055 69.274 166.936 70.2481C165.678 71.199 165.172 71.5693 164.31 73.0558C163.529 77.6254 165.115 81.4964 166.332 86.0355L170.528 101.669L181.56 142.788C183.04 148.31 184.703 154.094 186.106 159.589L181.776 160.738L180.887 160.966L170.995 163.659L164.58 139.616C163.717 136.362 161.014 124.688 159.378 122.636C157.522 121.888 148.342 122.86 145.725 122.966C143.361 113.288 140.446 103.596 137.983 93.9318C137.591 92.3945 136.916 89.8038 135.866 88.6822C133.087 87.6896 118.821 91.3858 115.509 92.0976C110.639 93.1367 105.777 94.2096 100.923 95.3163C99.2031 95.7058 95.2752 96.3408 93.7493 96.9828C85.4668 100.468 77.4499 104.905 69.2614 108.662C66.1272 110.099 67.2557 111.989 68.2001 115.208L48.1173 120.507L41.0767 94.2427C39.8536 89.6821 37.9042 83.8233 37.6983 79.2541C37.3913 72.44 43.4921 71.6163 47.8619 70.4473C49.8302 69.9206 51.9394 69.3526 53.9763 68.8068L77.2045 62.5874L153.249 42.2204Z" fill="#FFFCF6"/>
<path d="M153.25 42.2207C154.147 41.9813 155.299 41.6255 156.2 41.5079C162.944 39.2953 170.649 37.7056 177.549 35.6855C181.457 34.5411 186.524 33.1545 190.555 32.513C191.56 32.3529 193.227 33.0577 194.182 33.6531C196.963 35.3897 198.214 38.6454 199.122 41.8978C200.474 46.7388 201.698 51.6662 203.059 56.514C202.724 56.8693 202.122 57.5557 201.767 57.831C201.449 58.2634 200.596 59.4953 200.283 59.8243L199.389 61.3873L178.032 67.0659C175.383 67.7703 169.055 69.2743 166.937 70.2484C165.679 71.1993 165.173 71.5696 164.311 73.0561C163.53 77.6257 165.116 81.4967 166.332 86.0358L170.528 101.669L181.561 142.789C183.04 148.31 184.703 154.095 186.106 159.589L181.776 160.739L180.887 160.966C180.197 159.089 179.47 155.881 178.926 153.845L175.312 140.344L163.488 96.2777L155.357 66.0865C154.036 61.1845 152.426 55.7266 151.461 50.7573C151.17 48.5099 151.607 46.191 152.398 44.2405C152.698 43.5015 153.252 43.036 153.25 42.2207Z" fill="#FFFCF6"/>
<path d="M153.251 42.2203C154.148 41.9809 155.299 41.6251 156.201 41.5076C154.158 43.4079 152.763 45.4204 152.607 48.6755C152.412 52.6904 156.861 67.1238 158.106 71.757L174.388 132.535L179.174 150.392C179.938 153.241 181.345 158.029 181.777 160.738L180.888 160.966C180.197 159.089 179.471 155.88 178.927 153.844L175.313 140.343L163.489 96.2773L155.358 66.0861C154.037 61.1841 152.427 55.7262 151.462 50.7569C151.171 48.5095 151.607 46.1907 152.399 44.2401C152.699 43.5011 153.252 43.0356 153.251 42.2203Z" fill="#F46500"/>
<path d="M164.311 73.0556C164.318 71.714 164.8 70.7344 165.461 69.7125C167.721 66.2191 171.881 65.6675 175.402 64.7208L187.08 61.589L196.295 59.1264C197.707 58.7487 200.415 57.9212 201.767 57.8305C201.449 58.2629 200.596 59.4948 200.283 59.8238L199.389 61.3868L178.032 67.0654C175.384 67.7698 169.056 69.2738 166.937 70.2479C165.679 71.1988 165.173 71.5691 164.311 73.0556Z" fill="#F46500"/>
<path d="M166.938 70.2482C169.199 66.4884 182.052 64.9707 186.271 63.3111C187.5 62.8276 199.534 59.676 200.283 59.8241L199.389 61.3871L178.032 67.0656C175.384 67.77 169.056 69.274 166.938 70.2482Z" fill="#FFFCF6"/>
<path d="M238.05 64.8725C238.644 64.7086 240.574 64.8284 241.328 64.8933C246.216 65.3143 249.52 65.6385 253.97 68.519C252.849 68.8143 249.679 69.9441 249.692 71.4902C252.17 73.4916 254.175 66.1772 260.107 73.5089C267.611 82.783 269.592 91.6314 265.784 102.588C262.142 103.08 257.48 104.817 253.485 105.412C255.255 104.494 258.33 102.403 259.268 100.513C259.191 99.86 259.328 100.113 258.94 99.6851C257.642 99.555 255.209 102.479 253.844 103.282C248.303 106.548 240.049 106.498 234.172 102.554C234.433 101.515 234.785 100.135 234.053 99.1521C233.013 99.2637 232.827 102.863 231.574 103.426C231.52 103.477 231.466 103.527 231.41 103.577C231.042 103.768 230.704 103.97 230.345 104.179C229.983 104.836 229.987 104.52 230.097 105.133C231.283 106.048 232.635 104.758 233.468 104.031C237.999 107.146 243.449 107.75 248.326 106.891C245.842 108.101 241.094 109.437 238.328 110.296C233.518 111.789 228.483 113.513 223.648 114.841C222.641 114.431 221.65 113.962 220.677 113.433C212.283 108.766 207.468 101.336 204.046 91.7232C205.009 90.5253 206.761 88.6674 207.847 87.4765C209.911 85.2157 212.683 81.3748 214.942 79.7366C215.649 79.2238 219.708 77.4255 220.735 76.9218C228.131 73.2915 232.149 71.1029 238.05 64.8725Z" fill="#FFFCF6"/>
<path d="M246.725 81.048C247.585 78.7534 248.663 76.8847 250.617 75.663C252.531 74.4794 254.848 74.2861 257.031 75.1277C265.16 78.1861 267.144 91.6896 259.022 96.1443C258.421 96.3375 257.805 96.4896 257.181 96.5948C254.463 97.0316 252.498 96.062 250.277 94.1966C249.251 96.7627 248.24 98.6239 245.824 99.8006C243.786 100.799 241.409 100.741 239.261 99.6432C236.71 98.355 234.646 95.9539 233.559 93.0048C231.249 86.857 233.357 80.9522 238.479 78.7711C241.808 77.7209 243.89 78.8083 246.725 81.048Z" fill="#110C11"/>
<path d="M238.316 80.7179L238.481 80.6533C241.497 79.5131 245.954 80.7213 247.238 84.6224C245.99 84.6192 246.046 83.1746 244.056 84.0263C242.937 84.5052 242.089 85.5313 241.728 86.8441C241.346 88.1812 241.462 89.6842 242.055 91.0105C242.844 92.7743 243.487 92.874 244.846 93.7186C246.251 94.5938 248.589 93.2429 248.791 93.2959L248.675 93.8072C247.929 95.5009 247.14 96.8245 245.677 97.7996C244.155 98.816 242.28 99.0163 240.506 98.3513C233.741 95.8482 231.582 84.6203 238.316 80.7179Z" fill="#FFFCF6"/>
<path d="M252.284 76.7627C256.298 75.3437 259.006 77.558 261.454 81.314C259.413 80.1653 257.762 79.5427 256.106 81.6827C255.306 82.7215 254.948 84.1319 255.116 85.5754C255.406 87.979 257.171 90.0621 259.255 90.224C260.53 90.3237 261.064 89.8443 262.183 89.7093L262.118 90.1811C261.81 90.8681 261.528 91.441 261.109 92.0463C259.939 93.7422 258.185 94.7714 256.243 94.904C253.946 95.0371 252.305 94.0365 250.54 92.3619C250.63 88.6599 250.197 85.6969 247.896 82.6361C248.669 79.4648 249.745 78.112 252.284 76.7627Z" fill="#FFFCF6"/>
<path d="M234 72.6775C235.181 72.2595 240.838 71.9196 239.973 74.3778C237.878 75.6379 236.738 71.864 231.963 76.3215C230.776 77.7709 230.145 79.9595 229.222 80.5915C228.696 80.3861 228.91 80.5654 228.58 80.0056C228.335 77.0317 231.772 73.7306 234 72.6775Z" fill="#110C11"/>
<path d="M203.316 58.3044C203.671 58.5971 204.099 60.1051 204.451 60.8864L204.33 61.0543C199.88 67.2764 197.28 72.6826 198.265 81.4483C198.766 84.8852 199.431 88.8894 201.27 91.863C202.026 93.085 203.504 92.5982 203.377 94.6275C202.899 95.0475 201.662 95.2559 200.983 95.4311C198.975 91.7744 197.072 88.0482 195.279 84.2596C193.987 81.5145 192.746 78.0792 191.084 75.6274C190.587 74.8965 189.775 74.3423 188.999 74.2268C187.802 74.0476 175.106 77.3954 174.409 78.1922C174.081 78.5672 174.238 79.6627 174.308 80.1694C174.597 82.2671 175.292 84.404 175.844 86.4512L178.475 96.1879C179.397 99.5628 180.303 102.942 181.193 106.326C184.154 117.746 183.021 116.033 193.011 113.32C193.969 117.047 194.681 121.242 199.028 120.767C201.375 120.511 203.672 119.626 205.92 119.066C213.225 117.244 213.292 115.31 211.089 107.672C214.333 111.315 217.496 113.77 221.632 115.714C216.16 117.433 215.467 116.628 216.702 123.503C212.3 124.685 209.912 126.252 211.446 132.239C212.819 137.602 214.392 140.812 219.579 139.274C219.829 141.556 221.429 152.296 222.79 154.226C223.196 154.801 224.664 154.599 225.344 154.545L226.213 157.746C223.827 158.267 221.333 159 218.965 159.649C217.901 156.874 216.284 154.386 214.256 152.398C211.089 149.305 207.075 147.71 203.113 147.968C199.148 148.193 195.561 150.266 193.167 153.715C190.245 157.895 189.663 162.031 190.307 167.44L185.492 168.801C189.416 162.809 188.163 161.366 186.266 154.081C185.469 151.018 184.569 147.857 183.741 144.796L171.366 98.6658L167.784 85.3636C166.494 80.611 163.251 73.0928 168.768 71.4761C172.496 70.3841 176.183 69.3536 179.941 68.3626L200.367 62.9431C201.286 60.9689 202.042 59.9787 203.316 58.3044Z" fill="#FFFCF6"/>
<path d="M66.02 149.38C72.4255 147.638 80.341 145.314 86.7521 143.969C88.0931 148.445 89.1964 153.295 90.6688 157.714C90.9042 158.421 91.0858 158.501 91.5678 158.721C92.54 158.177 94.5945 154.38 95.3078 153.175C96.7338 154.287 97.6794 155.019 99.1825 155.937C99.9222 154.324 100.398 152.954 100.99 151.265C102.155 151.9 105.133 153.954 106.368 153.75C106.539 153.721 106.556 153.704 106.626 153.527C107.214 152.008 103.82 142.203 103.139 139.902L120.897 135.471C123.066 134.948 124.966 134.188 127.186 133.84L133.26 156.511L137.573 172.625L110.233 179.97C108.971 178.452 107.671 177.163 106.137 176.033C101.477 172.565 95.9396 171.32 90.7987 172.582C85.2255 173.931 81.4417 177.434 78.6661 182.923C76.8742 176.249 74.7719 167.724 72.6003 161.285C71.3906 160.359 69.9868 159.996 68.6252 159.12L66.02 149.38Z" fill="#FFFCF6"/>
<path d="M217.611 119.403C220.277 119.072 223.551 118.382 226.235 117.873C225.804 118.464 225.71 118.628 225.363 119.296L225.525 119.797C225.271 120.413 225.22 120.517 224.874 121.062L225.01 121.563C225.512 121.382 225.473 121.384 225.765 120.883L225.913 121.176C228.026 117.422 231.081 115.657 234.862 118.739C235.214 118.309 235.483 118.204 235.941 117.908C235.362 117.39 234.926 116.99 234.309 116.543C240.006 115.237 245.736 114.07 251.495 113.044C252.894 112.778 257.41 111.836 258.502 111.91L258.618 112.205L258.916 112.978C259.616 114.801 260.174 117.266 260.723 119.196C261.804 122.993 262.785 126.758 264.155 130.461L264.352 130.476C264.682 129.85 264.546 128.939 264.346 128.23C263.14 123.971 261.853 119.727 260.617 115.475C260.503 115.084 259.775 114.394 259.486 114.098L259.471 113.873L260.382 113.678C262.34 120.156 264.428 127.226 266.244 133.739C268.606 132.41 270.652 131.268 273.51 132.292C275.981 133.179 276.483 135.681 275.714 138.159C275.626 138.442 275.522 138.719 275.403 138.984C275.063 138.788 274.311 138.207 273.954 137.945C271.955 140.941 269.582 140.571 267.544 142.211C267.679 142.995 267.51 142.702 267.966 143.18C270.916 143.813 273.746 139.394 275.766 141.011C276.174 141.84 276.177 142.907 275.949 143.819C275.54 145.454 274.549 146.146 273.212 146.918C271.9 147.675 269.941 147.795 268.607 148.409C268.546 148.604 268.485 148.798 268.424 148.992C269.141 150.885 274.277 148.506 275.346 147.705L275.615 147.832C275.818 148.73 275.908 149.366 275.474 150.142C274.476 151.927 272.463 152.771 270.651 153.018C265.47 153.727 260.876 150.041 256.878 150.708C253.101 151.338 247.896 150.397 244.144 149.147L244.104 149.46C243.64 149.274 242.339 148.78 241.895 148.817L241.862 149.141C242.936 150.47 243.54 149.594 243.913 150.665C244.405 150.97 246.295 151.548 246.909 151.75C239.423 152.035 231.047 152.828 223.674 152.903C222.831 149.453 222.18 145.268 221.527 141.733C220.137 134.301 218.833 126.858 217.611 119.403Z" fill="#FFFCF6"/>
<path d="M234.309 116.543C240.006 115.237 245.736 114.071 251.495 113.044C252.893 112.779 257.41 111.836 258.502 111.91C258.744 113.852 260.95 121.255 261.643 123.474C262.551 126.379 263.935 131.742 264.944 134.476C258.363 138.123 256.335 140.115 248.468 136.904C244.652 135.346 241.918 133.069 239.212 129.514C239.587 127.017 239.462 125.752 238.953 123.158C238.243 120.721 237.648 119.697 235.941 117.908C235.362 117.391 234.926 116.991 234.309 116.543Z" fill="#F46500"/>
<path d="M217.611 119.403C220.277 119.072 223.551 118.382 226.235 117.873C225.804 118.464 225.71 118.628 225.363 119.296C223.022 123.181 223.947 129.551 227.54 132.693C228.452 133.488 229.347 133.728 230.402 134.084C232.481 141.265 237.293 148.585 243.913 150.665C244.405 150.97 246.295 151.548 246.909 151.75C239.423 152.035 231.047 152.828 223.674 152.903C222.831 149.453 222.18 145.268 221.527 141.733C220.137 134.301 218.833 126.858 217.611 119.403Z" fill="#F46500"/>
<path d="M225.913 121.176C228.027 117.423 231.081 115.657 234.863 118.739C235.214 118.309 235.483 118.204 235.942 117.908C237.648 119.697 238.243 120.721 238.953 123.158C239.462 125.752 239.588 127.017 239.212 129.514C241.918 133.069 244.652 135.346 248.468 136.904C256.335 140.115 258.363 138.123 264.945 134.476C263.935 131.741 262.551 126.379 261.643 123.474C260.95 121.255 258.744 113.851 258.503 111.91L258.618 112.205L258.916 112.978C259.616 114.801 260.175 117.266 260.723 119.196C261.804 122.993 262.785 126.758 264.155 130.461L264.352 130.476C264.682 129.85 264.546 128.939 264.347 128.23C263.14 123.971 261.853 119.727 260.617 115.476C260.503 115.084 259.775 114.394 259.486 114.098L259.472 113.873L260.382 113.678C262.34 120.156 264.428 127.226 266.244 133.74C268.606 132.41 270.652 131.268 273.51 132.292C275.981 133.18 276.484 135.681 275.715 138.159C275.626 138.442 275.522 138.719 275.403 138.984C275.063 138.788 274.311 138.207 273.954 137.945C275.67 133.895 272.821 132.817 270.185 133.832C265.888 135.487 261.824 138.419 257.503 140.167C255.447 144.929 257.892 147.097 256.886 149.233L256.568 149.258C255.556 147.922 255.169 145.745 255.229 144.085C255.282 142.764 255.49 141.471 255.848 140.244C248.033 139.687 241.976 136.522 237.064 129.112C236.476 128.299 235.585 126.274 234.514 126.339C232.316 126.469 230.637 127.485 231.108 130.378C232.577 139.398 236.818 145.517 244.145 149.147L244.104 149.46C243.641 149.274 242.34 148.78 241.896 148.818L241.862 149.142C242.936 150.47 243.54 149.594 243.913 150.665C237.294 148.585 232.481 141.265 230.402 134.085C229.347 133.728 228.452 133.488 227.54 132.693C223.947 129.551 223.023 123.181 225.364 119.296L225.525 119.797C225.271 120.414 225.22 120.517 224.874 121.062L225.01 121.564C225.512 121.382 225.473 121.384 225.765 120.883L225.913 121.176Z" fill="#110C11"/>
<path d="M225.913 121.176C228.027 117.422 231.082 115.657 234.863 118.739C236.301 120.321 236.932 121.337 237.638 123.532C237.973 125.101 238.056 126.259 238.078 127.825C235.951 124.466 232.842 123.389 230.351 126.714C229.228 128.211 229.737 130.615 230.07 132.532C225.527 130.172 224.908 126.03 225.913 121.176Z" fill="#FFFCF6"/>
<path d="M143.996 128.978C148.986 127.521 153.996 126.137 159.026 124.824L169.552 164.024L154.299 168.129L138.992 172.241L128.561 133.559C133.716 132.069 138.862 130.542 143.996 128.978Z" fill="#F46500"/>
<path d="M141.139 133.754C143.078 133.149 145.835 132.133 147.807 131.961C150.523 131.724 152.029 135.026 149.704 137.224C147.293 138.035 140.156 141.307 140.021 136.049C140 135.191 140.687 134.304 141.139 133.754Z" fill="#110C11"/>
<path d="M141.903 134.826C143.717 134.291 147.627 132.69 149.194 133.646C150.008 134.787 149.64 135.334 148.87 136.069C147.022 136.597 143.215 138.001 141.469 137.247C140.981 136.67 141.106 136.997 141.06 136.246C141.348 135.468 141.388 135.438 141.903 134.826Z" fill="#F46500"/>
<path d="M260.382 113.679C260.176 112.992 259.839 112.169 259.976 111.539C261.247 110.721 268.724 107.736 270.504 107.038C276.365 104.749 282.302 101.926 288.107 99.6912C290.454 104.38 292.471 110.228 294.318 115.227C293.428 119.188 293.545 119.298 295.896 121.926C296.254 122.325 296.202 124.873 296.605 125.485C297.026 126.456 298.069 126.867 298.471 127.432C298.676 127.723 298.601 129.729 298.796 130.275C299.693 132.785 301.698 132.652 301.499 135.766C300.166 137.054 295.128 139.76 293.263 140.828C287.995 143.879 282.695 146.866 277.362 149.785C277.258 148.649 276.944 147.441 276.748 146.316C276.601 145.462 277.798 143.446 277.8 142.805C277.8 141.253 276.527 139.757 275.403 138.984C275.522 138.719 275.626 138.442 275.715 138.159C276.484 135.681 275.981 133.18 273.51 132.292C270.652 131.269 268.606 132.41 266.244 133.74C264.428 127.227 262.34 120.156 260.382 113.679Z" fill="#F46500"/>
<path d="M68.7275 111.799C73.2671 110.652 78.0226 109.616 82.5931 108.529C82.705 110.015 82.9564 112.781 83.2562 114.135C83.721 116.234 86.2518 126.75 87.3794 127.681C88.1775 127.512 90.6381 123.265 91.2512 122.297C92.4696 123.042 94.1046 124.347 95.3 125.248C95.9258 123.764 96.5493 122.032 97.1378 120.508C98.3806 121.13 101.772 123.769 102.739 123.127C103.108 121.818 99.972 112.729 99.7165 110.33C99.4314 107.655 99.2111 107.73 99.4583 104.667C103.006 104.067 108.032 102.643 111.641 101.777L113.381 107.528C115.997 116.094 118.418 124.946 120.945 133.577C109.473 135.95 97.7064 137.328 86.1744 139.475C83.0858 140.05 79.8679 140.58 76.7504 140.954L68.7275 111.799Z" fill="#F46500"/>
<path d="M33.7218 172.671C39.2045 171.063 44.8535 169.697 50.3759 168.215C55.7239 166.716 61.0847 165.262 66.458 163.857C67.2967 166.729 73.3577 188.233 73.0886 189.445C62.6579 192.234 50.6459 195.802 40.1823 198.053C37.8821 190.342 35.9519 182.13 33.7885 174.353C33.5715 173.573 33.4505 173.22 33.7218 172.671Z" fill="#FFFCF6"/>
<path d="M39.3103 126.485C39.3263 125.495 39.197 125.619 39.5846 124.925C41.7828 124.098 44.751 123.404 47.0661 122.804L57.6289 120.031L64.8181 118.116C65.6529 117.893 67.8217 117.259 68.5874 117.212C69.005 117.981 69.0199 118.167 69.239 119.046L69.5292 120.157C71.387 127.146 73.3705 134.832 75.4189 141.735C72.2496 143.108 69.0403 145.001 65.941 146.579C65.0728 147.02 64.7072 147.385 64.1675 148.267C59.4315 149.652 51.8117 151.807 47.0942 152.731C44.7129 145.107 41.6501 135.941 39.5981 128.342L39.4088 127.141L39.3103 126.485Z" fill="#FFFCF6"/>
<path d="M39.3108 126.485C39.3269 125.495 39.1975 125.619 39.5851 124.925C41.7833 124.097 44.7515 123.404 47.0666 122.804L57.6295 120.031L64.8186 118.116C65.6534 117.893 67.8222 117.259 68.588 117.212C69.0056 117.981 69.0204 118.167 69.2395 119.046L67.9122 119.272C59.674 121.605 51.349 123.66 43.1012 125.962C41.8399 126.314 40.6393 126.68 39.4093 127.141L39.3108 126.485Z" fill="#FFFCF6"/>
<path d="M39.3109 126.485C44.6321 124.07 49.5053 123.957 54.9363 122.547C59.694 121.311 62.2056 118.48 67.9123 119.272C59.6741 121.605 51.3491 123.66 43.1013 125.962C41.84 126.314 40.6394 126.68 39.4094 127.141L39.3109 126.485Z" fill="#FFFCF6"/>
<path d="M67.9119 119.272L69.2392 119.046L69.5294 120.157C67.0685 121.156 61.6617 122.407 58.8706 123.151L39.5984 128.342L39.409 127.141C40.639 126.681 41.8396 126.314 43.1009 125.962C51.3487 123.66 59.6737 121.605 67.9119 119.272Z" fill="#F46500"/>
<path d="M134.103 90.4589C134.709 90.1858 134.767 90.177 135.299 90.5161C135.795 91.5325 137.615 98.683 138 100.124C139.972 107.618 142.001 115.097 144.085 122.559C141.484 124.104 137.605 125.746 134.808 127.128C130.924 129.047 126.29 131.614 122.292 133.064C122.181 133.044 122.071 133.025 121.959 133.003C121.565 132.198 119.02 123.06 118.635 121.709L112.696 101.37C119.86 97.7979 126.899 93.9339 134.103 90.4589Z" fill="#F46500"/>
<path d="M202.218 91.0825C195.049 71.0855 204.343 59.4832 219.228 52.1416C226.007 48.7973 229.528 52.4674 236 55.7248C235.267 56.093 234.545 56.4847 233.834 56.8992L234.138 57.0405L233.729 57.4071L233.734 57.8064C234.268 58.2353 234.142 58.195 234.934 58.1893C239.323 55.9869 241.093 55.9191 245.817 54.9457C240.761 59.2294 236.807 64.1929 231.966 68.3613C228.621 71.2412 220.776 74.9369 216.54 76.9876C216.961 76.4363 218.531 74.507 218.738 74.0284L218.621 73.875C218.579 73.3849 218.467 73.4221 218.05 72.9436L217.988 73.1273L217.767 72.7826C215.976 74.917 214.249 77.4626 212.472 79.5443C209.223 83.3477 205.678 87.5927 202.218 91.0825Z" fill="#F46500"/>
<path d="M217.765 72.7822C220.813 67.39 228.514 59.3224 233.832 56.8989L234.136 57.0401L233.728 57.4068L233.733 57.8061C234.267 58.235 234.141 58.1947 234.933 58.189C239.322 55.9866 241.092 55.9188 245.816 54.9454C240.759 59.229 236.806 64.1926 231.965 68.3609C228.62 71.2408 220.775 74.9366 216.538 76.9873C216.96 76.436 218.53 74.5067 218.737 74.0281L218.62 73.8747C218.578 73.3846 218.465 73.4217 218.049 72.9432L217.987 73.127L217.765 72.7822Z" fill="#F46500"/>
<path d="M217.767 72.7828C220.814 67.3905 228.516 59.3229 233.834 56.8994L234.138 57.0407L233.729 57.4073L233.734 57.8066C234.268 58.2355 234.143 58.1952 234.934 58.1895C229.763 60.8811 226.485 64.0603 222.659 68.8532C221.439 70.3817 219.939 72.6082 218.739 74.0286L218.621 73.8752C218.579 73.3851 218.467 73.4223 218.05 72.9438L217.988 73.1276L217.767 72.7828Z" fill="#110C11"/>
<path d="M209.218 60.0235L209.794 60.1875C210.426 60.982 210.519 64.4176 210.888 65.542C211.659 67.8951 213.495 69.9873 214.631 72.1566C214.874 72.6203 214.668 72.847 214.485 73.369C213.01 72.495 211.361 69.7587 210.597 68.0783C209.334 65.3013 208.509 62.9776 209.218 60.0235Z" fill="#110C11"/>
<path d="M199.283 150.923C206.022 147.816 214.125 151.805 217.384 159.83C220.642 167.856 217.824 176.884 211.087 179.995C204.347 183.106 196.24 179.119 192.98 171.089C189.718 163.06 192.541 154.028 199.283 150.923Z" fill="#F46500"/>
<path d="M201.08 155.986C205.526 153.826 210.951 156.381 213.19 161.688C215.431 166.996 213.637 173.045 209.185 175.191C204.741 177.336 199.33 174.78 197.094 169.481C194.857 164.182 196.641 158.142 201.08 155.986Z" fill="#110C11"/>
<path d="M202.168 158.912C204.121 157.866 206.501 158.156 208.398 159.673C210.295 161.19 211.419 163.701 211.34 166.245C211.26 168.791 209.991 170.981 208.016 171.981C205.004 173.504 201.287 171.845 199.683 168.26C198.079 164.678 199.188 160.508 202.168 158.912Z" fill="#FFFCF6"/>
<path d="M203.043 159.98C205.539 158.881 208.505 160.354 209.723 163.296C210.94 166.24 209.965 169.575 207.524 170.807C205.896 171.63 203.935 171.334 202.399 170.035C200.864 168.736 199.995 166.637 200.128 164.548C200.262 162.461 201.378 160.714 203.043 159.98Z" fill="#F46500"/>
<path d="M203.707 161.054C205.74 160.327 208.034 161.704 208.813 164.116C209.591 166.529 208.555 169.05 206.506 169.728C204.485 170.398 202.238 169.02 201.471 166.641C200.703 164.262 201.701 161.769 203.707 161.054Z" fill="#F46500"/>
<path d="M90.626 180.766C97.2533 177.75 105.194 181.737 108.319 189.648C111.444 197.56 108.557 206.371 101.888 209.281C95.281 212.161 87.4517 208.164 84.3562 200.326C81.2613 192.49 84.0614 183.753 90.626 180.766Z" fill="#F46500"/>
<path d="M92.1466 185.597C96.4821 183.413 101.827 185.839 104.089 191.015C106.352 196.194 104.676 202.166 100.346 204.361C96.0086 206.561 90.6519 204.138 88.3859 198.952C86.1198 193.766 87.8042 187.785 92.1466 185.597Z" fill="#110C11"/>
<path d="M93.9441 188.133C97.0521 187.018 100.567 189.074 101.822 192.74C103.076 196.407 101.6 200.313 98.5154 201.496C95.3905 202.695 91.8052 200.642 90.5351 196.93C89.2643 193.215 90.7958 189.264 93.9441 188.133Z" fill="#FFFCF6"/>
<path d="M93.89 189.598C95.4813 188.792 97.3981 189.074 98.9046 190.335C100.411 191.595 101.273 193.64 101.16 195.685C101.048 197.73 99.977 199.455 98.3596 200.199C95.9145 201.326 92.9738 199.906 91.7536 197.012C90.5332 194.117 91.4847 190.819 93.89 189.598Z" fill="#F46500"/>
<path d="M94.5602 190.703C96.4794 189.846 98.7679 190.999 99.6758 193.28C100.584 195.562 99.7687 198.112 97.8534 198.979C95.9326 199.849 93.6337 198.697 92.7227 196.408C91.8118 194.119 92.635 191.562 94.5602 190.703Z" fill="#F46500"/>
<path d="M232.229 160.281C235.365 160.519 237.802 160.042 240.823 159.539C241.389 167.364 241.96 173.219 239.853 180.618C239.093 183.287 238.902 184.609 237.576 187.054C239.351 187.815 240.082 188.35 241.648 189.57C240.637 190.169 236.743 192.166 237.628 193.789C238.05 193.94 238.166 194.046 238.578 193.74C241.88 191.297 246.778 187.887 250.989 190.58C253.022 191.88 254.003 194.751 254.612 197.263C254.479 197.766 254.047 198.248 253.631 198.507C248.937 201.441 240.447 203.969 234.886 202.782C232.104 202.19 229.578 198.186 228.023 195.692C227.374 194.651 226.449 192.404 226.776 191.18C227.092 189.992 227.965 188.202 228.935 187.582C229.397 188.232 229.273 188.252 229.833 188.475C230.392 187.86 230.503 186.336 230.672 185.449C232.385 176.391 233.288 169.835 232.229 160.281Z" fill="#FFFCF6"/>
<path d="M269.024 157.638L269.377 157.608C274.567 161.834 279.415 168.862 282.452 175.237C282.012 175.899 281.771 176.112 281.785 176.974C281.926 177.024 282.069 177.073 282.21 177.122C283.037 176.514 283.794 175.797 284.613 175.177C287.975 172.634 291.516 170.118 295.617 169.268C297.724 168.83 300.014 169.089 301.962 170.466C302.73 171.008 303.336 171.752 303.929 172.521C302.79 174.586 297.793 179.663 295.948 181.608C292.271 185.311 288.309 189.204 283.095 189.611C281.527 189.759 279.196 189.52 277.938 188.035C275.945 185.682 274.793 183.661 276.634 181.215C275.629 179.262 274.285 177.402 273.122 175.574C269.178 169.365 265.189 165.119 260.039 160.348C262.966 159.328 266.059 158.672 269.024 157.638Z" fill="#FFFCF6"/>
<path d="M175.945 79.2065C178.035 78.6429 187.762 75.8425 189.202 75.9628C190.675 77.4262 193.139 83.3197 194.241 85.6358C195.897 89.0822 197.632 92.4832 199.442 95.8358C195.857 96.8385 192.206 96.6787 190.549 100.887C190.023 103.815 191.658 108.442 192.513 111.569C189.954 112.285 187.379 112.951 184.791 113.568C184.359 112.322 182.507 105.838 182.297 104.689C181.664 101.191 175.428 81.2784 175.945 79.2065Z" fill="#F46500"/>
<path d="M83.9725 108.11C85.5153 107.969 87.8333 107.359 89.3958 107.001L98.2142 104.939C98.0119 111.058 99.9971 115.598 101.499 121.559C100.088 120.737 98.6054 119.788 97.2003 118.927L96.7722 118.732C95.9427 119.199 95.0471 122.121 94.6386 123.243C93.3181 122.168 92.3258 121.337 90.8966 120.455L87.5595 125.465C85.7855 120.46 83.5834 113.301 83.9725 108.11Z" fill="#F46500"/>
<path d="M93.0337 99.3206C94.7838 98.4764 103.672 96.7311 106.071 96.1689C113.723 94.3767 121.532 92.5405 129.23 90.9338C125.323 92.917 121.427 94.9243 117.542 96.9554C115.312 98.1115 111.874 100.093 109.597 100.599C103.027 102.231 96.221 103.591 89.6081 105.123C84.3656 106.338 78.6229 107.842 73.3448 108.772C79.264 105.61 86.9241 102.009 93.0337 99.3206Z" fill="#FFFCF6"/>
<path d="M89.7988 174.784C99.5038 171.21 108.585 177.854 113.596 188.063L109.731 189.099C106.664 181.922 100.779 177.075 93.9278 177.869C90.388 178.218 87.1818 180.044 84.9047 183.011C81.7532 187.069 81.237 191.133 81.6765 196.579C80.635 196.895 79.5548 197.184 78.505 197.481C77.6878 193.445 77.965 189.318 79.2986 185.673C81.3051 180.058 84.8793 176.745 89.7988 174.784Z" fill="#FFFCF6"/>
<path d="M51.4371 155.073L56.0933 153.77L58.8964 164.048C55.7138 165.09 51.353 166.117 48.0399 167.004L43.3805 168.249C42.4163 164.87 41.5078 161.474 40.6561 158.065L51.4371 155.073Z" fill="#F46500"/>
<path d="M46.4963 158.901C47.3671 158.584 48.3108 158.237 49.2236 158.08C51.6574 157.657 54.228 158.709 51.9955 161.703C50.4401 162.54 46.916 163.664 45.761 161.376C45.6494 160.197 45.917 159.785 46.4963 158.901Z" fill="#110C11"/>
<path d="M47.3863 159.972C48.8348 159.526 49.5834 159.199 51.1251 159.3C51.5315 159.613 51.4171 159.402 51.5375 159.903C51.3086 160.312 51.3059 160.237 50.9461 160.546C49.8452 160.905 47.9206 161.668 46.8659 160.866C46.9451 160.191 46.8387 160.515 47.3863 159.972Z" fill="#F46500"/>
<path d="M87.8382 143.684C92.49 142.378 97.1751 141.193 101.891 140.136C103.092 144.083 104.351 148.092 105.421 152.071L100.813 149.615C100.733 149.585 100.49 149.592 100.395 149.59C99.8121 150.38 98.9412 152.862 98.4965 153.958C97.2117 153.017 96.0811 152.252 94.7558 151.394C93.6295 153.096 92.7536 154.841 91.5271 156.625C90.2403 152.328 89.0108 148.015 87.8382 143.684Z" fill="#F46500"/>
<path d="M191.749 102.711C192.516 98.3283 195.422 98.9799 198.616 97.9254C199.43 97.6565 200.351 97.4933 201.19 97.2851L204.144 96.4953L205.124 98.6917C204.317 99.7946 201.608 104.002 200.844 104.355L200.364 104.304C198.997 103.879 196.888 103.051 196.289 104.849C196.48 107.336 198.695 108.665 200.441 109.764C199.613 112.982 199.044 115.993 198.464 119.293C197.103 119.244 196.734 118.608 195.749 117.502C194.371 113.042 192.944 107.278 191.749 102.711Z" fill="#FFFCF6"/>
<path d="M201.191 97.2852L204.144 96.4954L205.125 98.6919C204.317 99.7947 201.609 104.002 200.845 104.355L200.364 104.304C200.376 102.163 201.208 99.4314 201.191 97.2852Z" fill="#F46500"/>
<path d="M278.992 101.874L267.474 106.531C264.82 107.635 261.997 108.938 259.313 109.865C258.122 110.276 255.667 110.64 254.321 110.904C250.798 111.602 247.269 112.28 243.736 112.933C238.378 113.942 231.278 115.655 225.957 116.14L225.916 116.04C235.976 112.496 246.828 109.401 257.071 106.445C263.908 104.471 271.285 103.29 278.213 101.483L278.869 101.648L278.992 101.874Z" fill="#F46500"/>
<path d="M207.374 102.89C209.641 105.901 210.241 109.329 211.092 113.145C210.726 114.561 210.485 115.172 209.573 116.194C206.386 117.177 201.305 118.2 198.464 119.293C199.044 115.994 199.613 112.982 200.441 109.764C201.354 110.226 202.085 110.631 203.03 110.193C204.913 109.322 206.42 105.05 207.374 102.89Z" fill="#F46500"/>
<path d="M115.143 186.443C120.95 184.613 127.886 182.964 133.823 181.375L167.136 172.449L179.266 169.214C180.144 168.979 183.057 168.044 183.726 168.068L183.763 168.358L183.2 169.052C182.365 169.861 172.375 172.302 170.423 172.825L147.257 179.038L126.507 184.592C123.464 185.405 120.423 186.22 117.394 187.083C116.53 187.33 115.714 187.525 114.882 187.023L114.826 186.742L115.143 186.443Z" fill="#F46500"/>
<path d="M227.149 154.711C231.671 154.095 236.943 153.934 241.559 153.913C243.017 153.905 248.168 155.723 249.512 156.7C242.666 156.344 235.229 160.604 228.569 157.387C227.665 156.95 227.398 155.684 227.149 154.711Z" fill="#FFFCF6"/>
<path d="M296.686 113.908C301.558 112.024 304.181 115.887 300.144 119.744C294.907 123.149 294.362 116.447 296.686 113.908Z" fill="#FFFCF6"/>
<path d="M303.131 118.302C306.943 119.062 305.122 124.752 302.493 125.514C301.642 125.761 301.163 126.001 300.211 126.171C299.17 125.903 297.984 125.151 297.52 124.013C296.859 122.384 300.704 121.666 301.528 120.764C302.44 119.765 302.56 119.54 303.131 118.302Z" fill="#FFFCF6"/>
<path d="M141.774 125.686C143.529 124.828 152.365 124.224 154.53 124.283C151.187 125.571 146.349 126.805 142.75 127.898C139.111 128.871 133.69 130.767 130.229 131.379C134.089 129.509 137.938 127.612 141.774 125.686Z" fill="#FFFCF6"/>
<path d="M305.899 124.711L306.147 124.893C307.201 128.329 304.529 131.634 301.524 131.453C300.7 130.712 300.232 130.014 299.982 128.763C299.701 127.357 302.33 127.727 303.263 127.078C304.184 126.439 305.016 125.573 305.899 124.711Z" fill="#FFFCF6"/>
<path d="M205.65 100.526L206.082 100.663L206.336 101.145C206.315 102.212 205.226 104.204 204.778 105.164C203.154 108.645 202.713 109.496 199.491 107.288C198.783 106.809 198.326 106.58 197.974 105.819L198.196 105.565C199.129 105.428 200.726 105.686 201.831 105.748C203.087 104.63 204.647 102.056 205.65 100.526Z" fill="#F46500"/>
<path d="M70.1178 146.386C71.5018 145.715 75.5953 143.484 76.824 143.114C80.423 142.034 85.4291 141.426 89.2339 140.82L89.1615 141.155C88.5159 141.486 88.1792 141.609 87.4914 141.842C84.0753 142.809 80.6531 143.754 77.2259 144.681C75.1189 145.252 72.2194 146.119 70.1178 146.386Z" fill="#FFFCF6"/>
<path d="M205.736 56.7607C206.421 56.5903 207.293 56.3754 207.828 57.042C207.731 57.7376 207.261 58.0298 206.777 58.4966C206.163 59.0905 205.955 59.565 205.208 58.9493C204.886 57.9424 205.19 57.4455 205.736 56.7607Z" fill="#F46500"/>
<path d="M255.605 153.312C256.697 152.936 257.874 152.513 258.987 152.209C259.777 151.993 259.739 152.029 260.248 152.419C259.371 152.873 256.605 153.595 255.605 153.312Z" fill="#110C11"/>
<path d="M216.245 125.933L216.494 125.843L216.643 126.017C216.186 126.75 214.411 127.059 213.587 127.26L213.278 127.251L213.157 127.052C213.637 126.632 215.531 126.148 216.245 125.933Z" fill="#110C11"/>
<path d="M89.2339 140.82C90.3809 140.586 91.3764 140.381 92.5446 140.248L92.6565 140.355L92.8164 140.257C92.6462 140.262 88.2477 141.68 87.4913 141.842C88.1791 141.609 88.5159 141.486 89.1614 141.155L89.2339 140.82Z" fill="#F46500"/>
<path d="M278.212 101.483C279.378 101.181 280.459 100.907 281.645 100.679C280.915 101.059 279.754 101.687 278.991 101.874L278.869 101.648L278.212 101.483Z" fill="#F46500"/>
</svg>
