<svg width="184" height="170" viewBox="0 0 184 170" fill="none" xmlns="http://www.w3.org/2000/svg">
<path d="M112.646 1.28223C115.507 1.47472 121.315 3.42808 123.707 5.28513C125.019 8.559 111.579 54.0834 109.696 61.0499C112.334 59.4298 115.103 57.8199 117.836 56.3723C132.975 48.3545 147.666 39.2447 162.633 30.9913C165.282 34.2817 172.545 48.3799 174.965 52.8962C170.753 55.7822 160.758 60.6595 155.871 63.2334C145.267 68.8016 134.765 74.5632 124.37 80.5149C138.39 84.2777 152.818 87.3415 166.817 91.3327C171.607 92.6983 178.695 94.0824 183.11 95.9247C184.052 97.9038 179.212 116.776 177.628 118.613C174.716 118.937 124.88 104.674 118.206 103.084C121.896 107.318 126.311 114.669 129.496 119.526C136.119 129.626 142.583 140.017 148.729 150.414C149.735 152.113 151.688 155.327 151.179 157.165C148.355 160.504 135.917 166.585 131.554 168.343C128.326 163.731 124.836 156.985 121.636 152.04C113.373 139.281 105.231 125.179 96.6464 112.667C95.7795 118.485 84.8989 166.626 81.6877 169.027C78.2371 169.186 70.7523 166.808 67.0698 165.773C64.3209 165.335 62.1411 165.306 60.3171 163.241C59.4908 159.673 71.962 115.048 73.8901 108.35L35.2523 131.112C31.1384 133.495 21.3321 139.469 17.24 140.833C13.1986 140.177 4.34264 125.584 4.80524 121.3C8.36723 118.745 18.5459 113.255 23.014 110.639C34.7345 103.777 47.0446 95.9678 58.8993 89.5331C39.6239 84.4174 19.5945 81.7448 0.000288177 76.1986C0.12129 71.5376 2.24272 57.7198 5.2461 54.3443C9.28192 53.9868 21.6162 57.2663 26.2597 58.1595C39.1559 60.641 52.9255 64.3683 65.8378 66.2851C60.0605 59.0975 36.1429 22.8362 33.8614 14.9002C37.4018 11.8639 48.0876 4.03749 52.5987 3.37913C54.4005 4.55564 83.5721 50.3637 86.7146 55.3207C88.1114 49.4271 100.209 2.57433 102.228 0.279875C105.172 -0.550457 109.499 0.671948 112.646 1.28223Z" fill="url(#paint0_linear_2032_219)"/>
<defs>
<linearGradient id="paint0_linear_2032_219" x1="115.311" y1="1.72518" x2="68.5158" y2="166.584" gradientUnits="userSpaceOnUse">
<stop stop-color="#FF772D"/>
<stop offset="1" stop-color="#FF2F32"/>
</linearGradient>
</defs>
</svg>
