<svg width="241" height="229" viewBox="0 0 241 229" fill="none" xmlns="http://www.w3.org/2000/svg">
<path d="M20.5275 84.5738C25.8612 75.8003 39.0977 64.582 49.6915 66.4455C74.5462 70.813 85.8081 95.4707 94.0325 116.517C96.8866 123.815 99.3939 129.522 104.055 135.515C108.616 122.662 109.055 102.957 110.328 88.8775C111.099 73.783 113.25 60.8827 115.084 45.6871C116.932 30.3708 128.987 -3.81355 149.953 0.3485C173.128 4.94887 182.417 36.5214 188.549 55.7135C190.027 60.3391 195.333 77.9207 200.798 78.7292C208.536 75.9536 218.074 55.244 223.113 56.5117C225.433 57.0907 242.946 71.0017 240.794 74.8356C232.322 89.9218 213.02 114.66 192.681 108.21C165.749 97.4012 162.852 59.3278 151.078 36.4453C150.54 35.5912 149.875 34.7071 149.28 33.8799L148.324 33.8126C144.848 37.0354 141.637 65.3374 140.813 71.3962C137.014 99.4083 140.686 133.287 123.157 157.318C119.385 162.49 112.419 166.612 105.899 167.204C78.8071 167.488 69.0427 126.77 59.384 107.981C56.7116 102.781 52.4332 98.7265 48.3945 95.1911C30.0374 111.904 28.3082 174.785 28.7194 199.059C28.8286 205.529 29.9038 217.939 28.7387 224.074C28.6976 224.618 26.7081 225.623 26.2645 225.67C19.6516 226.37 1.4018 232.7 0.857243 221.94C-1.11099 183.035 -1.50599 118.136 20.5275 84.5738Z" fill="url(#paint0_linear_2032_215)"/>
<defs>
<linearGradient id="paint0_linear_2032_215" x1="179.464" y1="19.8131" x2="9.44117" y2="231.642" gradientUnits="userSpaceOnUse">
<stop stop-color="#8EFF48"/>
<stop offset="1" stop-color="#CAFF37"/>
</linearGradient>
</defs>
</svg>
