<svg width="212" height="201" viewBox="0 0 212 201" fill="none" xmlns="http://www.w3.org/2000/svg">
<path d="M18.0579 74.3999C22.7499 66.6818 34.3941 56.813 43.7135 58.4524C65.5783 62.2945 75.4854 83.986 82.7204 102.5C85.2311 108.92 87.4368 113.941 91.5369 119.213C95.5496 107.906 95.9355 90.5715 97.0553 78.1859C97.7334 64.9072 99.6262 53.5587 101.24 40.1911C102.865 26.7173 113.47 -3.35471 131.914 0.306651C152.301 4.35361 160.473 32.1281 165.867 49.0114C167.167 53.0805 171.834 68.5471 176.643 69.2584C183.45 66.8167 191.84 48.5984 196.273 49.7136C198.314 50.2229 213.72 62.4605 211.827 65.8332C204.374 79.1045 187.394 100.867 169.502 95.1928C145.809 85.6842 143.261 52.1909 132.903 32.0611C132.43 31.3098 131.845 30.532 131.322 29.8043L130.481 29.7452C127.423 32.5803 124.598 57.4775 123.874 62.8075C120.531 87.4498 123.761 117.253 108.342 138.393C105.023 142.943 98.8952 146.569 93.1594 147.09C69.3266 147.34 60.7368 111.52 52.24 94.9912C49.8891 90.4172 46.1254 86.85 42.5725 83.74C26.4238 98.4421 24.9025 153.759 25.2643 175.113C25.3603 180.805 26.3062 191.722 25.2813 197.118C25.2451 197.597 23.4949 198.481 23.1047 198.522C17.2873 199.139 1.23291 204.707 0.753862 195.241C-0.977599 161.016 -1.32508 103.925 18.0579 74.3999Z" fill="#D9FF00"/>
</svg>
