<svg width="47" height="29" viewBox="0 0 47 29" fill="none" xmlns="http://www.w3.org/2000/svg">
<path d="M26.9651 1.03525C30.6437 -1.09593 35.3647 0.170566 37.4914 3.84971L45.2004 17.1993C47.3269 20.8785 46.0626 25.5945 42.384 27.7257C38.7053 29.8567 33.9843 28.5894 31.8576 24.9103L30.7951 23.0665L29.7531 24.881C28.6682 26.7602 26.9145 28.0062 24.9602 28.503H24.925C24.925 28.503 24.8964 28.5029 24.8889 28.5099C24.35 28.6467 23.7963 28.7116 23.2502 28.7188H22.927C22.3811 28.7116 21.8352 28.6322 21.2893 28.5099L21.2531 28.503H21.217C19.2699 28.0134 17.5099 26.7601 16.425 24.881L15.4074 23.1183L14.3693 24.9171C12.2427 28.5962 7.52261 29.8635 3.84396 27.7325C0.165297 25.6085 -1.09229 20.8853 1.03439 17.2062L8.73654 3.86436C10.8633 0.170777 15.577 -1.0819 19.2629 1.04209C21.7647 2.4916 23.1484 5.1367 23.1096 7.83799L23.1496 7.7667H23.1145C23.093 5.08122 24.4864 2.47526 26.9651 1.03525Z" fill="url(#paint0_linear_2103_713)"/>
<defs>
<linearGradient id="paint0_linear_2103_713" x1="19.2421" y1="1.02759" x2="3.82513" y2="27.7261" gradientUnits="userSpaceOnUse">
<stop stop-color="#0038F1"/>
<stop offset="1" stop-color="#00ABFF"/>
</linearGradient>
</defs>
</svg>
