<svg width="366" height="360" viewBox="0 0 366 360" fill="none" xmlns="http://www.w3.org/2000/svg">
<g clip-path="url(#clip0_2060_201)">
<path d="M134.392 78.2784C130.456 79.0216 126.594 80.1126 122.851 81.5387C116.67 83.959 112.167 87.8383 107.108 91.975C105.389 93.3808 103.53 94.6014 101.799 95.9902C95.2788 101.223 90.3513 107.154 87.0003 114.841C83.5232 122.817 82.2013 133.317 83.8394 141.889C84.3778 144.707 85.8461 147.918 85.7414 150.774C85.635 153.672 83.217 158.786 82.5725 162.117C79.8878 175.993 76.9682 202.07 82.6613 215.194C84.3082 218.993 86.981 222.506 89.9849 225.332C91.3375 226.603 96.2673 229.969 96.8562 231.266C97.4298 232.529 96.671 234.646 96.792 236.043C96.8845 237.114 97.3281 238.379 97.7287 239.367C98.9203 242.303 101.281 244.796 104.216 246.023C107.379 247.345 110.294 246.885 113.355 245.619C113.989 253.363 114.449 262.574 117.204 270.044C118.846 274.495 125.39 274.94 129.911 276.592C128.62 287.898 130.425 296.577 134.075 307.318C135.149 310.478 138.549 313.113 142.018 312.31C151.925 310.017 161.763 307.004 171.632 304.502C177.709 302.899 183.776 302.187 186.279 295.618C195.281 300.647 205.141 295.807 214.235 293.661C218.801 292.585 223.749 291.466 228.137 289.871C239.454 285.759 236.536 274.762 229.405 268.267C224.614 263.938 219.141 265.174 213.509 265.62C213.609 263.987 212.783 260.828 213.526 259.772C217.283 256.574 223.793 251.883 225.841 247.618C226.721 245.786 225.743 241.147 224.955 239.198L224.857 238.961L225.035 238.59C231.718 239.337 233.342 239.139 240.009 238.363L257.178 236.314L283.157 233.18C290.063 232.372 297.567 232.911 302.919 227.746C304.545 226.202 305.712 224.239 306.291 222.073C307.576 217.136 305.681 205.468 305.806 199.675C311.054 192.127 313.614 189.797 313.718 179.594C313.815 170.145 309.651 164.743 303.152 158.355C303.303 155.138 302.76 149.196 302.459 145.724C301.825 138.408 302.818 128.252 299.778 121.675C297.949 117.718 291.303 112.296 287.153 111.919C279.119 111.226 271.21 113.29 263.169 113.99C249.243 115.203 235.19 117.232 221.306 118.665C219.41 118.861 216.901 113.978 215.154 112.791C212.336 110.876 208.328 108.059 205.027 107.142C207.319 105.203 208.801 103.407 210.501 100.98C213.689 96.4283 212.694 89.3603 207.676 86.5426C201.99 83.3496 192.544 89.1401 186.733 90.5377C186.088 90.693 184.933 90.8603 184.227 90.6199C181.36 88.8354 178.617 85.9913 175.655 84.2947C165.427 78.4373 153.852 76.2694 142.163 77.2676C139.259 77.5154 137.302 77.5538 134.392 78.2784ZM182.62 97.0412C189.274 95.3092 195.668 92.9848 202.295 91.2373C205.471 90.4001 206.416 91.815 207.006 94.7204C207.087 95.1208 207.165 95.5221 207.24 95.9237C204.567 101.415 200.148 104.489 195.195 107.909C201.748 111.181 211.024 114.588 215.075 120.601C215.102 122.354 215.125 122.928 214.663 124.603C237.049 122.504 259.554 119.51 281.881 116.972C288.924 116.171 296.301 122.11 296.359 129.226C296.674 135.995 297.113 142.618 297.376 149.376C297.53 153.335 297.412 158.174 298.428 161.888C308.31 167.749 311.291 181.117 305.688 191.055C304.372 193.39 302.663 194.758 300.627 196.406C300.457 198.527 300.799 201.207 300.72 202.793C300.443 208.332 303.695 220.613 298.839 224.336C295.041 227.248 280.627 228.298 275.5 228.841L257.303 230.929L242.879 232.749C231.527 234.225 221.036 236.407 216.677 222.361C216.016 223.963 215.581 224.894 214.75 226.418C216.555 231.082 220.607 241.638 220.917 246.435C217.406 249.608 211.466 255.027 207.55 257.675C207.615 261.352 208.619 267.857 209.076 271.798C211.783 271.455 214.736 271.105 217.381 270.496L217.594 270.453C224.097 269.188 228.673 273.121 230.135 279.485C230.815 282.445 229.207 283.885 226.526 284.546C217.449 287.144 208.185 289.43 199.099 291.929C196.589 292.62 190.657 293.112 189.122 291.02C185.85 286.561 183.591 275.27 182.926 269.848C175.497 271.849 168.736 272.887 161.116 273.708C160.513 273.773 160.262 273.791 159.954 274.278L159.812 282.773C164.348 281.609 171.83 279.479 176.08 282.133C181.569 285.36 185.134 295.242 177.028 297.68C173.476 298.748 167.281 300.708 163.814 301.363C159.266 302.219 143.587 307.658 140.212 307.032C139.057 306.149 134.951 290.127 134.771 288.076C134.59 286.012 134.764 274.44 135.059 272.305C130.421 271.222 126.552 270.379 122.09 268.669C120.542 262.874 119.656 257.541 118.971 251.391C118.647 248.478 119.071 242.739 118.392 239.702C118.196 239.526 118.029 239.377 117.892 239.255C114.4 238.332 107.658 245.315 103.181 238.774C101.236 235.933 102.129 231.329 102.751 228.074C96.1074 224.838 89.4246 218.875 86.9542 211.752C82.2356 198.15 85.3607 164.272 91.4067 151.356C91.4673 151.226 91.5362 151.101 91.603 150.974C90.7267 147.755 89.5215 143.993 89.059 140.721C87.6986 131.095 88.9789 121.267 93.829 112.755C97.7877 105.808 103.299 101.173 109.696 96.5933C117.507 90.3403 119.058 87.6416 129.411 84.8451C131.655 84.2302 133.916 83.6776 136.192 83.1878C150.391 80.7892 164.682 82.8247 176.573 91.309C178.5 92.6835 181.314 95.0651 182.62 97.0412Z" fill="#FEFEFE"/>
<path d="M136.192 83.1879C133.917 83.6777 131.655 84.2303 129.411 84.8452C119.058 87.6417 117.507 90.3404 109.697 96.5934C103.3 101.173 97.7881 105.808 93.8294 112.755C88.9793 121.267 87.699 131.095 89.0594 140.721C89.5219 143.993 90.7271 147.755 91.6034 150.974C91.5366 151.101 91.4677 151.226 91.4071 151.356C85.3611 164.272 82.236 198.15 86.9546 211.752C89.425 218.875 96.1078 224.838 102.751 228.074C102.13 231.329 101.236 235.933 103.181 238.774C107.658 245.315 114.4 238.332 117.893 239.255C118.03 239.377 118.196 239.526 118.392 239.702C119.071 242.739 118.647 248.478 118.972 251.392C119.657 257.541 120.542 262.874 122.091 268.669C126.552 270.379 130.422 271.222 135.059 272.305C134.764 274.44 134.59 286.012 134.771 288.076C134.951 290.127 139.058 306.149 140.213 307.032C143.588 307.658 159.267 302.219 163.814 301.363C167.281 300.709 173.477 298.748 177.028 297.68C185.134 295.242 181.569 285.36 176.08 282.133C171.83 279.479 164.348 281.609 159.812 282.774L159.954 274.278C160.263 273.792 160.513 273.773 161.117 273.708C168.736 272.887 175.497 271.849 182.926 269.848C183.591 275.27 185.85 286.561 189.123 291.02C190.657 293.112 196.589 292.62 199.099 291.929C208.185 289.43 217.45 287.144 226.526 284.547C229.208 283.885 230.816 282.445 230.136 279.485C228.673 273.121 224.098 269.188 217.594 270.453L217.382 270.496C214.736 271.105 211.783 271.455 209.077 271.798C208.619 267.857 207.615 261.353 207.551 257.675C211.467 255.027 217.406 249.608 220.917 246.435C220.607 241.638 216.556 231.082 214.75 226.418C215.581 224.894 216.016 223.963 216.677 222.361C221.037 236.407 231.527 234.225 242.879 232.749L257.304 230.929L275.5 228.841C280.628 228.298 295.042 227.248 298.839 224.336C303.695 220.613 300.443 208.332 300.72 202.793C300.8 201.207 300.457 198.527 300.628 196.406C302.663 194.758 304.372 193.39 305.689 191.055C311.292 181.117 308.31 167.749 298.428 161.888C297.413 158.174 297.531 153.335 297.377 149.376C297.114 142.618 296.674 135.995 296.36 129.226C296.301 122.11 288.924 116.172 281.882 116.972C259.555 119.51 237.05 122.504 214.663 124.603C215.126 122.928 215.102 122.354 215.076 120.601C211.024 114.588 201.748 111.181 195.196 107.909C200.149 104.489 204.567 101.415 207.24 95.9238C207.165 95.5222 207.087 95.1209 207.007 94.7205C206.417 91.8151 205.471 90.4002 202.296 91.2373C195.668 92.9849 189.274 95.3093 182.621 97.0413C181.314 95.0652 178.5 92.6836 176.574 91.3091C164.683 82.8248 150.392 80.7892 136.192 83.1879ZM120.388 93.7644L116.972 94.3527C117.789 93.8026 118.815 93.0227 119.736 92.7741L120.388 93.7644ZM215.707 201.236C214.937 200.012 214.453 199.106 215.589 197.87C215.775 198.79 216.159 200.14 215.93 200.983L215.707 201.236ZM216.34 219.547C216.294 218.347 216.078 217.142 217.086 216.313C217.045 217.266 217.114 218.881 216.34 219.547Z" fill="black"/>
<path d="M172.236 117.474L171.712 117.742C171.93 118.224 180.525 122.89 181.886 123.385C187.219 125.326 193.885 132.944 183.918 133.919C176.497 134.645 169.515 128.407 161.047 127.193C162.853 130.345 164.821 132.733 162.33 135.988C154.375 139.755 150.131 135.841 143.798 131.327C142.206 132.389 139.757 133.68 138.038 134.649C138.425 135.388 138.766 136.151 139.056 136.934C142.372 145.902 134.873 147.598 128.169 150.03C133.139 153.277 135.07 156.736 132.369 162.319C131.636 162.878 130.138 163.678 129.289 164.164C131.33 171.392 128.615 172.675 122.371 174.271C122.172 174.513 121.971 174.753 121.768 174.992C118.889 178.369 115.35 179.166 111.014 179.509C111.102 181.315 110.778 184.219 110.688 186.176C110.55 189.593 110.501 193.013 110.543 196.433C115.808 204.422 122.085 210.095 130.4 214.845C139.23 219.363 146.571 221.867 156.613 222.548C173.534 223.623 190.198 217.991 202.999 206.871C213.363 197.758 220.59 184.274 221.358 170.417C222.269 154.002 215.407 140.008 204.786 127.937C202.006 127.444 198.13 126.851 195.571 125.871C187.518 122.785 181.319 117.421 172.236 117.474Z" fill="#FEFEFE"/>
<path d="M179.879 155.427C177.145 153.671 173.248 152.688 170.028 152.955C145.216 155.014 148.527 191.35 173.739 189.213C179.638 188.041 183.451 184.661 186.394 179.638C194.267 183.181 202.41 182.843 208.655 176.128C211.982 172.604 213.749 167.889 213.559 163.046C213.036 151.603 203.537 145.92 192.943 146.613C187.599 147.721 182.907 150.887 179.879 155.427Z" fill="black"/>
<path d="M171.919 169.27C166.782 170.446 161.173 172.021 156.094 173.464C158.185 181.305 161.996 185.26 170.13 186.377C171.279 186.509 171.778 186.335 172.841 186.166C178.605 185.249 180.823 182.46 183.913 177.967C175.863 180.376 172.129 177.534 171.919 169.27Z" fill="#FEFEFE"/>
<path d="M168.256 156.092C160.508 157.043 156.846 163.577 155.605 170.535L168.287 167.198L183.697 163.174C179.221 157.687 175.643 155.247 168.256 156.092Z" fill="#FEFEFE"/>
<path d="M193.439 149.599C188.627 150.38 185.08 153.324 182.32 157.154C183.914 158.741 185.432 160.283 186.44 162.317L195.625 159.835L208.809 156.296C204.124 150.655 200.726 149.148 193.439 149.599Z" fill="#FEFEFE"/>
<path d="M197.619 162.133C194.25 163.028 190.896 163.975 187.558 164.976C189.188 169.19 188.604 172.874 187.605 177.031C190.897 178.622 193.859 178.888 197.413 178.685C197.652 178.661 197.89 178.63 198.127 178.593C202.866 177.842 205.953 175.1 208.667 171.401C203.122 172.838 200.041 171.76 197.275 166.639C197.232 164.738 197.249 163.989 197.619 162.133Z" fill="#FEFEFE"/>
<path d="M161.086 196.552C147.628 199.43 152.562 220.322 174.65 211.436C179.546 208.522 182.307 206.967 182.519 200.854C181.751 199.696 180.527 197.978 179.025 197.883C173.387 197.527 166.682 196.458 161.086 196.552Z" fill="black"/>
<path d="M158.488 205.33C157.723 205.545 157.259 205.576 156.783 206.189C156.735 206.418 156.571 206.975 156.645 207.148C159.041 212.724 167.901 210.921 171.741 209.882L174.649 208.708C169.168 205.387 164.823 204.433 158.488 205.33Z" fill="#48FFA4"/>
<path d="M133.976 177.879L133.879 176.836L133.571 176.667C132.145 177.487 130.511 182.083 130.044 183.759C129.912 184.241 129.794 184.727 129.689 185.216C128.604 189.541 127.563 198.005 131.602 200.824C135.029 203.216 139.585 200.74 141.595 197.641C142.327 192.108 137.94 188.654 135.858 183.716C134.864 181.36 134.623 180.429 133.976 177.879Z" fill="#48FFA4"/>
<path d="M133.976 177.879C131.97 182.671 137.006 189.693 138.81 193.899C140.633 198.148 136.407 200.078 132.958 198.935C130.649 198.138 129.829 191.007 129.849 188.816C129.859 187.695 130.068 186.178 129.689 185.216C128.604 189.541 127.563 198.005 131.602 200.824C135.029 203.216 139.584 200.74 141.595 197.641C142.327 192.107 137.94 188.654 135.858 183.716C134.864 181.36 134.623 180.429 133.976 177.879Z" fill="black"/>
<path d="M168.905 140.553C165.59 141.348 163.588 141.445 160.987 143.913C159.184 145.626 155.917 148.644 155.599 151.327C155.524 151.966 156.154 152.474 156.566 152.909C159.086 152.241 159.82 149.244 161.778 147.617C163.909 145.846 166.059 145.605 168.457 144.498C169.479 144.026 169.718 143.709 170.036 142.758C169.966 141.827 169.465 141.309 168.905 140.553Z" fill="#03CF88"/>
<path d="M188.147 135.735C187.539 135.856 186.933 135.991 186.331 136.14C183.74 136.805 184.489 138.492 185.045 140.381C190.13 138.964 192.768 139.043 197.756 141.08C198.886 141.589 199.079 141.858 200.205 141.722C200.86 141.162 200.709 141.446 200.836 140.676C199.705 136.388 191.814 135.471 188.147 135.735Z" fill="#03CF88"/>
<path d="M289.95 158.386C288.974 150.56 289.343 141.775 288.731 133.845C288.468 130.446 288.672 126.9 288.187 123.5C288.104 122.735 287.858 121.474 287.233 120.996C286.037 120.083 284.271 120.056 282.83 120.112C277.825 120.309 272.778 121.089 267.8 121.68L245.724 124.22C236.141 125.371 226.458 126.154 216.942 127.415C210.766 128.234 209.964 129.782 214.026 134.42C214.615 135.092 214.859 135.581 215.63 136.12C216.146 134.743 216.235 133.48 217.733 132.8C220.144 131.705 244.692 129.657 249.121 129.18C258.762 128.142 268.357 126.765 278.025 125.941C278.859 125.87 280.376 125.655 281.12 125.989C281.771 126.281 282.471 127.459 282.635 128.118C283.488 131.531 284.547 156.63 283.564 158.819C280.706 160.831 272.103 161.067 268.332 161.507L238.86 164.972C233.657 165.595 229.929 165.675 224.703 166.693C224.86 170.149 224.581 172.516 223.828 175.914C224.747 174.763 225.433 173.842 226.553 172.862C239.515 171.865 244.784 167.865 243.139 185.406C241.856 186.301 239.588 187.345 238.114 187.258C235.306 187.092 226.956 189.973 225.298 186.766C224.194 184.628 224.246 178.606 224.089 176.075C223.35 179.397 222.569 182.658 221.434 185.876C220.681 188.013 219.337 190.536 218.912 192.722C218.502 194.835 220.036 222.222 220.628 224.888C221.732 226.039 222.079 226.407 223.392 227.277C225.656 227.06 228.077 227.024 230.261 226.769C235.274 226.184 240.288 225.461 245.302 224.838L266.826 222.328C273.889 221.471 282.844 220.817 289.719 219.398C291.505 217.87 292.552 216.385 292.551 213.924C292.546 208.364 292.007 202.21 291.507 196.697C288.492 196.349 287.206 195.981 284.398 194.705C284.133 197.211 284.079 197.644 281.75 198.793C278.577 199.297 272.798 200.102 269.658 200.201C267.863 200.304 266.3 199.717 265.64 197.947C265.395 195.256 265.539 192.218 265.085 189.634C265.254 186.518 265.076 186.371 267.961 185.143C267.913 184.373 267.878 184.671 268.219 183.955C266.945 183.928 266.147 183.481 265.036 182.912C264.026 179.798 264.044 178.018 263.884 174.748C263.893 173.669 263.857 171.84 264.003 170.832C264.789 169.743 265.063 169.371 266.041 168.468C271.65 167.627 278.089 167.582 283.551 166.693C283.047 161.243 285.067 159.741 289.95 158.386Z" fill="#48FFA4"/>
<path d="M258.576 185.986C256.308 186.208 253.981 186.376 251.727 186.682C248.433 187.129 245.335 187.31 245.068 191.285C244.648 191.241 244.212 191.214 243.804 191.121C243.846 191.889 243.876 193.051 243.973 193.785C244.225 197.448 245.597 202 241.48 203.512L242.003 203.943L241.667 204.521C243.818 204.715 244.525 205.823 244.773 207.909C245.132 208.423 245.333 208.91 245.831 209.104L245.823 208.19L246.259 208.681C246.251 205.474 246.346 205.262 249.162 203.587L249.093 202.555C253.016 202.21 257.059 201.914 260.949 201.347C263.432 200.716 263.705 200.384 264.509 197.978L265.641 197.947C265.395 195.257 265.539 192.218 265.085 189.635C264.412 189.941 265.025 190.658 264.659 191.634L264.235 190.014L263.836 189.945C262.948 185.929 262.416 185.958 258.576 185.986Z" fill="black"/>
<path d="M243.973 193.784C244.225 197.448 245.597 202 241.48 203.512L242.003 203.943L241.667 204.521C243.818 204.715 244.525 205.823 244.773 207.908C245.131 208.423 245.333 208.909 245.831 209.104L245.823 208.189L246.258 208.68C246.251 205.474 246.346 205.261 249.162 203.587L249.093 202.555C245.126 202.191 245.882 198.602 245.351 195.739C245.067 195.035 244.932 194.734 244.543 194.084L244.423 194.14L243.973 193.784Z" fill="#48FFA4"/>
<path d="M265.086 189.634C264.413 189.941 265.025 190.658 264.659 191.633L264.235 190.014L263.836 189.944C263.884 191.276 264.342 196.654 264.509 197.978L265.641 197.947C265.396 195.256 265.539 192.218 265.086 189.634Z" fill="#00CC8B"/>
<path d="M245.068 191.285C244.648 191.241 244.212 191.214 243.804 191.121C243.846 191.889 243.877 193.051 243.973 193.784L244.423 194.14L244.543 194.084C244.933 194.734 245.068 195.035 245.352 195.739C245.223 194.276 245.154 192.755 245.068 191.285Z" fill="#48FFA4"/>
<path d="M250.557 190.019C249.74 190.106 248.945 190.11 248.285 190.593C248.086 191.604 248.524 197.373 248.35 199.536C253.724 199.575 254.862 198.878 259.578 198.538C260.628 198.414 260.437 198.591 261.139 197.988C261.878 196.218 260.897 191.56 260.839 189.019C257.232 189.067 254.089 189.246 250.557 190.019Z" fill="#FEFEFE"/>
<path d="M241.48 203.512C237.104 203.756 233.237 204.848 228.375 204.817L229.262 205.215L229.177 205.612L227.772 206.458C224.645 208.336 225.932 210.299 226.078 213.468C226.192 215.938 225.34 220.942 228.975 221.197C233.813 221.374 239.834 220.826 244.381 219.197C244.969 218.964 245.457 216.873 245.58 216.304C245.284 214.79 245.174 210.377 244.773 207.909C244.525 205.823 243.818 204.715 241.667 204.521L242.003 203.943L241.48 203.512Z" fill="black"/>
<path d="M241.48 203.512C237.105 203.756 233.237 204.848 228.376 204.818L229.263 205.215L229.178 205.612L227.773 206.458C229.783 205.987 239.583 204.542 241.667 204.522L242.003 203.943L241.48 203.512Z" fill="#00CC8B"/>
<path d="M229.786 208.738C229.635 208.752 229.277 208.881 229.113 208.934C228.4 210.634 229.125 216.395 229.421 218.354C234.007 218.267 237.221 217.508 241.686 217.289L242.27 217.094C242.86 215.823 242.029 209.266 241.897 207.406C238.536 207.501 233.326 208.326 229.786 208.738Z" fill="#FEFEFE"/>
<path d="M260.95 201.347C257.06 201.914 253.017 202.21 249.094 202.555L249.163 203.587C246.346 205.262 246.252 205.474 246.259 208.681L245.824 208.189L245.832 209.104C245.334 208.91 245.132 208.423 244.774 207.909C245.175 210.377 245.285 214.791 245.581 216.304C246.207 216.57 246.609 216.611 246.939 217.101C247.628 218.148 248.461 218.388 249.573 218.981C254.226 218.794 258.858 218.246 263.426 217.342C265.438 215.62 265.483 215.037 265.42 212.448C265.375 210.303 264.943 205.892 264.606 203.833C263.521 202.776 263.346 202.508 261.952 202.251L261.815 201.551L260.95 201.347Z" fill="black"/>
<path d="M260.95 201.347C257.06 201.913 253.016 202.21 249.093 202.555L249.163 203.587C252.308 203.267 259.299 202.223 261.952 202.25L261.815 201.55L260.95 201.347Z" fill="#00CC8B"/>
<path d="M246.259 208.68L245.823 208.189L245.831 209.104C245.333 208.91 245.132 208.423 244.773 207.909C245.174 210.377 245.285 214.79 245.58 216.304C246.206 216.57 246.608 216.611 246.939 217.101C246.452 214.159 246.579 211.601 246.259 208.68Z" fill="#00CC8B"/>
<path d="M253.505 205.951C252.392 206.162 250.354 206.745 249.193 207.039C249.13 210.36 249.905 212.495 249.72 216.318L258.097 215.24C259.702 215.053 261.06 214.756 262.636 214.426C261.957 211.186 262.368 208.666 261.511 204.835C258.069 205.761 257.073 205.831 253.505 205.951Z" fill="#FEFEFE"/>
<path d="M281.75 198.793C278.577 199.297 272.798 200.102 269.658 200.201L269.338 201.444C268.001 201.894 267.416 201.988 266.592 203.243C265.439 204.997 266.847 210.943 266.462 212.171C266.853 214.319 267.138 214.848 268.375 216.669C271.523 216.914 281.182 215.706 284.187 214.729C284.829 213.958 285.335 212.943 285.822 212.053C285.271 208.648 285.756 204.068 284.1 201.205C283.484 200.14 282.209 199.926 281.08 199.741L281.75 198.793Z" fill="black"/>
<path d="M281.749 198.793C278.577 199.297 272.798 200.102 269.658 200.201L269.338 201.444C271.277 201.233 279.624 200.406 281.08 199.741L281.749 198.793Z" fill="#00CC8B"/>
<path d="M269.947 204.195L269.531 204.287L269.282 204.759C269.63 207.34 269.2 211.607 269.876 213.417C271.066 214.117 279.455 212.554 281.752 212.465L282.378 212.073C282.875 210.494 282.107 204.662 281.898 202.811C278.474 202.975 273.487 203.759 269.947 204.195Z" fill="#FEFEFE"/>
<path d="M240.707 188.036C236.333 188.567 228.568 188.873 225.288 191.129C225.015 193.175 224.852 202.317 226.299 203.933C226.784 204.475 227.664 204.644 228.376 204.817C233.237 204.848 237.105 203.756 241.48 203.512C245.597 202 244.225 197.448 243.974 193.785C243.877 193.051 243.847 191.889 243.805 191.121C243.424 189.185 242.41 188.773 240.707 188.036Z" fill="black"/>
<path d="M229.335 192.292C228.791 192.341 228.766 192.301 228.34 192.666C227.887 195.783 228.603 198.753 228.542 202.112C230.612 201.671 236.593 201.31 239.287 200.948C240.092 200.76 240.616 200.722 241.237 200.185C241.319 197.337 240.792 193.982 240.638 191.028C237.377 191.137 232.635 191.862 229.335 192.292Z" fill="#FEFEFE"/>
<path d="M262.791 175.078C261.816 167.992 260.166 169.422 254.193 169.779C242.105 170.504 243.624 172.98 244.788 183.318C245.377 188.055 255.835 185.236 259.477 184.948C264.628 183.543 263.187 179.394 262.791 175.078Z" fill="black"/>
<path d="M247.401 173.44C247.311 173.477 247.08 173.745 246.998 173.831C247.136 177.249 247.439 180.036 247.924 183.424C250.321 182.875 256.695 182.153 259.721 181.676C260.502 180.792 259.584 174.183 259.493 172.37C255.567 172.487 251.706 173.366 247.401 173.44Z" fill="#FEFEFE"/>
<path d="M122.557 213.938C120.116 220.539 115.655 228.542 108.953 231.593C108.835 231.646 108.717 231.698 108.599 231.749C107.237 231.284 106.717 231.098 105.475 230.399C105.207 232.987 104.505 237.987 108.192 238.383C110.423 238.623 113.623 236.492 115.7 235.583C118.542 235.919 119.858 236.284 122.61 236.974C121.72 246.564 122.675 252.412 123.703 261.599C127.522 262.32 132.13 263.901 136.587 264.716C152.184 267.569 162.961 266.054 178.042 263.448C178.155 261.553 178.917 258.386 178.802 256.868C178.633 254.789 177.793 252.597 177.502 250.559C176.636 244.479 174.798 238.323 174.263 232.241C172.396 230.601 170.222 229.059 168.212 227.574C166.706 228.87 162.01 234.122 160.84 234.254C158.186 234.556 148.67 235.676 146.977 233.771C146.526 231.649 147.672 227.357 148.065 224.893C139.705 223.035 134.33 221.044 126.938 216.766C125.498 215.793 124.037 214.85 122.557 213.938Z" fill="#FEFEFE"/>
<path d="M122.557 213.938C120.116 220.539 115.655 228.542 108.953 231.593C108.835 231.646 108.717 231.698 108.599 231.749C107.237 231.284 106.717 231.098 105.475 230.399C105.207 232.986 104.505 237.987 108.192 238.383C110.423 238.622 113.623 236.492 115.7 235.583C118.542 235.919 119.858 236.283 122.61 236.974C123.244 229.247 124.433 224.055 126.938 216.766C125.498 215.793 124.037 214.85 122.557 213.938Z" fill="#48FFA4"/>
<path d="M129.037 135.264C119.829 137.176 113.682 141.279 105.943 146.077C104.731 146.829 100.202 144.633 99.0092 145.688C94.5818 149.603 92.9623 157.034 91.3152 162.514C88.3639 176.86 87.3376 192.351 89.0208 206.914C90.0502 215.82 101.728 225.583 109.91 227.557C114.429 223.093 117.494 218.822 119.487 212.756C119.595 210.485 114.517 206.842 112.718 205.374C111.436 205.573 110.401 205.849 109.233 205.283C106.275 202.705 106.5 179.127 108.838 176.52C110.38 174.8 115.403 177.55 119.941 172.127C119.487 171.792 119.037 171.454 118.59 171.111C117.56 170.318 117.057 170.057 116.883 168.697C117.669 166.345 122.707 169.679 124.426 170.29C126.358 169.652 126.453 167.901 126.779 166.168C124.105 161.968 119.214 161.998 118.134 159.929L118.361 159.47C122.756 157.028 130.073 165.112 129.931 157.047C129.85 152.394 119.211 152.751 118.789 150.5C120.375 147.621 132.407 146.059 135.183 143.209C136.583 141.903 136.851 140.587 136.185 138.783C134.935 135.398 132.239 135.221 129.037 135.264Z" fill="#FEFEFE"/>
<path d="M220.832 134.535C220.382 134.564 218.417 135.057 217.862 135.185C218.585 137.808 217.888 139.145 218.477 141.633C218.812 143.049 220.372 145.294 220.769 146.637C222.546 152.642 224.552 158.172 224.499 164.426C227.342 163.753 230.444 163.679 233.369 163.336L266.238 159.522C268.64 159.244 280.452 158.363 281.704 157.144C281.729 148.253 281.35 137.08 280.559 128.206C277.778 127.833 264.168 129.646 260.921 130.003L236.206 132.783C230.858 133.37 226.233 133.694 220.832 134.535Z" fill="#FEFEFE"/>
<path d="M256.648 137.258C256.12 137.414 255.657 137.589 255.141 137.78C254.557 138.925 256.234 142.565 256.52 144.521L256.228 144.874C255.472 144.928 255.227 144.89 254.579 145.27C254.279 145.984 254.418 146.826 254.891 147.432C255.697 147.477 256.172 147.314 256.95 147.129C258.886 147.76 258.9 153.236 261.052 154.634C264.123 154.807 262.512 147.68 264.692 146.333C264.785 146.343 265.512 146.423 265.512 146.423C266.882 147.774 267.47 154.643 269.987 153.952C272.181 151.938 270.652 146.057 272.672 145.545C273.478 145.534 273.631 145.577 274.347 145.263C274.914 144.385 274.806 144.765 274.867 143.803L274.444 143.37C273.594 143.343 273.384 143.36 272.581 143.019C271.245 141.063 273.252 138.763 272.704 136.317C272.07 135.725 272.388 135.89 271.427 135.768C269.103 136.813 270.655 142.125 269.509 143.63C265.739 145.001 266.853 137.247 263.828 136.476C260.437 137.49 264.095 144.019 260.058 144.78C257.98 144.258 258.581 139.594 256.648 137.258Z" fill="#03CF88"/>
<path d="M260.242 146.823L259.983 147.494C260.117 148.531 260.294 148.717 260.874 149.573C261.159 148.145 261.31 147.867 260.242 146.823Z" fill="#4BF841"/>
<path d="M230.379 140.214C229.674 140.442 229.465 140.438 229.033 140.99C228.63 142.502 230.257 146.015 230.868 147.781C229.322 148.125 228.969 148.026 228.167 149.232C228.428 151.07 230.389 150.427 231.717 150.189C232.095 151.657 233.261 156.962 234.355 157.612C238.897 158.601 235.059 150.46 239.15 149.12C240.997 150.183 241.075 155.331 243.577 157.236L244.238 157.056C244.89 155.795 245.693 150.423 245.598 148.925C247.12 148.686 248.963 148.635 248.471 146.59C247.592 145.998 247.831 146.171 246.676 146.083C245.138 144.66 247.888 139.522 245.654 138.663C242.191 140.46 245.628 145.564 242.496 146.723C239.262 146.045 240.172 139.847 237.621 139.499C234.812 140.78 236.746 144.416 235.306 146.96C234.705 147.536 234.57 147.532 233.729 147.607C232.102 146.814 232.335 143.261 230.528 140.443L230.379 140.214Z" fill="#03CF88"/>
<path d="M119.293 96.517C112.054 97.0043 101.822 106.405 98.0409 112.458C91.2037 123.402 90.7904 133.762 93.6071 146.051C97.6273 142.005 99.7979 141.239 105.447 142.393C108.074 140.705 112.201 138.325 114.606 136.344C114.928 136.079 114.739 135.265 114.686 134.77C114.2 131.385 118.804 127.078 121.937 126.476C124.863 125.914 125.891 126.456 128.265 127.909C133.736 121.867 144.551 113.916 151.49 109.646C148.702 107.416 147.118 105.038 143.476 102.522C135.874 97.2687 128.522 94.8986 119.293 96.517Z" fill="#48FFA4"/>
<path d="M201.943 212.062L200.015 213.784C204.099 219.823 206.669 221.06 198.546 224.521C196.157 225.539 194.272 226.484 191.702 227.17C189.347 225.595 188.074 224.391 185.481 223.101C183.611 225.394 182.485 227.413 181.125 230.02C183.057 237.234 184.69 251.299 188.264 257.096L189.996 259.439C194.428 256.437 199.378 254.168 204.128 250.981C209.062 247.672 211.87 244.292 215.96 241.3L216.184 241.138C213.827 231.826 207.815 219.544 201.943 212.062Z" fill="#FEFEFE"/>
<path d="M179.274 97.9032C172.161 91.7698 166.688 88.4046 157.142 86.4696C146.073 84.2256 129.167 86.2651 119.737 92.774L120.388 93.7643C123.53 93.7391 127.192 93.633 130.252 94.2057C139.056 95.8532 148.032 101.439 153.173 108.755C158.288 105.147 172.93 99.8315 179.274 97.9032Z" fill="#48FFA4"/>
<path d="M288.803 162.018C286.929 162.091 285.972 164.364 286.717 165.824C288.261 168.849 294.94 168.535 296.236 171.485L295.972 171.952C292.304 173.849 283.592 167.28 281.432 171.271C278.108 177.413 294.045 175.246 294.9 179.668C293.242 182.403 282.35 177.032 281.056 178.501C276.177 184.041 288.038 183.799 289.111 183.939C290.455 184.18 293.753 184.558 294.582 185.425L294.441 186.16C292.178 188.804 280.523 183.638 283.909 190.116C284.84 191.897 294.781 193.888 297.504 194.347C307.871 188.197 307.408 172.455 298.269 165.67C296.023 164.002 291.618 161.663 288.803 162.018Z" fill="#FEFEFE"/>
<path d="M195.29 96.039C193.247 96.5363 190.671 97.1623 188.788 98.0498C181.731 99.6293 173.385 102.902 166.557 105.482C152.74 110.704 140.618 120.204 130.077 130.337C129.919 130.489 129.834 130.928 129.8 131.138C130.579 131.927 134.185 132.27 135.487 132.508C152.596 123.397 167.715 111.671 184.394 101.973C186.557 100.716 189.31 99.1534 191.583 98.2163C192.782 97.7567 194.186 96.7581 195.29 96.039Z" fill="#48FFA4"/>
<path d="M195.29 96.039C193.247 96.5363 190.671 97.1623 188.788 98.0498C190.062 98.2829 190.691 97.4615 191.614 97.8352L191.583 98.2163C192.782 97.7567 194.186 96.7581 195.29 96.039Z" fill="#00CC8B"/>
<path d="M185.896 110.056C183.716 110.426 173.711 114.48 171.663 115.546C184.732 115.042 192.841 125.93 205.644 125.653C208.356 125.594 211.182 124.867 211.954 121.902C210.029 118.187 193.842 110.435 189.283 109.236L185.896 110.056Z" fill="#48FFA4"/>
<path d="M185.896 110.056L185.543 110.413C185.93 111 187.809 111.88 188.578 112.213C193.294 114.252 197.927 118.226 202.221 120.449C203.59 121.173 205.054 121.7 206.571 122.014C208.683 122.432 209.914 122.362 211.955 121.902C210.029 118.187 193.842 110.435 189.283 109.236L185.896 110.056Z" fill="#FEFEFE"/>
<path d="M167.608 117.744C160.818 120.885 151.9 126.09 145.608 130.244C149.845 133.469 158.128 139.603 162.128 133.03C160.327 130.061 157.337 126.866 162.306 125.719C170.078 125.955 180.053 134.666 186.58 131.186C186.893 130.773 187.058 130.679 186.973 130.139C186.433 126.702 171.13 120.624 167.825 117.924L167.608 117.744Z" fill="#48FFA4"/>
<path d="M138.854 272.849L138.532 272.982C138.015 275.667 137.901 287.921 138.474 290.697C144.284 292.195 148.07 290.771 152.538 287.097C154.18 285.577 154.978 284.703 156.412 282.979L156.783 273.807C149.703 273.921 145.877 273.907 138.854 272.849Z" fill="#48FFA4"/>
<path d="M203.966 259.971C200.408 262.765 190.798 267.589 186.442 268.958C187.007 271.713 187.054 274.624 187.674 277.383C188.02 278.926 187.961 278.856 189.161 279.761C194.633 280.894 201.538 276.628 204.911 272.469C205.305 268.817 204.532 263.589 203.966 259.971Z" fill="#48FFA4"/>
<path d="M203.714 255.003C200.249 256.693 192.162 262.866 188.645 262.154C182.504 260.912 179.45 232.841 177.892 232.188C176.552 234.457 181.636 251.681 181.776 255.54C182.163 266.156 181.023 266.117 171.431 267.725C156.786 270.178 142.983 269.676 128.671 266.145C127.391 266.335 127.478 266.104 126.805 266.873C136.275 269.569 146.396 271.438 156.305 270.799C172.846 269.732 193.036 265.465 206.091 254.716L205.628 254.437C204.907 254.613 204.409 254.769 203.714 255.003Z" fill="#48FFA4"/>
<path d="M230.05 175.534L227.087 176.064C227.044 178.696 227.473 182.621 227.548 185.487C230.353 185.449 234.19 184.862 237.038 184.491L240.406 184.159C239.939 180.641 239.984 177.981 240.034 174.46C237.63 174.957 232.981 175.101 230.05 175.534Z" fill="#FEFEFE"/>
<path d="M269.402 187.762C268.857 187.799 268.879 187.821 268.469 188.145C267.679 190.224 268.523 195.303 268.824 197.597C271.778 196.873 276.454 196.655 279.677 196.289C279.981 196.23 280.745 196.09 280.927 195.939C282.362 194.75 279.919 190.257 279.889 188.612C279.873 187.732 279.987 187.174 280.135 186.479C277.101 187.008 272.563 187.395 269.402 187.762Z" fill="#FEFEFE"/>
<path d="M213.013 201.726C211.851 202.585 205.862 208.919 204.373 210.409C206.105 212.638 209.225 217.343 210.625 219.785C211.761 221.461 212.135 222.296 212.818 224.121C213.989 218.213 213.955 207.53 213.013 201.726Z" fill="#48FFA4"/>
<path d="M267.294 171.526C267.037 171.579 267.132 171.583 266.888 171.87C266.905 173.486 266.936 179.482 267.441 180.754C268.579 181.162 276.264 180.255 276.817 179.734C277.053 177.774 278.253 176.432 278.21 175.908C278.016 173.587 277.838 172.729 278.058 170.306C274.281 170.402 271.05 171.106 267.294 171.526Z" fill="#FEFEFE"/>
<path d="M150.565 225.301C150.415 227.577 149.765 229.936 149.029 232.089C152.421 232.077 155.003 231.989 158.368 231.824C160.604 231.952 165.576 227.187 167.44 225.642C164.933 225.82 162.263 226.087 159.771 225.871C156.179 225.992 154.16 225.767 150.565 225.301Z" fill="#48FFA4"/>
<path d="M159.771 225.871C159.47 227.701 159.091 230.166 158.368 231.824C160.604 231.952 165.576 227.187 167.439 225.642C164.932 225.82 162.263 226.087 159.771 225.871Z" fill="#FEFEFE"/>
<path d="M198.148 215.159C196.039 216.129 193.941 217.518 191.903 218.299C192.744 219.958 194.081 221.696 195.186 223.23C196.661 222.337 199.767 221.169 201.724 220.127C200.362 218.598 199.281 216.866 198.148 215.159Z" fill="#48FFA4"/>
<path d="M124.269 128.641C121.307 129.394 120.214 129.645 118.028 132.154C117.364 132.917 116.849 133.78 116.953 134.779C117.662 135.204 117.356 135.092 118.366 135.018C122.077 133.308 130.657 133.035 124.269 128.641Z" fill="#48FFA4"/>
<path d="M181.04 222.804C177.682 223.628 174.333 224.489 170.994 225.386C172.515 226.342 173.491 227.235 174.841 228.405L177.033 230.313C178.099 228.124 180.387 225.166 181.04 222.804Z" fill="#48FFA4"/>
<path d="M191.903 218.299C189.38 219.703 187.105 221.01 184.428 222.13C187.695 222.3 190.519 223.879 193.699 223.977C193.96 223.985 194.904 223.404 195.186 223.23C194.082 221.696 192.744 219.958 191.903 218.299Z" fill="#FEFEFE"/>
<path d="M218.557 243.874C216.042 245.125 212.54 248.523 210.19 250.345C208.007 252.037 205.988 253.433 203.714 255.003C204.409 254.769 204.907 254.614 205.628 254.437L206.091 254.716C209.284 252.959 216.107 246.711 218.557 243.874Z" fill="#00CC8B"/>
<path d="M267.961 185.143C269.632 184.96 276.868 184.388 277.683 183.526C276.409 182.503 270.019 183.725 268.219 183.955C267.878 184.671 267.913 184.373 267.961 185.143Z" fill="#00CC8B"/>
<path d="M128.671 266.145C126.94 265.582 125.29 265.051 123.444 264.995C124.479 265.71 125.587 266.577 126.805 266.873C127.478 266.104 127.391 266.335 128.671 266.145Z" fill="#00CC8B"/>
<path d="M119.737 92.7738C118.816 93.0224 117.789 93.8024 116.972 94.3524L120.388 93.7642L119.737 92.7738Z" fill="#26FFCC" fill-opacity="0.988235"/>
<path d="M215.588 197.87C214.453 199.106 214.937 200.012 215.706 201.236L215.93 200.982C216.158 200.14 215.775 198.79 215.588 197.87Z" fill="#FEFEFE" fill-opacity="0.988235"/>
<path d="M217.085 216.312C216.078 217.141 216.294 218.347 216.339 219.547C217.114 218.881 217.044 217.266 217.085 216.312Z" fill="#01FFA6" fill-opacity="0.976471"/>
</g>
<defs>
<clipPath id="clip0_2060_201">
<rect width="300" height="292" fill="white" transform="matrix(-0.965926 0.258819 0.258819 0.965926 289.778 0)"/>
</clipPath>
</defs>
</svg>
