<svg width="246" height="224" viewBox="0 0 246 224" fill="none" xmlns="http://www.w3.org/2000/svg">
<path d="M37.3518 34.7164C61.021 23.5803 82.48 30.3619 93.4601 49.5372C110.926 80.0415 107.345 116.498 96.1874 150.563C106.588 150.709 113.498 150.102 123.791 146.249C138.222 140.847 154.085 127.239 160.894 114.511C129.819 100.099 112.571 65.5414 122.233 32.8025C132.285 -1.26177 176.795 -13.0036 194.78 17.971C208.745 42.0212 206.913 69.1498 197.61 96.4284C205.878 95.7896 212.021 94.8143 220.223 93.0724C227.644 91.1846 235.047 89.2094 242.429 87.1473C242.593 87.7097 242.743 88.2755 242.881 88.8454C243.735 92.5463 246.5 106.551 244.581 109.371C241.358 111.745 235.996 112.654 232.039 113.744C216.782 117.948 202.068 120.442 186.549 120.055C167.857 151.775 133.292 175.012 94.5196 174.003C91.0912 173.914 87.6352 173.649 84.2336 173.405C65.0641 199.819 37.8298 214.407 6.11157 223.547C3.73361 216.898 2.10881 208.441 0.000358293 201.363C23.5501 193.797 44.3108 185.839 59.778 165.776C43.4984 158.4 30.1737 146.082 21.3608 131.756C4.05132 103.62 -2.63375 56.4466 37.3518 34.7164ZM73.2583 139.757C80.0957 113.146 83.1525 83.2082 68.4861 60.0338C63.5853 52.2902 55.0851 51.0003 45.9212 55.9642C22.1192 75.1936 38.7829 115.515 54.5192 131.121C59.9572 136.514 64.1762 139.376 71.0674 143.004L72.0412 142.816C72.9118 141.345 72.8651 141.365 73.2583 139.757ZM172.785 90.6701C178.456 70.8934 182.083 47.811 171.067 30.3953C167.537 24.8131 162.759 21.6472 155.243 25.1486C137.577 39.754 148.247 71.4366 160.703 83.4733C162.713 85.4153 169.502 91.1826 172.359 91.3841L172.785 90.6701Z" fill="url(#paint0_linear_2019_193)"/>
<defs>
<linearGradient id="paint0_linear_2019_193" x1="34.6592" y1="183.053" x2="218.659" y2="4.05253" gradientUnits="userSpaceOnUse">
<stop stop-color="#3EF58B"/>
<stop offset="1" stop-color="#06D4A4"/>
</linearGradient>
</defs>
</svg>
