<svg width="388" height="381" viewBox="0 0 388 381" fill="none" xmlns="http://www.w3.org/2000/svg">
<g clip-path="url(#clip0_2051_170)">
<path d="M175.081 65.7649C172.14 66.1556 159.854 74.4601 156.758 76.3925L123.454 97.1068L99.5307 111.903C95.3193 114.524 90.9014 116.976 86.9845 120.113C81.0179 124.891 82.8313 135.31 90.1858 137.718C92.3595 138.286 94.8571 138.603 97.1007 138.747C106.145 139.326 115.436 140.661 124.451 141.203C124.169 142.877 124.381 144.371 124.633 146.025C118.898 145.515 112.605 149.195 107.49 151.613L88.5682 160.671C77.9621 165.704 67.2762 170.189 56.969 175.885C40.7418 184.726 39.8085 213.002 55.9019 222.517C63.1346 226.791 65.908 223.019 72.1649 222.898C75.1898 224.48 75.7378 224.786 77.9361 227.369C76.089 229.565 73.4555 232.921 72.377 235.59C68.1219 246.128 73.0947 260.533 80.4433 268.64C82.3845 270.794 84.716 272.56 87.3167 273.843C92.7859 276.52 92.5891 275.776 96.5377 280.699C106.861 293.503 117.143 306.395 128.379 318.433C132.511 322.86 156.085 328.643 162.611 329.521C167.821 330.224 180.437 323.127 186.125 320.847C188.56 320.027 192.26 317.954 194.813 316.889C201.528 314.083 208.056 311.156 214.664 308.128L257.415 288.929L319.36 260.855C327.632 257.075 336.141 253.63 344.339 249.671C351.285 246.318 356.642 240.375 356.455 232.198C356.271 224.104 356.647 214.553 351.197 207.882C347.102 203.022 340.467 199.829 336.125 195.378C336.093 189.207 334.782 189.097 332.875 183.783C332.548 182.872 332.542 179.306 332.016 177.691C329.802 170.894 321.879 165.615 315.663 162.682C313.599 161.547 310.12 161.163 308.179 160.099C304.749 158.219 300.535 156.874 297.182 155.191L296.987 155.093C297.218 153.065 297.166 149.709 295.964 147.992C293.216 144.068 289.278 141.477 286.479 137.487C282.937 132.437 281.633 127.292 279.6 121.598C278.454 118.455 275.046 115.228 273.102 112.502C271.245 109.899 269.71 107.203 267.418 104.88C267.024 102.607 267.048 98.8785 266.9 96.3714C269.971 92.5777 277.89 89.5592 281.261 85.3733C284.861 80.9036 283.763 74.1699 279.474 70.5156C278.538 69.7183 277.055 68.8965 275.801 68.7619C268.408 67.9683 260.892 68.0821 253.457 67.8835L217.443 66.7763L192.391 65.9167C187.635 65.7351 179.612 65.2448 175.081 65.7649Z" fill="#FEFEFD"/>
<path d="M176.926 72.495C174.8 72.8035 167.012 78.0878 164.567 79.6284L147.579 90.1879L109.082 114.092C103.446 117.613 97.706 121.154 92.0771 124.695C91.1482 125.28 90.7048 126.265 90.2017 127.237C90.4777 128.383 90.7335 130.089 91.6218 130.804C92.1369 131.218 93.4517 131.407 94.1064 131.467C105.545 132.522 117.069 133.608 128.509 134.597C131.419 134.848 140.984 135.952 143.246 135.761C144.803 141.99 146.821 152.647 147.859 159.095C145.635 160.892 144.662 161.971 142.967 164.154C138.866 159.065 135.271 154.559 128.418 152.993C121.329 151.374 116.395 154.957 110.143 157.969C104.336 160.78 98.5147 163.561 92.6798 166.31C84.6954 170.049 76.6249 173.621 68.7544 177.63C65.3226 179.379 62.0163 180.533 58.7904 182.848C56.263 184.678 54.2913 187.172 53.0914 190.055C49.0128 199.648 51.3753 213.536 61.9968 217.804C66.7907 216.859 70.3299 215.057 75.5518 216.965C81.0745 218.982 84.4328 224.368 86.7987 229.421C82.6021 231.329 78.4814 236.66 77.9132 241.281C77.0371 248.425 80.0951 256.534 84.143 262.319C87.2318 266.738 91.5799 269.075 96.7814 269.864C99.106 272.097 102.067 276.628 104.169 279.287C108.523 284.795 130.607 312.29 134.759 314.632C137.996 316.457 157.154 321.987 161.223 322.509C162.989 322.735 164.595 322.674 166.305 322.177C171.04 320.21 176.645 317.52 181.385 315.375L205.068 304.774C229.778 293.955 254.381 282.896 278.874 271.594C295.688 263.9 312.686 256.571 329.422 248.713C334.254 246.444 339.247 244.564 343.967 242.031C345.25 241.342 346.395 240.222 347.269 239.071C350.198 235.216 349.582 230.651 349.336 226.128C349.219 223.965 349.177 221.746 348.857 219.603C348.509 217.272 347.774 215.07 346.378 213.154C343.583 209.317 332.694 201.582 328.378 198.365C330.257 193.893 328.681 189.828 325.359 186.601C327.018 176.951 322.658 175.593 315.598 170.399C311.832 167.628 308.358 167.746 304.075 166.835C299.728 162.185 295.62 163.051 290.847 159.42C289.431 158.344 287.515 157.319 285.958 156.435C287.033 155.935 289.914 154.818 290.167 153.763C290.786 151.185 286.736 148.137 285.154 146.627C279.847 141.564 277.003 135.66 274.56 128.849C273.71 126.483 272.825 124.042 271.741 121.781C270.577 119.35 267.871 119.263 266.523 117.346C265.852 116.394 266.025 113.871 265.171 112.57C264.014 110.809 262.178 109.918 260.236 109.401C261.068 105.461 260.215 97.1219 259.139 93.1402C264.045 89.2412 269.525 86.1644 274.442 82.3101C275.121 81.675 276.412 80.318 276.483 79.3289C276.733 75.8473 273.785 75.3847 271.395 75.2881C263.905 74.9859 256.489 74.8655 249.035 74.6699L212.136 73.505L190.923 72.8064C187.28 72.6583 180.388 72.1659 176.926 72.495Z" fill="#002D5E"/>
<path d="M124.24 155.687C118.807 156.65 111.688 160.623 106.482 163.078L89.2285 171.17C83.1174 174.105 77.052 177.192 70.7293 179.704C82.0574 182.281 84.7076 189.004 88.6619 198.478C90.0138 201.649 91.4236 204.795 92.891 207.915C94.8985 212.113 97.9626 216.594 99.8446 220.71C105.988 218.88 108.317 217.429 113.533 222.069C114.386 224.812 115.447 226.777 114.212 229.295C120.637 230.701 122.719 236.635 118.384 241.607C121.667 246.768 123.28 248.29 118.983 253.828C122.77 258.148 127.31 268.402 131.047 273.019C135.08 277.403 140.54 270.248 144.881 269.774C149.331 269.288 152.992 273.036 151.864 265.061C151.172 260.163 148.844 257.666 145.277 254.47C144.507 253.794 143.303 252.677 143.661 251.653C145.254 249.99 175.91 234.73 179.817 232.928C173.398 222.203 167.39 212.319 161.289 201.114C153.998 187.723 145.827 171.081 135.294 159.932C132.523 157 128.291 155.588 124.24 155.687Z" fill="#FEFEFD"/>
<path d="M125.342 169.849C123.131 170.473 121.257 171.432 122.058 174.217C122.879 177.071 124.513 180.306 125.936 182.938C125.05 183.449 124.038 184.133 123.163 184.694C121.435 182.482 113.547 172.135 111.079 177.074C110.423 178.388 113.422 186.901 113.95 188.866C112.682 189.615 112.313 189.901 111.205 190.885C109.922 188.508 106.557 184.535 104.629 182.538C103.355 181.217 100.721 181.563 99.6571 183.244C99.3203 185.846 104.77 190.216 106.121 192.99C105.425 193.363 104.023 194.018 103.637 194.689C102.144 197.281 104.315 198.898 106.776 198.171L109.567 196.447C111.391 199.368 114.622 202.819 117.092 205.186C118.683 206.711 121.484 206.131 121.948 204.383C122.766 201.299 119.993 194.302 119.036 191.222C120.201 190.879 121.462 190.572 122.643 190.261C124.269 191.704 132.016 202.847 134.919 197.606C136.269 195.169 132.896 188.117 131.989 184.892C134.088 183.831 137.559 182.461 134.501 179.463C133.546 178.527 132.159 180.128 130.695 180.326C128.837 179.413 128.036 172.09 125.342 169.849Z" fill="#0064C2"/>
<path d="M158.225 218.955C156.455 219.474 128.022 234.485 126.84 235.602C126.523 236.553 126.611 236.265 126.879 237.347C129.7 236.471 157.641 221.354 158.212 220.548C158.54 220.084 158.311 219.479 158.225 218.955Z" fill="#002D5E"/>
<path d="M161.746 225.977L139.533 237.58C137.499 238.667 131.986 241.456 130.557 242.778C130.339 243.699 130.434 243.478 130.874 244.514C131.987 244.174 138.368 240.441 139.846 239.65L153.86 232.15C156.019 231.021 159.758 229.345 161.637 228.054C162.087 227.061 161.92 227.228 161.746 225.977Z" fill="#002D5E"/>
<path d="M153.962 211.979C153.421 212.125 123.199 228.362 122.994 228.551C122.705 229.449 122.811 229.214 123.239 230.291C131.036 226.547 138.541 222.301 146.214 218.321C148.983 216.885 152.031 215.379 154.518 213.503C154.641 212.751 154.453 212.768 153.962 211.979Z" fill="#002D5E"/>
<path d="M151.772 199.267C151.259 198.441 151.234 198.074 150.475 197.732C146.596 197.972 144.978 201.314 149.134 203.607C149.1 204.599 148.956 205.641 149.364 206.519L149.819 206.657C151.002 205.509 150.167 203.846 151.146 202.308C152.067 203.171 152.121 204.318 153.653 204.499L153.984 204.151C153.772 201.952 152.969 201.108 151.772 199.267Z" fill="#002D5E"/>
<path d="M151.772 199.267L151.8 200.319L150.957 200.205L150.915 201.262L151.38 201.94L151.146 202.307C152.067 203.171 152.121 204.318 153.653 204.499L153.984 204.151C153.772 201.952 152.969 201.108 151.772 199.267Z" fill="#002D5E"/>
<path d="M150.958 200.205C150.078 199.446 150.394 199.493 149.396 199.427C148.621 199.752 148.523 199.797 148.097 200.514L148.065 201.241C148.982 202.199 149.766 201.676 150.915 201.262L150.958 200.205Z" fill="#FEFEFD"/>
<path d="M124.104 211.421C122.736 212.164 120.467 213.188 119.851 214.601C118.379 217.978 122.347 217.871 124.349 217.219L124.552 217.041C125.674 217.27 126.071 219.23 127.428 218.652C127.344 218.019 124.723 213.992 124.134 211.549L124.104 211.421Z" fill="#002D5E"/>
<path d="M122.937 213.304C122.804 213.36 122.672 213.419 122.541 213.481C121.535 213.958 121.353 214.231 121.04 215.118C121.133 216.044 121.425 216.3 121.993 217.01C122.818 216.652 123.299 216.556 123.76 215.803C123.885 214.91 123.362 214.16 122.937 213.304Z" fill="#FEFEFD"/>
<path d="M132.584 206.894C131.363 207.47 129.307 208.463 128.544 209.589C130.05 209.985 131.584 208.3 132.561 209.596C132.232 210.743 130.62 211.106 130.387 212.137C132.401 212.205 132.687 211.327 134.214 212.687C133.371 214.041 131.322 214.182 131.435 215.729C132.057 216.206 131.714 216.107 132.502 216.027C133.729 215.101 134.971 214.75 136.029 213.79C136.127 212.618 133.358 208.378 132.584 206.894Z" fill="#002D5E"/>
<path d="M144.355 200.797C143.07 201.478 140.814 202.305 140.353 203.364C141.279 203.807 143.097 202.541 144.321 203.064L144.431 203.552C144.068 204.494 143.162 204.95 142.293 205.69L142.406 205.944C143.939 206.164 143.782 205.376 145.558 205.729C145.771 208.182 144.027 207.422 143.352 209.13L143.831 209.228C144.851 208.924 147.161 208.11 147.792 207.306C147.36 205.702 145.375 202.194 144.355 200.797Z" fill="#002D5E"/>
<path d="M137.436 204.655C136.265 204.817 134.313 205.711 133.968 206.936L134.149 207.22C134.603 207.496 134.585 207.461 135.123 207.46C138.372 204.333 141.605 208.083 138.935 211.049C138.064 211.068 137.835 211.004 137.134 211.489L137.068 211.91C138.427 212.761 139.375 212.209 140.81 211.744C141.837 208.669 141.445 204.705 137.436 204.655Z" fill="#002D5E"/>
<path d="M126.672 209.73C126.098 210.044 126.059 210.047 125.725 210.589C125.768 212.421 128.169 215.591 129.272 217.231L129.936 216.904C130.184 215.91 127.41 210.697 126.672 209.73Z" fill="#002D5E"/>
<path d="M117.084 217.234L116.654 217.78L115.98 217.729C116.057 218.073 116.152 218.412 116.266 218.746C116.738 220.118 117.521 222.12 118.84 222.777L119.287 222.619C119.747 221.03 118.055 218.471 117.084 217.234Z" fill="#002D5E"/>
<path d="M119.378 213.905C118.092 214.515 113.514 216.62 113.131 217.809C114.036 218.755 114.655 217.516 115.979 217.729L116.653 217.78L117.084 217.235C117.265 216.184 118.63 215.109 119.378 213.905Z" fill="#002D5E"/>
<path d="M177.258 76.0561C174.647 77.1656 167.236 81.981 164.569 83.6564L143.683 96.6697L111.058 116.973C105.482 120.451 99.1627 124.027 93.9394 127.872C99.2133 128.664 105.462 129.026 110.856 129.509L137.884 131.987C148.905 133.076 159.932 134.089 170.967 135.025C174.102 135.307 186.192 136.895 188.956 135.975C190.423 135.486 197.216 130.545 198.929 129.405C206.622 124.326 214.281 119.196 221.907 114.016C225.685 111.447 233.172 106.085 236.947 104.242C234.424 103.442 231.111 102.743 228.523 102.236C215.631 100.28 204.766 99.547 191.633 100.264C186.992 100.287 182.496 103.585 177.963 103.003C175.749 102.704 173.725 99.5424 174.601 97.4661C177.127 91.4822 183.936 93.3769 188.565 93.0504C208.412 91.6501 225.732 92.7109 244.666 98.7053C246.514 97.2171 250.565 94.6355 252.693 93.1621L273.038 79.2532L273.072 78.9745C272.516 78.6664 271.772 78.5857 271.141 78.5665L204.312 76.6652L186.938 76.0413C184.287 75.9603 179.778 75.7418 177.258 76.0561Z" fill="#0064C2"/>
<path d="M280.003 187.544C271.524 192.04 261.266 196.553 252.522 200.59L223.662 214.133L209.037 221.001C206.016 222.425 202.124 224.126 199.32 225.82C201.67 228.166 204.908 230.901 207.43 233.143L222.959 246.849C226.225 249.726 236.604 259.304 239.679 261.013C247.126 257.29 253.859 254.291 261.506 250.968C267.472 247.977 273.705 245.444 279.798 242.693L310.698 228.707C321.058 224.078 332.352 218.255 342.766 214.134C339.18 210.757 330.919 204.127 326.797 201.566C322.151 205.157 318.044 205.884 313.697 201.309C310.552 204.538 306.343 205.614 302.959 201.875C300.36 199.003 300.705 199.268 296.845 200.183C291.816 201.376 289.6 197.502 288.979 193.133L285.608 193.627C285.146 193.403 284.688 193.172 284.234 192.933C281.331 191.399 280.927 190.513 280.003 187.544Z" fill="#0064C2"/>
<path d="M282.934 200.385C279.998 200.704 278.671 201.98 276.983 204.266C279.253 207.377 281.526 210.615 284.04 213.524C282.749 214.04 282.038 214.489 280.838 215.212C276.745 212.921 272.416 210.254 268.36 207.847C265.019 207.865 264.457 208.418 261.425 209.85C262.791 215.397 263.779 216.679 266.701 221.484C265.492 221.811 264.169 222.766 262.931 222.755C259.797 222.728 255.381 215.538 250.578 215.279C248.856 215.187 246.592 216.176 245.44 217.449C245.07 217.857 244.997 218.239 245.031 218.77C245.133 220.356 252.94 225.223 254.577 226.669C253.063 227.517 249.018 229.29 248.342 230.608C248.489 231.776 249.57 233.017 250.645 233.424C252.63 234.176 255.38 232.654 257.194 231.887C258.275 231.545 259.465 231.059 260.537 230.648C262.901 232.676 268.854 237.103 271.975 238.318C275.148 239.552 281.097 236.942 279.63 232.732C278.662 229.953 276.747 226.348 275.056 223.604C279.61 221.557 279.169 220.87 283.781 223.57C287.046 225.481 290.916 227.977 294.515 229.049C294.72 229.006 294.925 228.962 295.129 228.917C298.576 228.155 299.927 227.383 301.825 224.421C299.315 221.171 297.271 218.124 294.978 214.71C297.137 213.371 301.25 212.72 301.528 210.292C301.089 208.78 300.006 208.123 298.745 207.275C295.861 207.889 294.348 208.749 291.718 210.041C289.524 207.473 288.057 204.676 286.031 202.005C285.104 200.783 284.359 200.664 282.934 200.385Z" fill="#FEFEFD"/>
<path d="M287.287 217.952C286.727 218.21 286.94 218.021 286.611 218.521C287.019 219.2 287.371 219.219 288.161 219.645L288.661 219.366C288.454 218.614 288.039 218.523 287.287 217.952Z" fill="#002D5E"/>
<path d="M231.411 232.571C229.378 232.977 226.572 233.699 225.029 235.068C221.123 238.532 223.861 243.255 228.649 243.253C231.622 242.85 232.713 242.426 235.376 241.136C238.075 236.68 237.064 233.111 231.411 232.571Z" fill="#002D5E"/>
<path d="M230.17 235.256C227.254 236.218 226.949 236.759 225.307 239.308C226.798 240.115 227.988 240.391 229.633 240.7C231.745 240.298 234.871 238.924 233.679 236.259C232.639 235.343 231.507 235.27 230.17 235.256Z" fill="#FEFEFD"/>
<path d="M221.469 221.813C216.368 222.886 210.33 224.954 214.401 231.25C215.709 231.812 216.63 232.291 218.047 232.432C220.793 231.952 224.224 231.496 225.853 228.816C226.937 227.033 226.457 225.787 225.936 223.925C224.166 222.573 223.638 222.118 221.469 221.813Z" fill="#002D5E"/>
<path d="M220.895 224.475L217.813 225.318C216.495 226.562 216.206 227.057 215.23 228.617C216.615 229.184 217.115 229.339 218.58 229.636C218.906 229.597 219.231 229.548 219.553 229.488C221.327 229.15 224.071 227.899 223.405 225.703C222.809 224.976 221.808 224.771 220.895 224.475Z" fill="#FEFEFD"/>
<path d="M241.101 241.698C238.541 242.224 231.365 244.946 234.17 249.359C234.977 250.629 237.627 250.543 239.115 250.558C242.03 249.894 245.247 248.22 246.096 245.105C246.864 242.287 243.124 241.364 241.101 241.698Z" fill="#002D5E"/>
<path d="M239.299 248.072C239.506 248.02 239.711 247.964 239.916 247.906C241.505 247.451 242.22 247.185 243.061 245.678C243.124 244.783 243.233 245.096 242.707 244.481C241.341 243.994 240.332 244.644 238.961 245.207C237.977 245.712 237.019 246.098 236.322 246.945L236.15 247.599C236.907 248.42 238.247 248.234 239.299 248.072Z" fill="#38A2FF"/>
<path d="M238.961 245.207C237.977 245.712 237.019 246.098 236.322 246.946L236.15 247.6C236.907 248.42 238.247 248.235 239.299 248.072C238.965 246.901 238.985 246.433 238.961 245.207Z" fill="#0080E9"/>
<path d="M117.705 257.678C116.848 258.552 115.578 261.684 114.772 263.121C117.701 265.833 120.523 268.977 123.31 271.865C129.28 278.029 135.205 284.235 141.087 290.483C144.255 293.804 147.553 297.374 150.724 300.636C156.999 307.092 161.104 310.201 163.075 319.342C169.597 317.392 177.273 313.534 183.554 310.702L209.981 299.019C216.584 296.026 226.428 291.286 232.962 288.837C232.889 287.21 233.176 284.83 233.225 283.083C233.314 279.857 232.882 277.532 232.325 274.348C229.921 271.653 223.839 266.421 221.028 263.864L202 246.343C192.869 251.589 183.68 256.733 174.435 261.776C170.509 263.965 165.851 266.878 161.996 268.874C159.983 269.987 154.381 273.259 152.529 273.247C147.885 273.216 146.433 272.874 141.627 274.221C143.534 276.502 149.18 281.445 151.545 283.649C154.999 286.869 158.926 290.97 162.408 293.97L162.701 293.851C163.231 292.122 163.772 291.15 165.577 290.424C173.625 287.186 181.456 283.47 189.368 279.914L208.231 271.475C211.329 270.104 214.659 268.467 217.811 267.321C220.235 268.114 227.948 273.173 228.16 275.72C227.773 276.798 226.064 277.851 225.057 278.298C210.927 284.564 196.927 291.152 182.731 297.265C177.98 299.309 172.93 302.655 167.65 302.791C161.541 298.468 155.527 292.071 149.883 286.906C147.15 284.405 141.053 278.92 138.873 276.351C136.617 277.226 134.975 277.668 132.616 278.106C125.454 274.181 122.775 263.993 117.705 257.678Z" fill="#0080E9"/>
<path d="M201.948 252.328C199.923 252.745 197.535 254.359 195.534 255.21C192.282 256.593 189.082 258.06 185.872 259.533C175.019 264.514 164.058 269.278 153.239 274.321C152.587 274.604 149.782 276.093 149.543 276.439C147.99 278.695 154.128 282.327 155.232 283.843C155.771 284.583 156.97 285.014 157.516 284.995C161.142 284.066 163.561 282.585 166.921 281.026L178.364 275.806C187.816 271.505 197.515 267.404 206.96 263.043C208.074 262.529 209.713 261.618 210.638 260.842C211.58 257.38 204.666 253.406 201.948 252.328Z" fill="#002D5E"/>
<path d="M202.258 255.852C199.376 256.509 196.628 258.138 193.936 259.378C183.052 264.391 171.997 269.047 161.201 274.237C158.621 275.478 156.166 276.272 153.547 277.691C155.488 279.625 156.068 280.223 158.29 281.782C160.266 280.081 169.604 276.438 172.712 275.043L200.27 262.447C202.6 261.395 204.856 260.647 207.339 259.494C205.54 258.473 203.899 257.119 202.258 255.852Z" fill="#FEFEFD"/>
<path d="M148.584 162.632C147.277 163.52 145.96 165.503 145.088 166.841C147.489 171.532 151.373 176.459 154.313 181.745C160.278 192.472 167.25 206.261 173.767 216.365C175.011 218.293 187.061 226.16 189.4 227.533C194.968 225.239 196.513 223.713 201.58 220.673C197.503 220.615 193.791 220.024 190.308 217.759C166.326 202.161 188.405 165.282 213.619 180.736C216.426 171.794 224.633 166.973 233.56 166.384C239.403 165.998 244.52 168.533 248.74 172.304C252.035 175.495 253.756 179.279 254.69 183.695C255.717 188.549 254.575 192.288 253.004 196.755C257.379 194.52 260.81 192.838 265.37 191.008C265.332 183.005 263.281 171.716 257.5 165.368C257.305 165.154 254.269 163.76 253.627 163.397C253.631 161.897 253.65 160.396 253.682 158.896C251.063 155.155 244.97 149.704 240.901 147.716C238.237 150.101 230.293 155.384 227.047 156.539C229.36 156.855 233.986 157.133 235.028 159.366C234.927 160.094 234.87 160.116 234.365 160.691C232.438 161.698 229.316 159.898 227.062 160.213C224.914 160.512 222.979 161.584 220.837 161.743C220.004 161.805 219.722 161.266 219.117 160.651C219.185 160.665 203.459 166.254 201.298 166.914C200.571 167.724 201.489 167.945 200.944 169.063C198.711 170.176 195.702 170.262 193.495 171.552C192.015 172.417 190.715 173.842 189.447 174.978C188.305 176.002 187.053 177.531 185.48 176.347C184.56 173.44 189.904 170.083 191.932 168.725C180.583 171.063 167.432 172.21 156.017 169.272C151.788 168.184 150.517 166.2 148.584 162.632Z" fill="#0080E9"/>
<path d="M166.472 185.335C164.076 186.191 165.203 189.154 165.126 191.331C164.701 203.301 174.453 217.832 186.376 220.517C186.488 220.537 186.6 220.554 186.712 220.569C187.559 220.676 188.108 220.685 188.76 220.174C188.818 218.013 181.977 215.763 180.093 214.145C178.308 212.613 176.81 211.587 175.159 209.75C170.804 204.905 168.768 198.879 167.795 192.536C167.51 190.684 167.131 187.175 166.55 185.548L166.472 185.335Z" fill="#002D5E"/>
<path d="M147.341 136.304L147.099 136.358C146.427 137.704 151.838 160.617 152.935 164.161C156.77 166.516 161.971 167.151 166.397 167.425C190.688 168.931 222.716 159.29 241.052 143.064C242.194 141.929 242.783 141.35 242.719 139.637C242.572 135.699 241.328 131.832 240.789 127.91C238.358 128.694 233.857 131.128 231.315 132.4L213.183 141.404C209.111 143.475 205.151 145.611 200.955 147.425C195.859 149.629 192.094 143.663 189.842 139.854C184.565 140.033 174.508 138.88 168.985 138.365C162.055 137.719 154.179 137.156 147.341 136.304Z" fill="#0064C2"/>
<path d="M345.769 225.954C334.692 230.594 323.113 235.996 312.17 241.023L268.672 260.651L249.032 269.535C247.915 270.028 245.584 270.599 244.947 271.168C241.683 272.842 239.374 274.169 235.924 275.398C236.569 280.434 236.662 281.872 236.621 287.052C239.52 285.535 242.516 284.682 245.98 282.874C248.411 281.519 250.789 280.729 253.303 279.598L271.281 271.522L321.744 248.463C328.027 245.56 339.468 241.726 344.475 237.139C347.081 234.751 346.049 229.079 345.769 225.954Z" fill="#FEFEFD"/>
<path d="M244.948 271.168C241.683 272.842 239.374 274.169 235.924 275.398C236.569 280.434 236.663 281.872 236.621 287.052C239.52 285.535 242.517 284.682 245.98 282.874C246.29 278.472 245.854 275.415 244.948 271.168Z" fill="#0080E9"/>
<path d="M105.612 222.262C99.1613 223.668 93.0845 229.445 87.541 232.808C79.6341 237.88 79.8181 245.926 82.9879 253.477C87.7256 264.764 95.887 269.887 107.474 264.217C110.305 262.832 112.688 260.821 113.854 257.782L113.702 257.497C111.39 257.416 107.914 260.622 106.194 258.548C105.85 256.388 109.076 255.646 110.892 254.822C111.87 254.253 112.973 253.749 114.298 253.134C117.71 251.596 121.132 246.577 115.906 244.676C113.98 243.976 109.187 247.792 107.478 248.737C106.026 249.54 104.516 250.47 103.452 248.586C103.677 245.234 115.426 242.074 117.183 237.84C117.764 236.442 117.076 235.082 116.638 233.508C110.634 230.555 107.78 234.942 102.673 237.693C101.176 238.5 100.154 239.939 98.4734 238.777C98.0083 237.843 98.073 238.239 98.1537 237.265C99.4672 234.787 107.65 231.723 109.947 229.47C110.794 228.638 111.623 227.815 111.579 226.522C111.447 222.602 108.808 222.293 105.612 222.262Z" fill="#FEFEFD"/>
<path d="M66.3184 182.88C59.8773 183.984 55.3377 190.282 54.7882 196.548C54.3172 201.938 54.8568 206.889 58.3106 211.355C62.9238 217.319 67.2401 211.665 73.1481 212.928C79.2453 213.959 82.1895 216.437 85.8227 221.033C87.4265 223.222 88.5501 225.358 89.8481 227.72C92.6413 225.191 93.7197 224.415 96.9992 222.552C95.1435 218.234 92.4217 213.543 90.1529 209.326C83.9141 197.74 82.929 182.183 66.3184 182.88Z" fill="#0064C2"/>
<path d="M67.1471 184.689C66.6179 184.762 66.095 184.878 65.5829 185.034C62.4928 185.952 59.9033 188.082 58.4066 190.938C55.6818 196.108 56.2309 200.176 57.7887 205.352C62.5384 201.509 67.2303 199.575 72.9983 197.717L74.3242 199.169C78.5989 203.705 80.9138 203.786 86.3787 205.723C81.5262 196.335 80.4788 185.51 67.1471 184.689Z" fill="#002D5E"/>
<path d="M200.898 231.597C200.544 232.056 201.158 232.845 201.434 233.373C203.072 236.494 203.959 239.953 204.024 243.477C205.667 245.519 210.755 249.853 212.875 251.808C220.157 258.556 227.516 265.222 234.95 271.804C245.525 267.697 255.329 263.035 265.63 258.323L299.445 243.014C311.705 237.473 324.233 232.202 336.395 226.437C339.341 225.041 342.684 223.825 345.455 222.347C346.38 220.883 345.302 218.214 344.748 216.74C342.975 217.726 340.322 218.761 338.404 219.652L323.437 226.493L287.884 242.599L256.464 256.912C252.571 258.692 242.445 263.73 238.765 264.437C235.96 263.577 204.867 235.652 200.898 231.597Z" fill="#0064C2"/>
<path d="M194.393 228.344C191.839 229.993 187.63 232.051 184.772 233.478C174.345 238.68 164.121 244.229 153.692 249.416C151.559 250.477 149.639 251.317 147.623 252.637C152.816 257.305 155.637 261.547 154.941 268.759L154.847 269.245L155.199 269.337C167.164 262.943 178.764 255.605 190.793 249.279C193.844 247.676 198.05 245.452 200.836 243.509C200.014 235.234 197.984 234.513 194.393 228.344Z" fill="#FEFEFD"/>
<path d="M112.588 265.014C107.425 267.857 107.219 268.16 101.144 269.733C109.059 280.039 117.318 290.035 125.782 299.892C128.028 302.506 133.77 309.706 136.19 311.353C138.694 313.061 148.032 315.386 151.353 316.31C153.866 316.962 157.57 318.226 159.993 319.073C159.401 317.143 158.103 313.559 156.85 312.122C142.816 296.022 126.897 280.822 112.588 265.014Z" fill="#0064C2"/>
<path d="M125.678 284.174C114.982 285.916 127.838 297.519 130.879 301.024C133.005 303.472 135.725 305.838 138.713 307.144C152.217 305.785 130.32 286.499 125.678 284.174Z" fill="#002D5E"/>
<path d="M124.972 287.413C124.361 287.633 124.385 287.916 124.329 288.441C125.32 291.008 133.831 300.164 136.231 302.211C136.975 302.846 138.165 303.53 139.059 304.003L139.596 303.463C140.202 300.656 134.042 294.76 132.036 292.873C130.092 291.044 127.561 287.977 124.972 287.413Z" fill="#FEFEFD"/>
<path d="M114.253 272.746C107.609 274.32 112.004 283.361 118.103 283.957C124.922 281.198 119.784 273.972 114.253 272.746Z" fill="#002D5E"/>
<path d="M114.441 275.669C113.901 276.004 114.075 275.879 113.734 276.482C113.704 278.426 115.679 280.61 117.536 281.038C117.988 280.757 118.013 280.665 118.33 280.247C118.645 278.089 116.186 276.396 114.441 275.669Z" fill="#FEFEFD"/>
<path d="M289.877 165.47C286.141 166.253 283.275 168.33 281.356 171.642C280.682 172.803 279.91 175.795 281.324 176.548C282.384 175.828 282.688 173.452 284.155 172.009C286.684 169.519 288.818 169.393 292.082 169.262C303.374 174.299 291.918 185.18 292.082 194.23C293.764 196.944 294.204 197.143 297.42 197.346C297.467 197.312 297.513 197.279 297.56 197.246L297.788 197.075C302.398 193.691 302.46 184.991 304.838 183.454C305.826 183.361 305.431 183.326 306.46 183.804C308.525 186.803 299.757 197.332 305.557 200.207L305.803 200.326C313.585 204.065 312.936 191.157 315.827 188.939C316.672 188.817 316.324 188.769 317.148 189.194C317.866 190.624 316.32 195.033 316.254 197.104C316.114 201.447 321.002 202.81 323.748 199.758C326.007 197.246 326.032 195.34 325.966 192.084C324.279 189.677 323.793 189.422 321.454 187.698C323.076 183.834 322.919 182.837 321.402 178.876C316.829 174.949 310.809 170.616 304.565 170.342C302.755 170.263 298.573 171.123 297.737 169.531C298.118 168.503 299.276 168.478 299.823 167.314C298.635 164.959 292.231 165.047 289.877 165.47Z" fill="#FEFEFD"/>
<path d="M265.808 121.042C264.88 121.238 263.806 121.853 262.897 122.259C260.193 123.466 258.967 123.538 256.098 123.739C253.041 129.147 257.673 137.661 257.99 144.069C258.292 150.157 258.14 155.493 256.92 161.537C259.474 161.283 262.247 160.676 264.766 160.155C262.499 151.66 262.106 146.794 262.04 138.041C263.461 141.956 266.593 159.697 268.378 161.015C271.459 160.356 273.362 159.457 276.221 158.171C272.025 152.695 269.178 145.124 269.185 138.157C272.608 145.515 273.528 149.077 277.862 156.541C280.813 155.235 283.507 154.105 286.461 152.715C283.229 149.316 279.511 145.82 276.937 141.845C273.209 136.087 271.951 128.247 268.191 122.677C267.663 121.894 266.648 121.416 265.808 121.042Z" fill="#0080E9"/>
<path d="M217.969 270.224C201.117 278.71 183.108 285.277 166.532 293.936C167.619 295.317 169.229 297.521 170.641 298.6C171.068 298.925 171.389 298.733 171.897 298.61C178.838 295.917 186.959 291.823 193.885 288.731L215.056 279.215C218.257 277.789 220.952 276.739 224.184 275.167C222.063 273.896 219.775 271.914 217.969 270.224Z" fill="#FEFEFD"/>
<path d="M240.296 105.333C239.352 106.936 242.083 117.147 242.567 119.486C243.489 123.948 244.329 128.548 245.144 133.019C246.173 138.668 248.162 140.683 243.453 145.473C245.163 146.63 246.657 147.696 248.236 148.928C249.35 149.797 253.419 153.861 254.163 154.166C254.678 153.565 254.594 153.204 254.758 152.327C255.622 147.238 254.531 140.902 252.994 136.028C251.562 131.486 250.244 126.139 253.616 122.16C252.603 119.681 252.161 117.968 251.65 115.371C251.916 114.524 252.363 113.516 252.708 112.68C248.46 108.694 245.702 107.458 240.296 105.333Z" fill="#FEFEFD"/>
<path d="M203.635 196.966C202.759 197.253 201.758 197.505 200.854 197.732C194.91 199.225 189.222 200.919 183.444 202.971C185.419 210.713 190.157 215.79 198.193 217.341C206.505 218.991 210.996 215.662 216.38 210.029C207.076 210.791 203.772 205.595 203.635 196.966Z" fill="#FEFEFD"/>
<path d="M199.892 180.481C188.604 182.159 184.167 189.358 182.848 200.004C187.163 198.939 191.736 197.386 195.979 195.997C203.096 193.976 210.039 191.207 217.454 189.189C213.154 182.657 207.724 179.871 199.892 180.481Z" fill="#97CCFE"/>
<path d="M231.291 169.757C229.599 169.999 227.944 170.454 226.366 171.111C220.934 173.409 218.271 177.594 216.151 182.76C218.17 184.579 218.831 185.344 220.093 187.741C223.87 186.458 227.449 185.243 231.269 184.085C236.936 182.172 243.785 180.389 249.781 178.448C244.34 172.046 240.335 168.704 231.291 169.757Z" fill="#97CCFE"/>
<path d="M235.87 185.986C231.046 187.634 226.374 188.851 221.464 190.182C222.5 193.733 223.502 198.696 222.605 202.348C226.248 204.617 227.874 205.045 232.045 205.628C234.286 205.788 244.904 201.007 246.049 199.523L245.926 199.216C245.352 199.116 244.276 199.046 243.815 198.909C237.493 197.026 234.714 192.13 235.87 185.986Z" fill="#FEFEFD"/>
<path d="M181.968 95.7144C181.843 95.7294 181.718 95.7467 181.593 95.7664C179.802 96.0535 176.956 96.9776 177.508 99.2489C179.483 101.541 183.422 99.29 185.257 97.9401C189.952 98.0313 195.496 97.3768 200.571 97.3858C216.864 97.4148 238.758 98.6172 252.258 108.526C253.396 109.539 254.417 110.869 255.984 110.084C256.116 108.212 252.1 105.661 250.536 104.743C236.09 96.2586 217.574 95.4232 201.187 95.1871C194.623 95.0927 188.633 96.1993 181.968 95.7144Z" fill="#0064C2"/>
<path d="M289.292 172.215C285.297 173.417 283.475 179.569 283.036 183.298C282.695 186.194 283.204 187.783 284.97 189.977C286.062 190.057 287.057 190.082 288.152 190.102C290.307 189.265 293.248 180.2 293.922 177.87C295.116 173.735 292.693 172.834 289.292 172.215Z" fill="#FEFEFD"/>
<path d="M277.606 173.427C273.841 175.438 271.175 176.712 267.187 178.236C267.959 181.41 268.211 185.363 268.95 188.697L269.335 188.936C272.922 187.622 276.113 185.863 279.427 183.972C281.143 180.414 279.766 180.044 278.33 176.484C278.008 175.683 277.769 174.31 277.606 173.427Z" fill="#0064C2"/>
<path d="M282.256 158.335C280.405 158.707 276.895 161.124 275.08 162.014C272.768 163.149 271.154 163.651 268.669 164.268C271.453 166.361 273.548 167.316 276.734 168.683L278.351 169.376C282.687 164.916 283.495 163.958 289.428 162.182C287.301 160.459 284.867 159.154 282.256 158.335Z" fill="#0064C2"/>
<path d="M262.45 164.084C261.914 164.236 261.817 164.31 261.355 164.582C261.442 165.065 263.051 167.543 263.392 168.317C264.393 170.583 265.172 172.954 266.035 175.28C268.382 174.12 271.046 173.02 273.463 171.966L275.951 170.621C271.638 169.146 269.012 165.588 262.45 164.084Z" fill="#FEFEFD"/>
<path d="M258.347 112.453C256.745 112.743 255.481 113.978 255.153 115.572C254.824 117.166 255.498 118.8 256.854 119.699C257.723 120.276 258.783 120.488 259.807 120.292C261.963 119.88 263.379 117.803 262.978 115.646C262.576 113.489 260.506 112.062 258.347 112.453Z" fill="#0080E9"/>
<path d="M256.055 95.0901C253.182 96.5998 251.627 98.5288 247.982 100.207C250.118 101.319 251.267 102.019 253.253 103.383C254.183 104.009 255.72 105.462 256.609 106.264L256.957 106.159C257.96 103.716 256.7 97.7331 256.055 95.0901Z" fill="#0080E9"/>
<path d="M222.073 206.002L221.682 206.23C220.626 208.836 219.254 211.147 217.644 213.439C219.051 212.602 220.62 211.815 222.076 211.05C223.293 210.379 226.655 209.129 228.369 208.301C226.286 207.743 224.093 206.809 222.073 206.002Z" fill="#0080E9"/>
<path d="M178.713 224.816L178.526 224.978C178.546 225.495 181.801 229.757 182.497 231.064L185.025 229.874C185.264 229.808 185.251 229.76 185.465 229.57C184.976 228.789 179.764 225.468 178.713 224.816Z" fill="#0080E9"/>
</g>
<defs>
<clipPath id="clip0_2051_170">
<rect width="318" height="309" fill="white" transform="matrix(-0.965926 0.258819 0.258819 0.965926 307.164 0)"/>
</clipPath>
</defs>
</svg>
