<svg width="246" height="223" viewBox="0 0 246 223" fill="none" xmlns="http://www.w3.org/2000/svg">
<path d="M93.4996 0H94.4026C105.357 5.46654 102.825 9.08597 103.148 20.2187C103.265 24.2323 103.842 28.6116 103.851 32.7482L103.729 49.5509C103.72 51.841 103.922 61.3719 105.031 62.8478C105.623 62.8404 106.056 62.5401 106.437 62.0794C107.772 60.4694 108.619 58.6828 109.961 57.03C113.392 52.8055 117.007 48.7719 119.85 44.1155C120.409 43.1963 121.502 42.2001 122.133 41.2937C124.837 38.0049 127.099 34.2483 129.739 30.9247C132.054 28.2778 134.877 26.3369 137.114 23.5787C138.888 21.3915 139.92 18.8805 141.524 16.643C142.869 14.7667 145.599 13.048 147.209 11.3083C148.35 10.0752 148.966 8.89855 149.988 7.60893C150.307 7.21602 150.685 7.27841 151.145 7.26016C151.934 7.58214 152.365 8.19949 152.926 8.84739C154.14 8.42281 155.178 8.02499 156.449 7.78792C162.891 11.1769 166.774 13.1082 162.406 21.3439C160.528 24.8847 157.889 28.4219 155.479 31.6373C152.744 34.2078 150.053 36.8061 147.468 39.5189C145.919 41.1449 144.331 43.6946 142.883 45.0496C139.144 48.5473 137.495 50.271 135.922 55.2179C135.615 56.1836 132.129 59.0551 131.377 59.9932C130.31 61.0489 128.396 63.8154 127.687 64.4455C126.789 65.3635 125.766 66.3553 124.98 67.3561C124.708 67.8983 124.24 68.6683 124.224 69.2327C129.618 66.9363 133.725 66.5226 139.398 65.2652C141.392 64.8231 143.369 63.909 145.334 63.3412C149.978 61.9995 154.65 61.4061 159.408 60.7376C160.838 60.5389 163.453 58.416 164.494 58.2103C167.849 57.5481 169.791 57.3069 172.828 55.3806C173.663 54.8822 178.046 54.6352 179.375 54.2577C182.25 53.441 184.911 51.9361 187.654 51.1305C191.287 50.0316 194.993 49.1902 198.744 48.6127C201.448 48.2231 204.172 48.0976 206.85 47.5193C209.53 46.9409 212.223 45.3794 214.899 44.9404C215.982 44.7628 218.42 45.2895 219.605 45.5124C221.836 44.1176 222.58 43.475 225.195 43.1459C227.962 42.7326 229.087 42.8388 231.926 42.9625L232.251 42.9976C233.581 43.0608 233.725 43.4338 234.715 44.4061C235.972 45.6374 236.839 46.2622 238.357 47.0724C238.657 49.2864 238.664 52.3063 240.114 53.7252L240.333 53.6671C239.61 52.6296 239.133 49.8138 239.461 48.6029C241.351 47.9895 242.717 47.359 244.681 47.7143C245.069 48.1183 245.218 48.2659 245.671 48.5936C245.578 48.9592 244.623 53.8582 244.904 53.3873C244.107 54.7191 242.204 57.06 242.38 58.8392C241.66 60.3156 241.269 60.3488 239.626 60.1591C236.605 59.8138 233.511 60.8394 230.622 61.6034C229.739 61.8368 228.431 62.2677 227.566 62.3388C216.745 63.2266 207.341 64.8018 197.121 68.5814C192.785 70.1849 185.69 70.4796 181.067 72.1384C180.176 72.3374 179.132 73.5611 178.299 73.7739C175.914 74.3829 173.534 75.241 171.135 75.7688C166.349 76.8224 161.963 78.7487 157.211 79.9871C150.549 81.7235 143.723 82.5184 137.22 84.7812C133.767 85.9896 129.618 85.614 126.032 86.4565C125.127 86.6692 123.885 88.7391 123.453 89.5638C123.379 89.7051 123.308 89.8487 123.242 89.9942C125.785 92.7017 125.469 91.8954 128.913 93.5407C130.218 94.1643 132.257 95.9307 133.749 96.5766C134.85 97.0533 136.161 96.8183 137.05 97.1979C143.27 99.8575 149.586 100.89 155.896 103.263C157.361 103.815 159.946 104.041 161.606 104.684C163.068 105.25 164.323 106.854 165.475 107.321C168.955 108.73 172.576 109.694 176.029 111.27C177.863 112.108 179.426 113.463 181.094 114.359C183.013 115.389 184.957 115.217 186.895 116.754C193.313 120.401 190.891 125.851 189.536 131.525C188.313 131.865 186.193 132.586 185.105 132.825C184.28 133.228 178.663 133.044 177.091 133.108C172.911 130.506 167.738 128.312 163.336 125.986C162.047 125.306 159.576 124.946 158.109 124.346C155.283 123.19 152.482 121.997 149.598 120.988C148.064 120.446 146.015 118.614 143.968 117.769C143.274 117.917 142.575 118.037 141.872 118.129C138.362 118.565 136.9 117.265 134.288 115.244C127.554 115.648 130.422 114.959 125.389 112.71C119.605 110.125 117.375 110.491 112.811 105.487C111.914 105.676 110.333 106.076 109.485 105.854C108.668 105.64 108.375 105.402 107.48 105.376C106.691 106.53 107.065 114.035 107.087 115.759C107.179 120.931 107.453 126.117 107.468 131.288C107.482 135.804 106.867 140.203 107.359 144.717C107.474 145.772 106.814 147.656 106.903 148.832C107.116 151.636 107.691 154.406 107.808 157.217C107.827 159.66 106.729 162.131 106.927 164.871C107.176 168.305 108.166 171.422 108.672 174.753C109.348 179.209 109.638 183.725 110.253 188.218C110.416 190.692 110.371 193.226 110.33 195.707C110.41 196.506 109.913 198.772 110.096 199.476C111.302 204.096 111.491 208.722 112.102 213.435C112.346 215.316 114.027 216.229 114.515 218C115.34 220.996 113.62 219.901 114.015 223C104.469 219.636 102.647 218.069 102.515 218.5C98.5146 218.5 103.865 216.453 99.9603 215.718C88.5135 213.561 92.8078 213.839 92.0296 205C91.8939 203.458 92.3747 207.393 92.1314 205.753C91.6226 202.328 91.7679 198.829 91.1489 195.404C90.959 194.566 91.7683 193.002 91.66 192.256C89.221 175.412 87.3063 158.5 88.3308 141.448C88.5655 137.54 89.1445 134.226 88.4833 130.277C88.2139 128.669 88.602 126.677 88.8961 125.066C88.401 124.476 87.9689 123.827 87.2914 123.525L87.0571 123.873C87.1603 124.28 87.4337 125.256 87.2129 125.635C85.4244 128.738 82.9858 131.526 81.2236 134.67C79.8567 137.108 77.8135 138.818 76.1335 140.98C74.8922 142.578 74.0782 144.805 72.8847 146.498C71.3977 148.607 69.7801 150.621 68.2953 152.729C67.6171 153.916 67.3805 155.516 66.6656 156.666C63.8377 161.216 61.1983 165.665 58.8502 170.481C56.2782 175.757 54.0174 175.54 48.9976 176.947C44.2032 175.696 41.3744 171.81 39.5443 167.441C39.7497 167.009 39.9878 166.598 40.2404 166.193C42.2453 162.971 43.0536 159.172 45.045 155.944C45.6026 155.04 46.215 154.174 46.876 153.348C48.8944 150.824 50.582 148.064 52.1955 145.271C53.8824 142.3 54.5887 138.818 56.5673 135.999C57.0066 135.373 57.9905 134.95 58.6661 134.613C60.7591 130.823 59.4661 129.955 63.335 126.88C65.3866 125.249 73.324 113.773 74.5038 111.218C74.8006 110.576 74.9075 109.825 74.9823 109.126L74.9963 108.987C75.7252 108.411 75.8707 108.676 77.0751 108.655L77.3902 108.249C77.3194 106.282 78.1375 105.908 79.5903 104.929C79.549 104.433 79.5369 104.417 79.2961 103.974C77.7937 103.578 74.0301 106.071 72.4222 106.651C68.8299 107.947 65.3166 109.163 61.848 110.781C60.3381 111.485 57.4738 110.945 55.8673 111.472C55.6349 111.552 53.7415 112.93 53.3815 113.162C52.4535 112.728 51.1705 112.335 50.1785 111.998C46.6859 115.885 46.0196 113.961 41.4448 114.144C39.3307 114.228 36.3808 115.064 34.219 115.27C32.6372 115.421 30.4633 117.16 29.1211 116.986C28.9819 116.828 28.418 116.184 28.2851 116.178C26.1645 116.079 19.9283 118.221 18.3795 118.509C13.9445 119.283 9.38307 121.098 5.16284 118.771C2.28558 117.184 -1.36152 111.849 0.51421 108.774C1.56461 108.613 1.48174 110.166 2.51535 110.583C3.14554 110.587 3.3853 110.637 3.95695 110.36C3.8703 109.284 1.70991 107.598 2.15981 105.989C3.17956 102.427 8.66089 102.846 11.2389 101.809C14.4171 100.532 15.6692 100.641 18.9067 100.165C20.7709 99.8907 23.5132 98.4588 25.443 98.2905C30.2409 97.8717 34.8124 97.0424 39.5524 96.3133C41.9884 95.7989 48.0832 95.8013 50.1127 94.7038C55.1886 91.9593 59.8608 90.9388 65.3701 89.3953C66.5017 89.0782 68.1213 87.5101 69.3245 87.7446C69.5964 88.4823 69.3896 88.7545 69.225 89.6563C69.5685 89.669 72.1603 87.2172 73.3763 86.6966L73.483 86.6522L73.457 86.239C72.0652 84.3236 64.3293 81.7397 61.6065 79.8664C57.1326 76.788 53.1786 73.509 48.8684 70.2047C47.4655 69.0504 45.0664 68.4222 43.7072 67.3584C38.4194 63.2201 35.2329 57.2355 39.8671 51.1551C42.7187 46.4934 45.4583 48.7393 49.5317 48.5808C52.6475 48.4597 52.5676 49.4815 54.3005 52.182C57.2841 53.4322 59.0087 54.2229 61.4507 56.3007C61.7575 57.0921 62.0441 58.1431 62.2961 58.9726C69.07 61.0547 71.2192 64.5026 76.8073 67.7981C82.0238 70.8743 82.7499 67.1827 85.5424 74.8273C85.7351 70.7309 84.88 65.9634 85.089 61.7326C85.1771 59.9486 84.5893 57.7182 84.7799 55.7838C85.1599 51.9221 86.2399 48.2371 86.3317 44.34C86.5216 40.9032 86.5144 37.3709 86.5191 33.9336C86.523 31.2012 85.9455 29.4399 87.6896 27.2919C87.8395 27.1074 86.4459 23.3812 86.391 22.5691C86.305 21.2966 86.4519 19.7485 86.4982 18.4176C86.5532 13.8886 86.5656 9.98212 88.4396 5.72144C89.5176 3.27052 90.8963 1.03701 93.4996 0Z" fill="#D1FE09"/>
</svg>
