<svg width="158" height="214" viewBox="0 0 158 214" fill="none" xmlns="http://www.w3.org/2000/svg">
<path d="M55.6595 25.4899C56.965 25.3654 58.2745 25.2899 59.5855 25.2634C84.2815 24.8254 79.239 57.4469 79.429 73.6414C89.6625 70.4424 96.973 73.1989 102.839 82.0994C114.19 76.7479 122.84 81.5229 129.495 91.0219C132.114 89.7594 134.388 89.0659 137.33 88.9679C142.416 88.7814 147.354 90.6979 150.982 94.2659C159.437 102.516 157.369 114.799 157.346 125.707C157.281 157.062 162.598 194.727 126.978 209.847C116.408 214.334 105.79 213.606 94.6285 213.565C88.4205 213.603 80.976 213.791 74.868 213.404C61.4655 212.684 48.9065 206.64 39.982 196.616C36.173 192.257 32.8835 186.657 30.0105 181.576C20.7125 165.026 10.6385 148.72 2.142 131.758C-4.8585 117.781 6.2345 101.221 21.8745 102.644C30.696 103.446 34.4755 109.123 39.6985 115.387C40.087 99.0164 38.9505 82.1124 39.549 65.6964C40.1795 48.3989 35.2635 32.1894 55.6595 25.4899ZM53.4155 42.8044C52.674 73.6879 53.971 104.782 53.175 135.657C53.065 139.93 49.3215 143.01 45.6525 142.154C40.0605 140.215 35.013 130.421 31.32 126.403C28.3945 123.221 24.105 115.548 19.476 115.545C11.547 115.541 13.3095 124.841 15.556 128.832C25.7645 146.965 35.5665 164.744 46.22 182.543C48.562 185.782 52.0455 190.463 55.2455 192.939C66.7515 201.843 80.4165 200.229 93.732 200.514C115.894 200.987 131.707 199.775 141.089 176.469C141.802 173.812 143.551 167.702 143.746 165.147C144.532 154.65 143.996 144.028 144.06 133.497C143.959 125.306 144.312 117.033 144.015 108.856C143.922 106.277 142.371 102.509 139.564 102.095C135.644 101.516 133.278 103.901 131.439 106.889C131.406 111.771 133.21 129.548 124.796 128.428C108.941 126.319 126.063 94.7074 111.53 92.9384C98.0145 91.2939 113.752 133.031 93.62 119.746C87.093 115.439 99.098 76.6304 81.8295 86.7229C75.2095 94.8614 83.2225 108.878 77.1815 117.268C75.553 119.53 69.37 119.24 68.0565 117.24C64.4915 111.81 65.7565 98.7909 65.791 92.4774L65.9205 57.6379C65.947 50.3469 68.4605 37.1534 57.4655 38.4644C55.3185 40.1784 55.0185 40.5579 53.4155 42.8044Z" fill="#00021D"/>
<path d="M57.8542 0.110289C68.6942 -0.823711 81.2652 4.2738 89.0587 11.6373C97.4557 19.5713 102.833 30.6178 102.974 42.2418C103.049 48.3978 102.337 57.5418 98.0562 62.4068C95.4952 65.3183 90.1557 64.5953 87.9577 61.7623C84.7302 57.3243 89.4677 51.0118 89.7862 46.1038C90.8992 28.9588 78.9497 14.9693 61.8932 13.3008C58.8407 13.2503 56.6072 13.2033 53.6222 13.8838C45.4227 15.7093 38.3157 20.7853 33.9282 27.9488C30.7842 33.1253 28.7102 41.0438 29.7372 47.1403C30.2067 49.9263 31.8012 53.4898 32.4787 56.5118C33.9472 63.0593 26.4392 66.5108 21.6487 62.7048C19.0342 60.1703 16.8832 51.9503 16.5582 48.5043C15.3622 36.5403 19.0052 24.5953 26.6747 15.3348C34.6142 5.93429 45.7587 1.09579 57.8542 0.110289Z" fill="#00021D"/>
</svg>
