<svg width="160" height="179" viewBox="0 0 160 179" fill="none" xmlns="http://www.w3.org/2000/svg">
<path d="M78.9093 0C87.4143 0.621 92.7593 4.9925 100.349 8.8765C105.329 11.477 110.489 13.712 115.794 15.5635C120.499 17.198 125.304 18.5375 130.174 19.5745C136.634 20.946 146.249 21.658 151.749 25.2585C162.374 32.3755 158.969 49.2405 159.569 59.9875C161.494 94.687 154.209 128.095 127.574 152.283C115.529 163.222 97.5443 174.887 81.2193 178.108C71.3193 178.266 52.2992 167.563 44.0192 161.9C21.8792 146.767 6.94924 124.552 2.32424 98.049C-0.42076 84.015 -0.0257504 69.935 0.0842496 55.6715C0.14425 47.3255 -0.660782 37.396 3.48922 29.774C7.79422 22.1635 18.2692 21.998 25.7642 20.472C39.2742 17.7215 51.9793 13.4555 63.9143 6.53601C68.9093 3.64201 73.1443 1.0295 78.9093 0ZM80.2492 164.453C101.354 159.39 122.474 142.097 133.584 123.642C146.344 103.693 146.199 80.0775 145.939 57.259C145.879 51.5975 146.454 44.6515 145.509 39.071C144.554 33.431 132.644 34.144 128.029 32.8635C123.369 31.5705 119.069 30.4895 114.419 28.9495C107.569 26.702 100.904 23.932 94.4792 20.664C89.7442 18.2715 84.6142 15.1775 79.7342 13.4085C73.9092 15.84 68.6842 19.1275 63.1692 21.7965C49.6442 28.342 35.3742 32.8905 20.4342 34.57C18.8942 34.7435 15.2742 35.9395 14.5692 37.601C13.0192 43.226 14.0192 49.752 13.8292 55.5765C13.9042 77.783 12.4342 95.7115 22.2092 116.552C32.6192 138.757 51.5943 153.863 74.0943 162.86C75.4693 163.409 78.7642 164.307 80.2492 164.453Z" fill="#00021D"/>
<path d="M109.059 60.398C112.819 60.2635 116.604 60.8685 117.304 65.5685C117.759 68.603 115.734 71.397 113.744 73.552C101.374 86.886 89.1041 100.612 76.2941 113.49C70.9391 118.875 63.7991 112.372 60.1741 108.447C57.3441 105.377 54.1042 102.413 51.0892 99.5085C49.1092 97.6175 42.5842 91.9795 42.9642 89.116C45.4342 70.622 65.0391 94.431 70.7291 99.809C76.1491 94.0125 104.744 63.0165 109.059 60.398Z" fill="#00021D"/>
</svg>
