<svg width="211" height="36" viewBox="0 0 211 36" fill="none" xmlns="http://www.w3.org/2000/svg">
<g clip-path="url(#clip0_2111_161)">
<path d="M203.995 10.8864C203.995 10.4184 204.239 10.1808 204.728 10.1808H210.303C210.77 10.1808 211.007 10.4184 211.007 10.8864V27.8856C211.007 29.124 210.857 30.2472 210.555 31.2552C210.253 32.2632 209.757 33.12 209.082 33.8184C208.407 34.524 207.516 35.0568 206.416 35.4312C205.317 35.8056 203.988 35.9928 202.421 35.9928H196.465C195.977 35.9928 195.732 35.7552 195.732 35.2872V30.6504C195.732 30.3912 195.804 30.204 195.941 30.0888C196.084 29.9736 196.257 29.916 196.465 29.916H202.069C202.651 29.916 203.118 29.772 203.47 29.4912C203.823 29.232 203.995 28.8 203.995 28.1952V16.3584C203.664 16.0992 203.32 15.9264 202.946 15.8328C202.594 15.7176 202.271 15.66 201.962 15.66C199.698 15.66 198.563 16.74 198.563 18.8928C198.563 20.016 198.865 20.8368 199.476 21.348C200.108 21.8376 200.984 22.0824 202.105 22.0824H202.249C202.716 22.0824 202.953 22.32 202.953 22.788V27.036C202.953 27.504 202.716 27.7416 202.249 27.7416H202.105C200.517 27.7416 199.08 27.5688 197.794 27.216C196.508 26.8632 195.409 26.3376 194.496 25.632C193.606 24.9264 192.916 24.0624 192.427 23.0328C191.939 21.9816 191.694 20.7504 191.694 19.3464V18.6408C191.694 17.28 191.917 16.0776 192.363 15.0264C192.808 13.9464 193.412 13.0464 194.188 12.3192C194.956 11.5704 195.869 10.9944 196.918 10.5984C197.967 10.2024 199.116 10.0008 200.352 10.0008C200.963 10.0008 201.588 10.0944 202.242 10.2816C202.896 10.4472 203.478 10.7136 203.995 11.088V10.8792V10.8864Z" fill="white"/>
<path d="M177.576 28.5912C177.576 29.0808 177.339 29.3256 176.872 29.3256H171.368C170.901 29.3256 170.664 29.0808 170.664 28.5912V10.8504C170.664 10.404 170.901 10.1808 171.368 10.1808H176.872C177.339 10.1808 177.576 10.404 177.576 10.8504V11.2752C178.115 10.8792 178.769 10.5696 179.537 10.3608C180.335 10.1232 181.118 10.008 181.887 10.008C184.43 10.008 186.406 10.8072 187.807 12.3984C189.23 13.968 189.948 16.2864 189.948 19.3536V28.5912C189.948 29.0808 189.711 29.3256 189.244 29.3256H183.777C183.31 29.3256 183.072 29.0808 183.072 28.5912V19.5984C183.072 18.2664 182.807 17.2944 182.268 16.6824C181.75 16.0704 180.939 15.768 179.818 15.768C179.487 15.768 179.114 15.8256 178.697 15.9408C178.273 16.056 177.899 16.2576 177.576 16.5384V28.584V28.5912Z" fill="white"/>
<path d="M159.074 29.8512C157.651 29.8512 156.329 29.6856 155.115 29.3616C153.922 29.0592 152.895 28.5624 152.033 27.8856C151.171 27.2088 150.488 26.3304 149.999 25.2504C149.511 24.1488 149.267 22.824 149.267 21.2832V18.2304C149.267 16.6824 149.511 15.372 149.999 14.2992C150.488 13.1976 151.171 12.312 152.033 11.628C152.895 10.9512 153.922 10.4544 155.115 10.152C156.329 9.82081 157.651 9.66241 159.074 9.66241C160.497 9.66241 161.819 9.82801 163.033 10.152C164.247 10.4544 165.289 10.9512 166.151 11.628C167.013 12.3048 167.696 13.1976 168.185 14.2992C168.673 15.3792 168.917 16.6896 168.917 18.2304V21.2832C168.917 22.8312 168.673 24.1488 168.185 25.2504C167.696 26.3304 167.013 27.2088 166.151 27.8856C165.289 28.5624 164.247 29.0592 163.033 29.3616C161.819 29.6928 160.497 29.8512 159.074 29.8512ZM159.074 24.1632C159.634 24.1632 160.101 24.0696 160.475 23.8824C160.87 23.6952 161.186 23.4576 161.424 23.1768C161.661 22.8744 161.819 22.536 161.912 22.1616C162.027 21.7872 162.085 21.4128 162.085 21.0384V18.4752C162.085 18.1008 162.027 17.7408 161.912 17.388C161.819 17.0136 161.653 16.6752 161.424 16.3728C161.186 16.0704 160.877 15.8256 160.475 15.6384C160.101 15.4512 159.634 15.3576 159.074 15.3576C158.514 15.3576 158.032 15.4512 157.637 15.6384C157.263 15.8256 156.962 16.0704 156.725 16.3728C156.487 16.6752 156.329 17.0136 156.236 17.388C156.143 17.7408 156.092 18.1008 156.092 18.4752V21.0384C156.092 21.4128 156.135 21.7872 156.236 22.1616C156.329 22.536 156.495 22.8744 156.725 23.1768C156.962 23.4576 157.263 23.6952 157.637 23.8824C158.032 24.0696 158.514 24.1632 159.074 24.1632Z" fill="white"/>
<path d="M124.882 28.5912C124.882 29.0808 124.645 29.3256 124.178 29.3256H118.854C118.387 29.3256 118.149 29.0808 118.149 28.5912V10.8504C118.149 10.404 118.379 10.1808 118.854 10.1808H124.178C124.645 10.1808 124.882 10.404 124.882 10.8504V11.1312C125.37 10.7784 125.945 10.512 126.599 10.3248C127.253 10.116 127.942 10.008 128.668 10.008C130.816 10.008 132.548 10.6776 133.856 12.0096C134.718 11.1888 135.666 10.6488 136.694 10.3968C137.721 10.1376 138.677 10.008 139.568 10.008C140.76 10.008 141.831 10.2096 142.794 10.6056C143.778 11.0016 144.619 11.5992 145.316 12.3984C146.02 13.1688 146.551 14.1408 146.925 15.3144C147.32 16.488 147.521 17.8344 147.521 19.3536V28.5912C147.521 29.0808 147.284 29.3256 146.817 29.3256H141.522C141.055 29.3256 140.818 29.0808 140.818 28.5912V19.5984C140.818 18.2664 140.581 17.2944 140.114 16.6824C139.647 16.0704 138.943 15.768 138.009 15.768C137.707 15.768 137.369 15.84 136.995 15.9768C136.643 16.1208 136.327 16.3512 136.047 16.6824C136.191 17.5248 136.255 18.4176 136.255 19.3536V28.5912C136.255 29.0808 136.018 29.3256 135.551 29.3256H130.256C129.789 29.3256 129.552 29.0808 129.552 28.5912V19.5984C129.552 18.2664 129.329 17.2944 128.884 16.6824C128.46 16.0704 127.691 15.768 126.57 15.768C125.938 15.768 125.363 15.9552 124.853 16.3296V28.584L124.882 28.5912Z" fill="white"/>
<path d="M103.032 10.188C103.477 10.188 103.743 10.3752 103.837 10.7496L105.978 17.7408C106.093 18.072 106.086 18.396 105.942 18.7272L103.276 25.7832C103.161 26.0424 102.996 26.172 102.788 26.172C102.601 26.172 102.45 26.0424 102.335 25.7832L96.6589 10.9944C96.429 10.4544 96.6014 10.188 97.1834 10.188H103.039H103.032ZM110.116 10.7496C110.282 10.3752 110.569 10.188 110.993 10.188H116.425C116.705 10.188 116.892 10.2672 116.985 10.4328C117.1 10.5768 117.1 10.7712 116.985 11.0304L107.659 35.2656C107.659 35.7552 107.429 36 106.955 36H101.523C101.056 36 100.819 35.7552 100.819 35.2656L110.109 10.7496H110.116Z" fill="white"/>
<path d="M95.5019 28.6272C95.5019 29.0952 95.2648 29.3328 94.7978 29.3328H89.2223C88.7337 29.3328 88.4894 29.0952 88.4894 28.6272V16.3728C88.1877 16.164 87.8715 16.0128 87.541 15.9192C87.2105 15.8256 86.9016 15.7752 86.5926 15.7752C85.4718 15.7752 84.5952 16.0776 83.9629 16.6896C83.3522 17.3016 83.0504 18.2736 83.0504 19.6056C83.0504 20.9376 83.3522 21.996 83.9629 22.6296C84.5952 23.2416 85.4718 23.544 86.5926 23.544H86.7363C87.2033 23.544 87.4404 23.7888 87.4404 24.2784V28.6344C87.4404 29.1024 87.2033 29.34 86.7363 29.34H86.5926C85.0047 29.34 83.5678 29.1528 82.2816 28.7784C80.9955 28.404 79.8963 27.828 78.9838 27.0576C78.0928 26.2872 77.4031 25.3224 76.9145 24.1776C76.4259 23.004 76.1816 21.636 76.1816 20.0664V19.3608C76.1816 17.8416 76.4044 16.4952 76.8498 15.3216C77.2953 14.148 77.8988 13.176 78.6748 12.4056C79.4436 11.6064 80.3561 11.016 81.4051 10.6128C82.4828 10.2168 83.6396 10.0152 84.8754 10.0152C85.4861 10.0152 86.104 10.1088 86.7363 10.296C87.3901 10.4616 87.9721 10.728 88.4894 11.1024V10.8936C88.4894 10.4256 88.7337 10.188 89.2223 10.188H94.7978C95.2648 10.188 95.5019 10.4256 95.5019 10.8936V28.6272Z" fill="white"/>
<path d="M67.7465 11.9088C67.7465 10.5768 67.337 9.60477 66.5179 8.99277C65.7204 8.35917 64.5061 8.04237 62.8751 8.04237H54.4975C54.0089 8.04237 53.7646 7.80477 53.7646 7.33677V2.45517C53.7646 1.98717 54.0089 1.74957 54.4975 1.74957H62.8751C66.5898 1.74957 69.4781 2.57757 71.533 4.24077C73.5879 5.88237 74.6153 8.22957 74.6153 11.2968V12.0024C74.6153 13.572 74.3495 14.9904 73.8106 16.2504C73.2933 17.4888 72.5389 18.5544 71.533 19.4472C70.5271 20.3112 69.2913 20.9808 67.8184 21.4488C66.367 21.9168 64.7217 22.1544 62.8751 22.1544H62.2788C62.092 22.1544 61.8908 22.14 61.6824 22.1184V28.6128C61.6824 29.0808 61.4382 29.3184 60.9496 29.3184H55.2016C54.7346 29.3184 54.4975 29.0808 54.4975 28.6128V9.79917C54.4975 9.33117 54.7346 9.09357 55.2016 9.09357H60.9496C61.4382 9.09357 61.6824 9.33117 61.6824 9.79917V15.84C61.8908 15.8616 62.092 15.876 62.2788 15.876H62.8751C64.5133 15.876 65.7276 15.5592 66.5179 14.9256C67.337 14.292 67.7465 13.284 67.7465 11.9016V11.9088Z" fill="white"/>
<mask id="mask0_2111_161" style="mask-type:luminance" maskUnits="userSpaceOnUse" x="0" y="0" width="47" height="29">
<path d="M46.2638 0H0V28.8H46.2638V0Z" fill="white"/>
</mask>
<g mask="url(#mask0_2111_161)">
<path d="M23.1219 7.7976C23.1004 5.112 24.4942 2.5056 26.973 1.0656C30.6517 -1.0656 35.3722 0.201601 37.499 3.8808L45.2084 17.2296C47.3351 20.9088 46.0706 25.6248 42.3919 27.756C38.7132 29.8872 33.9927 28.62 31.866 24.9408L30.8026 23.0976L29.7608 24.912C28.6759 26.7912 26.9227 28.0368 24.9684 28.5336H24.9325C24.9325 28.5336 24.9038 28.5336 24.8966 28.5408C24.3577 28.6776 23.8045 28.7424 23.2584 28.7496H22.9351C22.389 28.7424 21.843 28.6632 21.2969 28.5408C21.2897 28.5408 21.2682 28.5408 21.261 28.5336H21.2251C19.278 28.044 17.5177 26.7912 16.4327 24.912L15.0029 22.4352L23.1578 7.7976H23.1363H23.1219Z" fill="url(#paint0_linear_2111_161)"/>
<path d="M23.1219 7.7976C23.1004 5.112 24.4942 2.5056 26.973 1.0656C30.6517 -1.0656 35.3722 0.201601 37.499 3.8808L45.2084 17.2296C47.3351 20.9088 46.0706 25.6248 42.3919 27.756C38.7132 29.8872 33.9927 28.62 31.866 24.9408L30.8026 23.0976L29.7608 24.912C28.6759 26.7912 26.9227 28.0368 24.9684 28.5336H24.9325C24.9325 28.5336 24.9038 28.5336 24.8966 28.5408C24.3577 28.6776 23.8045 28.7424 23.2584 28.7496H22.9351C22.389 28.7424 21.843 28.6632 21.2969 28.5408C21.2897 28.5408 21.2682 28.5408 21.261 28.5336H21.2251C19.278 28.044 17.5177 26.7912 16.4327 24.912L15.0029 22.4352L23.1578 7.7976H23.1363H23.1219Z" fill="url(#paint1_linear_2111_161)" fill-opacity="0.8"/>
<path d="M19.2705 1.07281C22.9492 3.20401 24.2137 7.92001 22.087 11.5992L14.3775 24.948C12.2508 28.6272 7.5303 29.8944 3.85161 27.7632C0.172922 25.6392 -1.08444 20.916 1.0423 17.2368L8.74455 3.89521C10.8713 0.20161 15.5846 -1.05119 19.2705 1.07281Z" fill="url(#paint2_linear_2111_161)"/>
</g>
<mask id="mask1_2111_161" style="mask-type:luminance" maskUnits="userSpaceOnUse" x="0" y="0" width="47" height="29">
<path d="M46.2638 0H0V28.8H46.2638V0Z" fill="white"/>
</mask>
<g mask="url(#mask1_2111_161)">
<path d="M23.1219 7.7976C23.1004 5.112 24.4942 2.5056 26.973 1.0656C30.6517 -1.0656 35.3722 0.201601 37.499 3.8808L45.2084 17.2296C47.3351 20.9088 46.0706 25.6248 42.3919 27.756C38.7132 29.8872 33.9927 28.62 31.866 24.9408L30.8026 23.0976L29.7608 24.912C28.6759 26.7912 26.9227 28.0368 24.9684 28.5336H24.9325C24.9325 28.5336 24.9038 28.5336 24.8966 28.5408C24.3577 28.6776 23.8045 28.7424 23.2584 28.7496H22.9351C22.389 28.7424 21.843 28.6632 21.2969 28.5408C21.2897 28.5408 21.2682 28.5408 21.261 28.5336H21.2251C19.278 28.044 17.5177 26.7912 16.4327 24.912L15.0029 22.4352L23.1578 7.7976H23.1363H23.1219Z" fill="url(#paint3_linear_2111_161)"/>
<path d="M23.1219 7.7976C23.1004 5.112 24.4942 2.5056 26.973 1.0656C30.6517 -1.0656 35.3722 0.201601 37.499 3.8808L45.2084 17.2296C47.3351 20.9088 46.0706 25.6248 42.3919 27.756C38.7132 29.8872 33.9927 28.62 31.866 24.9408L30.8026 23.0976L29.7608 24.912C28.6759 26.7912 26.9227 28.0368 24.9684 28.5336H24.9325C24.9325 28.5336 24.9038 28.5336 24.8966 28.5408C24.3577 28.6776 23.8045 28.7424 23.2584 28.7496H22.9351C22.389 28.7424 21.843 28.6632 21.2969 28.5408C21.2897 28.5408 21.2682 28.5408 21.261 28.5336H21.2251C19.278 28.044 17.5177 26.7912 16.4327 24.912L15.0029 22.4352L23.1578 7.7976H23.1363H23.1219Z" fill="url(#paint4_linear_2111_161)" fill-opacity="0.8"/>
<path d="M19.2705 1.07281C22.9492 3.20401 24.2137 7.92001 22.087 11.5992L14.3775 24.948C12.2508 28.6272 7.5303 29.8944 3.85161 27.7632C0.172922 25.6392 -1.08444 20.916 1.0423 17.2368L8.74455 3.89521C10.8713 0.20161 15.5846 -1.05119 19.2705 1.07281Z" fill="url(#paint5_linear_2111_161)"/>
</g>
</g>
<defs>
<linearGradient id="paint0_linear_2111_161" x1="21.8717" y1="10.2672" x2="47.7876" y2="31.2093" gradientUnits="userSpaceOnUse">
<stop stop-color="#0038F1"/>
<stop offset="0.65" stop-color="#008FFC"/>
</linearGradient>
<linearGradient id="paint1_linear_2111_161" x1="41.465" y1="29.952" x2="21.439" y2="8.56665" gradientUnits="userSpaceOnUse">
<stop stop-color="#AE00FF"/>
<stop offset="1" stop-color="#AE00FF" stop-opacity="0"/>
</linearGradient>
<linearGradient id="paint2_linear_2111_161" x1="19.2489" y1="1.05841" x2="3.83196" y2="27.7569" gradientUnits="userSpaceOnUse">
<stop stop-color="#0038F1"/>
<stop offset="1" stop-color="#00ABFF"/>
</linearGradient>
<linearGradient id="paint3_linear_2111_161" x1="21.8717" y1="10.2672" x2="47.7876" y2="31.2093" gradientUnits="userSpaceOnUse">
<stop stop-color="#0038F1"/>
<stop offset="0.65" stop-color="#008FFC"/>
</linearGradient>
<linearGradient id="paint4_linear_2111_161" x1="41.465" y1="29.952" x2="21.439" y2="8.56665" gradientUnits="userSpaceOnUse">
<stop stop-color="#AE00FF"/>
<stop offset="1" stop-color="#AE00FF" stop-opacity="0"/>
</linearGradient>
<linearGradient id="paint5_linear_2111_161" x1="19.2489" y1="1.05841" x2="3.83196" y2="27.7569" gradientUnits="userSpaceOnUse">
<stop stop-color="#0038F1"/>
<stop offset="1" stop-color="#00ABFF"/>
</linearGradient>
<clipPath id="clip0_2111_161">
<rect width="211" height="36" fill="white"/>
</clipPath>
</defs>
</svg>
